<svg width="143" height="123" viewBox="0 0 143 123" xmlns="http://www.w3.org/2000/svg"><title>A_Engage</title><defs><linearGradient x1="49.987%" y1=".009%" x2="49.987%" y2="100.049%" id="a"><stop stop-color="#FFF" stop-opacity=".2" offset="0%"/><stop stop-color="#FFF" stop-opacity=".22" offset="10%"/><stop stop-color="#FFF" stop-opacity=".29" offset="24%"/><stop stop-color="#FFF" stop-opacity=".4" offset="40%"/><stop stop-color="#FFF" stop-opacity=".56" offset="57%"/><stop stop-color="#FFF" stop-opacity=".76" offset="76%"/><stop stop-color="#FFF" offset="95%"/></linearGradient></defs><path d="M56.571 46.19c-4.32 4.71-32.86-24.19-35.3-20.52-2.44 3.67 10.24 12.05 6.11 17.5-4.49 5.9 15.27 25.83 10.52 33.38-5.49 8.75-8.36 2.85-12.43 5.7-2.91 2-18.77-13-22.07-11.45-3.3 1.55 21 23.14 20.2 28.17-1.34 8.38-9.3 4.27-10 7.14-1.15 4.57-12.19 1.24-13.31 3.07-1.12 1.83 8.89 3.42 12.98 4.82 4.09 1.4 23.65 4.32 24.5 9h74.23c.13-6.61 29.48-5.38 29.3-10.08-.18-4.7-9.67-2.45-11.18-6.35-2.41-6.25 10.23-13.23 9.41-15.87-.45-1.48-7.52 1.85-8.54-.91-1.02-2.76-11.4 5-14.66-.72-4-7 21.57-17.71 19.94-21.57-1.63-3.86-26.46 9.36-30.12 2-2.21-4.41 26.31-14.67 24-17.72-2.31-3.05 14.23-9.36 12.52-11.39-1.71-2.03-22.44 12.84-25.49 7.02-3.05-5.82-19.94 10.18-25.44 3.26s21-20.76 18.52-24c-3.29-4.38-23 14.45-27.85 8.75-3.23-3.85.82-11.42-4.06-11.42s-4.34-22.45-8.69-23c-4.35-.55-.65 19-3.93 25.24-4.27 8.15 2.04 7.76-9.16 19.95z" fill-rule="nonzero" fill="url(#a)"/></svg>