<svg viewBox="0 0 350 225" xmlns="http://www.w3.org/2000/svg">
  <defs>
    <linearGradient id="a" x1="50%" x2="50%" y1="0%" y2="82.59%">
      <stop stop-color="#FFF" stop-opacity=".15" offset="0%"/>
      <stop stop-color="#FFF" offset="100%"/>
    </linearGradient>
  </defs>
  <g fill="url(#a)" fill-rule="evenodd">
    <path d="M176.72 207.6s8.6-71.26 8.25-112.22c-.36-40.96-4.84-94.84-9.7-94.8-4.84.06-10.07 49.73-9.68 95 .38 45.27 11.12 112 11.12 112zM171.4 210.07s-30.15-42.33-59.36-71.04c-29.2-28.7-63.5-59.37-66.9-55.9-3.38 3.46 21.05 38 53.34 69.74 32.3 31.74 72.93 57.2 72.93 57.2zM179.26 208.67s27.56-44.06 42.9-82.03C237.53 88.66 253.5 37.8 249 36c-4.5-1.8-27.84 41.43-44.8 83.4-16.97 41.98-24.94 89.27-24.94 89.27zM173.97 209.04S162.3 158.4 146.3 120.7c-16-37.72-37.77-85.63-42.23-83.73-4.46 1.9 6.72 49.64 24.4 91.32 17.7 41.66 45.5 80.74 45.5 80.74zM182.2 215.95s51.24 8.6 92.2 8.25c40.96-.35 74.85-4.84 74.8-9.7-.05-4.83-29.73-10.06-75-9.67-45.27.4-92 11.12-92 11.12zM167.52 215.95s-51.25 8.6-92.2 8.25c-40.97-.35-74.85-4.84-74.8-9.7.05-4.83 29.72-10.06 75-9.67 45.26.4 92 11.12 92 11.12zM169.44 212s-44.06-27.56-82.04-42.9c-37.97-15.36-71-24.18-72.8-19.68-1.82 4.5 23.6 20.68 65.57 37.65 41.98 16.96 89.27 24.93 89.27 24.93zM182.22 213.2s50.64-11.67 88.35-27.67c37.7-16 67.3-33.12 65.4-37.57-1.9-4.46-31.33 2.06-73 19.75-41.68 17.7-80.75 45.5-80.75 45.5zM181.2 210.64s42.3-30.16 71.02-59.37c28.7-29.2 57.3-63.88 53.82-67.27-3.46-3.4-35.92 21.42-67.66 53.7-31.74 32.3-57.2 72.94-57.2 72.94z"/>
  </g>
</svg>
