<svg width="143" height="123" viewBox="0 0 143 123" xmlns="http://www.w3.org/2000/svg"><title>A_Fight</title><defs><linearGradient x1="49.982%" y1=".001%" x2="49.982%" y2="99.991%" id="a"><stop stop-color="#FFF" stop-opacity=".2" offset="0%"/><stop stop-color="#FFF" stop-opacity=".55" offset="39%"/><stop stop-color="#FFF" stop-opacity=".87" offset="78%"/><stop stop-color="#FFF" offset="95%"/></linearGradient></defs><path d="M65.389 21.305c-2.234-.97-2.088-9.801-5.991-8.695-5.22 1.461-7.933-5.845-12.098-4.426-2.975 2.965 3.946 28.287 1.962 28.778-1.983.49-12.327-13.298-14.665-12.453-2.338.846 4.342 3.674 1.628 7.724-2.714 4.05 3.132 10.73 6.451 18.079.376.835.658 2.014-.115 2.515-.355.19-.769.239-1.158.136-2.464-.449-6.054-4.269-6.973-2.087-.919 2.181 9.499 11.732 5.605 14.863-3.893 3.132-5.104-3.538-7.933-5.167a1.399 1.399 0 0 0-1.117-.24 1.618 1.618 0 0 0-.678 1.754l.376 7.588c-3.497-1.91-7.422-10.521-9.321-7.41-1.9 3.11-3.915-4.677-5.762-2.38-1.848 2.296 2.088 6.92.46 8.642-1.63 1.722-9.687-9.707-10.658-8.319-.97 1.388-3.131-3.058-4.697-1.106-1.566 1.952 5.95 6.68 3.131 9.456-2.818 2.777 12.307 15.793 16.576 28.914a3.131 3.131 0 0 1-.553 2.985c-1.044 1.19-2.432.762-3.591.25a29.164 29.164 0 0 1-5.563-3.204c-1.117-.825-2.412-1.785-3.79-1.117-.95.46 4.009 4.739 1.681 7.526-2.328 2.787 10.334 11.294 10.302 11.555-.146 1.043 113.983 1.534 113.983 1.534-3.622-6.127 14.947-6.513 6.565-10.167-10.438-4.571-13.872-1.377-13.078-4.905.793-3.528 10.573-1.733 13.924-6.702 3.35-4.968-9.593-1.22-13.966-1.513-4.374-.292.511-1.232 2.087-3.549 4.645-6.983 14.154-14.175 10.052-14.822-4.102-.647-12.828-.23-14.404-2.453-1.576-2.223 7.233-6.722 8.11-10.25.877-3.528-6.555 3.549-7.432 1.117-.877-2.432 9.603-8.59 5.136-9.613-4.468-1.023-11.482 8.538-14.384 4.384-2.902-4.155 13.142-9.75 18.788-15.657 3.831-3.998 9.666-12.181 7.912-14.27-1.753-2.087-12.922 9.52-20.333 12.526-.908.366-2.087.627-2.776-.083.887-2.004 4.029-5.219 1.346-6.388-2.682-1.17-6.262 3.131-9.394 4.655-1.701.835-3.81 1.66-5.365.574.397-1.482 5.616-.97 1.19-4.446s6.263-5.992 10.615-16.356c.418-.982 0-6.159-1.043-6.42-.533-.136-3.132-2.766-6.931-.26-4.311 2.87-3.539 6.064-7.474 9.393-5.678 2.892-1.712-2.087-6.263-3.58-1.774-.563-6.732 7.098-6.889 3.967 4.77-8.873 6.41-16.2 3.758-18.371-2.088-1.68-2.683 3.966-5.428 6.68-4.467 4.415-6.262 10.23-8.768 9.185-2.505-1.043 1.044-8.162-2.922-11.899-.919-.793-1.388-.824-3.006-2.265-3.08-2.808-1.88-5.845-4.384-4.801-2.505 1.044-.96 3.517.835 16.753.041 0-1.336 4.812-3.57 3.84z" transform="translate(0 6)" fill-rule="nonzero" fill="url(#a)"/></svg>