<svg viewBox="0 0 294 226" xmlns="http://www.w3.org/2000/svg">
  <defs>
    <radialGradient id="a" cy="73.56%" r="72.71%" fx="50%" fy="73.56%">
      <stop stop-color="#FFF" offset="0%"/>
      <stop stop-color="#FFF" stop-opacity=".2" offset="100%"/>
    </radialGradient>
  </defs>
  <path fill="url(#a)" fill-rule="evenodd" d="M146.8.07S133.83-1.4 128.8 8.83c-5.03 10.24-.52 34.22-7.6 43.38-7.1 9.17-6.93-7.2-15.15-13.96C97.85 31.48 93.9 21.44 90 26.56c-3.87 5.12 3.76 35.25-1.66 35.1-5.42-.15-17-36.83-25.56-35.84-8.56.98 10.3 20.88 6.44 35.84-3.85 14.96 19.96 38.37 14.64 51.4-3.05 7.44-18.7-6.8-21.08-2.77-2.37 4 17.08 24.02 13.8 27.4-3.28 3.37-18.47-8-18.47 2.98 0 11-18.63-25.5-28.57-17.35-9.95 8.16-24.17-18.35-29.46-9.17-5.28 9.17 45.4 56 40.57 72.54-4.82 16.54-22.32-15.05-31.5-10.3-9.18 4.73 7.4 14.18 3.75 24.63-3.65 10.45 38.4 24.63 38.4 24.63h190.97s42.06-14.18 38.42-24.63c-3.65-10.45 12.92-19.9 3.74-24.64-9.18-4.75-26.68 26.84-31.5 10.3s45.85-63.37 40.56-72.54c-5.28-9.18-19.5 17.33-29.45 9.17-9.94-8.15-28.58 28.34-28.58 17.35 0-11-15.2.4-18.47-2.98-3.28-3.38 16.17-23.4 13.8-27.4-2.37-4.03-18.04 10.2-21.08 2.75-5.32-13.02 18.5-36.43 14.64-51.4-3.85-14.95 15-34.85 6.44-35.83-8.57-1-20.14 35.7-25.56 35.84-5.42.15 2.2-29.98-1.67-35.1-3.88-5.12-7.84 4.92-16.06 11.68-8.2 6.76-8.05 23.13-15.13 13.97-7.1-9.15-2.6-33.13-7.6-43.37C159.73-1.4 146.78.07 146.78.07z"/>
</svg>
