<svg viewBox="0 0 200 97" xmlns="http://www.w3.org/2000/svg"><title>A_Other</title><defs><linearGradient x1="65.593%" y1="-2.306%" x2="36.235%" y2="103.572%" id="a"><stop stop-color="#FFF" stop-opacity=".2" offset="0%"/><stop stop-color="#FFF" stop-opacity=".22" offset="11%"/><stop stop-color="#FFF" stop-opacity=".28" offset="24%"/><stop stop-color="#FFF" stop-opacity=".39" offset="39%"/><stop stop-color="#FFF" stop-opacity=".53" offset="55%"/><stop stop-color="#FFF" stop-opacity=".71" offset="72%"/><stop stop-color="#FFF" stop-opacity=".93" offset="90%"/><stop stop-color="#FFF" offset="95%"/></linearGradient></defs><path d="M167.818 43.076c-6.964-.45 2.54-19.734-1.973-18.955-4.513.779-16.292 10.92-19.859 20.61-1.23 3.354-3.54 15.602-6.911 13.195-3.372-2.407 2.354-21.398-4.274-16.336-.629.478-16.284 29.469-21.089 26.548a2.726 2.726 0 0 1-1.053-2.3c-.752-15.638 2.115-31.213 2.655-46.903.23-6.301.354-15.115-3.894-18.106-4.248-2.991-14.265 12.39-18.655 20.778-4.39 8.39-14.61 28.32-16.239 28.434-1.08.097-1.451-40.602-9.734-43.584-6.053-2.177-2.124 14.858-15.363 16.221-8.39.814-19.735 41.602-44.673 30.832-7.752-3.354-7.593 5.735-3.203 5.531 4.39-.203 22.177 8.575 29.265-1.469 7.089-10.044 18.584-34.894 24.337-26.248 5.31 8.018-11.222 28.956-6.071 31.646 5.15 2.69 9.354-12.044 15.85-9.62 6.495 2.426 6.672 17.877 16.203 6.027 9.53-11.85 19.257-32.469 22.646-26.31 3.39 6.16-11.142 22.664-7.39 22.018 3.753-.646 5.647-4.009 6.532 1.08.884 5.088-13.54 22.195.371 24.478 13.912 2.283-.743 14.743 3.77 15.345 4.513.602 16.646-21.637 21.584-21.664 4.938-.026-8.088 15.407 2.15 20.425 10.24 5.018 27.151-35.965 32.903-37.788 5.753-1.823 4.797 21 14.036 18.585 9.239-2.416 20.725-29.611 19.663-35.77-2.46-14.266-16.132 29.088-23.893 23.823-7.761-5.266 2.76-19.85-7.69-20.523z" transform="translate(0 1)" fill-rule="nonzero" fill="url(#a)"/></svg>
