<svg viewBox="0 0 262 200" xmlns="http://www.w3.org/2000/svg"  xmlns:xlink="http://www.w3.org/1999/xlink">
  <defs>
    <path id="a" d="M131 0H0v200h262V0z"/>
    <radialGradient id="b" cy="58.78%" r="82.15%" fx="50%" fy="58.78%">
      <stop stop-color="#FFF" offset="0%"/>
      <stop stop-color="#FFF" stop-opacity=".05" offset="100%"/>
    </radialGradient>
  </defs>
  <g fill="none" fill-rule="evenodd">
    <mask id="c" fill="#fff">
      <use xlink:href="#a"/>
    </mask>
    <path fill="url(#b)" d="M235.8 156.33H211c-5.78 0-10.47-3.9-10.47-8.73 0-4.62 4.3-8.4 9.75-8.72v-.02h3c12.44 0 22.53-8.4 22.53-18.77 0-10.4-10.08-18.8-22.52-18.8h-25.83c-4.36 0-7.88-2.93-7.88-6.54 0-3.62 3.52-6.55 7.87-6.55h7.49c11 0 19.92-7.42 19.92-16.58 0-9.17-8.92-16.6-19.92-16.6H171.2c-2.9 0-5.25-1.96-5.25-4.36 0-2.42 2.35-4.37 5.24-4.37h10.63c8.1 0 14.68-5.5 14.68-12.24 0-6.75-6.57-12.23-14.67-12.23H159c-2 0-3.66-1.36-3.66-3.05 0-1.7 1.65-3.06 3.67-3.06h4.5c5.2 0 9.43-3.52 9.43-7.86S168.7 0 163.5 0H98.5c-5.22 0-9.44 3.52-9.44 7.86s4.23 7.86 9.44 7.86h7.54c2.02 0 3.67 1.37 3.67 3.06 0 1.7-1.65 3.05-3.67 3.05H80.2c-8.1 0-14.68 5.48-14.68 12.23 0 6.76 6.57 12.23 14.68 12.23H93.63c2.9 0 5.24 1.95 5.24 4.36 0 2.4-2.35 4.36-5.24 4.36H67.08c-11 0-19.92 7.43-19.92 16.6 0 9.16 8.92 16.6 19.92 16.6H77.4c4.35 0 7.87 2.93 7.87 6.54 0 3.62-3.52 6.55-7.87 6.55H48.74c-12.45 0-22.54 8.42-22.54 18.8 0 10.36 10.1 18.76 22.53 18.76h5.08c5.8 0 10.5 3.9 10.5 8.74 0 4.82-4.7 8.73-10.5 8.73H26.2c-14.48 0-26.2 9.78-26.2 21.84S11.73 200 26.2 200h209.6c14.48 0 26.2-9.78 26.2-21.83 0-12.07-11.72-21.84-26.2-21.84" mask="url(#c)"/>
  </g>
</svg>
