<svg width="143" height="123" viewBox="0 0 143 123" xmlns="http://www.w3.org/2000/svg"><title>A_Savor</title><defs><linearGradient x1="50.005%" y1="0%" x2="50.005%" y2="100%" id="a"><stop stop-color="#FFF" stop-opacity=".2" offset="0%"/><stop stop-color="#FFF" stop-opacity=".22" offset="2%"/><stop stop-color="#FFF" stop-opacity=".5" offset="28%"/><stop stop-color="#FFF" stop-opacity=".71" offset="50%"/><stop stop-color="#FFF" stop-opacity=".87" offset="70%"/><stop stop-color="#FFF" stop-opacity=".96" offset="85%"/><stop stop-color="#FFF" offset="95%"/></linearGradient></defs><path d="M119.707 109c1.312-1.902-4.815-7.11 15.192-7.137 10.495 0 10.089-14.575 0-14.575-5.248 0-11.991-1.234-11.991-6.56 0-3.372 3.227-4.579 7.386-4.579 14.877 0 11.151-18.065-.538-18.065-8.252 0-15.297 2.191-15.297-4.25 0-2.388 1.089-4.789 8.96-4.789 9.565 0 8.764-11.952.538-11.952-8.225 0-16.792.8-16.792-3.935 0-3.359 1.062-5.839 6.56-5.839 19.678 0 16.87-27.104-1.457-26.828C93.941.766 45.071.425 34.445.425c-12.49 0-13.015 17.055 0 17.055 5.247 0 7.57 2.112 7.57 6.219 0 6.887-15.271 5.733-21.122 5.733-8.764 0-8.764 11.689-1.063 11.689 5.576 0 6.56 2.545 6.56 5.786 0 3.24-3.018 6.126-12.674 6.126-15.14 0-19.928 22.303-.8 22.303 8.173 0 7.255 10.627-1.771 10.627-12.791 0-13.88 17.278-.525 17.278 0 0 14.431-.42 14.72 5.247l94.367.512z" transform="translate(0 14)" fill-rule="nonzero" fill="url(#a)"/></svg>