<svg viewBox="0 0 182 96" xmlns="http://www.w3.org/2000/svg"><title>A_Ruminate</title><defs><linearGradient x1="50.007%" y1="99.958%" x2="50.007%" y2="-.004%" id="a"><stop stop-color="#FFF" offset="5%"/><stop stop-color="#FFF" stop-opacity=".76" offset="35%"/><stop stop-color="#FFF" stop-opacity=".2" offset="100%"/></linearGradient></defs><path d="M45.572 3.74c-3.06-4.33-21.8-4.24-33.12.76-9.19 4.11-15.24 13.32-10.44 15.03 7.31 2.62 26.24-3.82 37.19-4.84 6.27-.58 17.95 4.86 27.77 2.8 11-2.29 14.94-6.13 18.09-5.86 23.44 2-4.84 15 11.46 15.29 16 .25 27.26-20.38 36.43-19.62 7.92.66 9.82 4.94 17.32 4.84 19.11-.25 29 5.1 16.3 5.1-11.21 0-4.84 9.94-14 9.68-7.64-.21-2.55-11-16.3-9.94-11.22.83-27.51 15-43.56 17.58-16.05 2.58-20.39-12.48-36.95-10.95-16.56 1.53-49.93 11.21-34.14 11.72 15.79.51 29.56 11.71 51.21 12.48 21.65.77 31.28-5.1 46.11-5.1 11.61 0 8.92 6.61 20.38 6.61 11.46 0 19.55 2.31 22.16 2.56 8.15.76-20.38 5.6-42.54 5.35s-16-4.08-33.88-3.82c-17.88.26-9.94 2.81-25.74 3.06-15.8.25-17.83-4.08-38.72-2.8-20.89 1.28-23.18 7.94-15.03 8.66 8.15.72 17.07 12.23 32.61 13.28 15.54 1.05 31 .55 72.1-1.78 22.42-1.27 29.3 7.9 36.69 7.39 7.39-.51 12 5.6-16.3 6.62-28.3 1.02-26-7.13-45.35-4.33s-8.92 7.13-.25 6.37c8.67-.76 3.82-4.59 18.6-2.29 14.78 2.3 12 8.41 28 8.41s16.81-8.66 20.89-8.92c4.08-.26 18.6-4.33 6.88-6.62-11.72-2.29-13.77-7.67-20.89-8.15-22.42-1.53-27.26-6.41-41.78-7.13-10.19-.51-7.13 6.11-30.57 6.37-9.26.1-24.2 3.31-36.69-2.29-12.49-5.6-26-11.46-7.64-11.46s4.08 5.86 18.6 8.15c14.52 2.29 7.57-1.53 28.28-1.53 6.62 0 7.9-6.11 20.13-6.11 12.23 0 14 8.41 45.6 6.37s23.95-7.39 30.83-7.64c6.88-.25 23.93-7.38-5.1-9.17-37.19-2.35-27.51-10.26-22.42-10.51s-4.59-4.59-12.74-4.59-8.66 5.6-27 7.64-15.54-2.29-23.44-2.29c-11.21 0-9.63 2.59-20.13 1.78-6.62-.51-27.77-8.66-13.5-10.45 14.27-1.79 12 4.84 26 4.84s18.6 4.08 31.08 3.06c12.48-1.02 21.91-16.56 38.21-15.54 16.3 1.02-5.86 9.17 15 9.43 20.86.26 10.19-7.39 17.32-7.13 7.13.26 17.32-3.06 11.21-5.86-5.33-2.44-1.66-10.45-17.83-11-16.17-.55-20.39-7-34.39-6.37-11 .51-5.86 10.19-16.56 11.72-10.7 1.53-1-11.21-8.92-11.72-7.92-.51-22.65 9.99-38.44 10.5-15.79.51-26.24 1.63-45.09 2.29-14.52.51 1.75-8.84 10.7-10.44 14.26-2.55 19.36 4.84 16.3.51z" fill-rule="nonzero" fill="url(#a)"/></svg>
