<svg width="143" height="135" viewBox="0 0 143 135" xmlns="http://www.w3.org/2000/svg"><title>A_Withdraw</title><defs><linearGradient x1="49.991%" y1=".005%" x2="49.991%" y2="100%" id="a"><stop stop-color="#FFF" stop-opacity=".2" offset="0%"/><stop stop-color="#FFF" stop-opacity=".65" offset="54%"/><stop stop-color="#FFF" offset="95%"/></linearGradient></defs><path d="M47.8 32.326c-1.65 2.53 1.051 2.835-1.149 7.027-2.2 4.193-.305 5.586-2.077 8.861-3.447 6.332-5.122.416-7.994 5.806-1.809 3.386-3.495-1.577-5.402 2.444-1.907 4.022 2.567 8.837-.697 14.35-3.776 6.392-5.304 3.226-7.626 7.528-2.323 4.302-6.588-1.6-9.778 1.137-4.107 3.52 3.667 13.713-.953 16.402-1.223.672-4.437-4.045-6.503-.941-1.063 1.601 1.491 3.08.38 5.39-1.309 2.738-3.105 1.222-4.706 4.449-1.944 3.85.855 8.067.146 12.919C.904 121.364 7.015 133 7.015 133h127.33s8.837-9.191 7.407-14.141c-1.063-3.667 1.455-5.928.38-9.081-.88-2.58-1.956.709-3.667-3.044-1.711-3.752 1.393-3.385.83-7.064-.561-3.679-7.528-1.027-8.677-5.598-.636-2.554-6.6-2.175-8.042-6.93-1.442-4.754.33-6.966-1.724-8.775-3.764-3.3.77-4.217-1.527-8.678-2.298-4.461-7.077.941-9.191-4.889-1.223-3.398 1.918-4.889.378-8.201-1.54-3.312.184-5.94-1.723-9.167-1.907-3.226-5.928 6.111-8.421 1.87-2.493-4.24 2.298-6.11-1.149-12.662-3.447-6.551-9.093-.941-12.222-7.26-3.129-6.319-.575-7.333-2.005-11.953-1.43-4.62-3.666-1.394-7.1-4.205-3.435-2.81-1.65-12.992-8.58-12.674-6.246.293-6.332 8.31-11 19.103-5.99 14.068-7.065 7.37-10.512 12.675z" transform="translate(0 2)" fill-rule="nonzero" fill="url(#a)"/></svg>