<svg id="e8e6f4fe-8cd3-4445-8793-1b00614eb857" data-name="Ebene 1" xmlns="http://www.w3.org/2000/svg" xmlns:xlink="http://www.w3.org/1999/xlink" viewBox="0 0 181.38 95.35"><defs><linearGradient id="616829cc-ddf7-4e4f-baf1-49a01b8e43d6" x1="90.69" y1="95.35" x2="90.69" gradientUnits="userSpaceOnUse"><stop offset="0.05" stop-color="#fff"/><stop offset="0.35" stop-color="#fff" stop-opacity="0.76"/><stop offset="1" stop-color="#fff" stop-opacity="0.2"/></linearGradient></defs><title>Key_A</title><path d="M45.25,3.13c-3.06-4.33-21.8-4.24-33.12.76C2.94,8-3.11,17.21,1.69,18.92,9,21.54,27.93,15.1,38.88,14.08c6.27-.58,17.95,4.86,27.77,2.8,11-2.29,14.94-6.13,18.09-5.86,23.44,2-4.84,15,11.46,15.29,16,0.25,27.26-20.38,36.43-19.62,7.92,0.66,9.82,4.94,17.32,4.84,19.11-.25,29,5.1,16.3,5.1-11.21,0-4.84,9.94-14,9.68-7.64-.21-2.55-11-16.3-9.94-11.22.83-27.51,15-43.56,17.58S72,21.47,55.44,23,5.51,34.21,21.3,34.72,50.86,46.43,72.51,47.2s31.28-5.1,46.11-5.1c11.61,0,8.92,6.61,20.38,6.61s19.55,2.31,22.16,2.56c8.15,0.76-20.38,5.6-42.54,5.35s-16-4.08-33.88-3.82S74.8,55.61,59,55.86s-17.83-4.08-38.72-2.8S-2.9,61,5.25,61.72,22.32,73.95,37.86,75s31,0.55,72.1-1.78c22.42-1.27,29.3,7.9,36.69,7.39s12,5.6-16.3,6.62-26-7.13-45.35-4.33-8.92,7.13-.25,6.37,3.82-4.59,18.6-2.29,12,8.41,28,8.41,16.81-8.66,20.89-8.92,18.6-4.33,6.88-6.62-13.77-7.67-20.89-8.15c-22.42-1.53-27.26-6.41-41.78-7.13-10.19-.51-7.13,6.11-30.57,6.37-9.26.1-24.2,3.31-36.69-2.29s-26-11.46-7.64-11.46,4.08,5.86,18.6,8.15,7.57-1.53,28.28-1.53c6.62,0,7.9-6.11,20.13-6.11s14,8.41,45.6,6.37,23.95-7.39,30.83-7.64,23.93-7.38-5.1-9.17C122.7,44.91,132.38,37,137.47,36.75s-4.59-4.59-12.74-4.59-8.66,5.6-27,7.64-15.54-2.29-23.44-2.29c-11.21,0-9.63,2.59-20.13,1.78-6.62-.51-27.77-8.66-13.5-10.45s12,4.84,26,4.84,18.6,4.08,31.08,3.06,21.91-16.56,38.21-15.54-5.86,9.17,15,9.43,10.19-7.39,17.32-7.13,17.32-3.06,11.21-5.86c-5.33-2.44-1.66-10.45-17.83-11s-20.39-7-34.39-6.37c-11,.51-5.86,10.19-16.56,11.72s-1-11.21-8.92-11.72S79.13,10.26,63.34,10.77,37.1,12.4,18.25,13.06C3.73,13.57,20,4.22,28.95,2.62,43.21,0.07,48.31,7.46,45.25,3.13Z" fill="url(#616829cc-ddf7-4e4f-baf1-49a01b8e43d6)"/></svg>