<svg id="63fba7f7-5cb4-4000-bbea-74c071847634" data-name="Ebene 1" xmlns="http://www.w3.org/2000/svg" xmlns:xlink="http://www.w3.org/1999/xlink" viewBox="0 0 139.64 111.6"><defs><linearGradient id="6ffe16d5-d289-459c-9648-9e4b4468e1dd" x1="68.01" x2="68.01" y2="111.6" gradientUnits="userSpaceOnUse"><stop offset="0" stop-color="#fff" stop-opacity="0.2"/><stop offset="0.39" stop-color="#fff" stop-opacity="0.55"/><stop offset="0.78" stop-color="#fff" stop-opacity="0.87"/><stop offset="0.95" stop-color="#fff"/></linearGradient></defs><title>Key_A</title><path d="M62.18,19.93c-2.14-.93-2-9.39-5.74-8.33-5,1.4-7.6-5.6-11.59-4.24C42,10.2,48.63,34.46,46.73,34.93S34.92,22.19,32.68,23s4.16,3.52,1.56,7.4,3,10.28,6.18,17.32c0.36,0.8.63,1.93-.11,2.41a1.53,1.53,0,0,1-1.11.13c-2.36-.43-5.8-4.09-6.68-2s9.1,11.24,5.37,14.24S33,59.11,30.29,57.55a1.34,1.34,0,0,0-1.07-.23A1.55,1.55,0,0,0,28.57,59l0.36,7.27c-3.35-1.83-7.11-10.08-8.93-7.1s-3.75-4.48-5.52-2.28,2,6.63.44,8.28S5.64,55.87,4.71,57.2s-3-2.93-4.5-1.06,5.7,6.4,3,9.06S15,80.33,19.09,92.9a3,3,0,0,1-.53,2.86c-1,1.14-2.33.73-3.44,0.24a27.94,27.94,0,0,1-5.33-3.07c-1.07-.79-2.31-1.71-3.63-1.07C5.25,92.3,10,96.4,7.77,99.07s9.9,10.82,9.87,11.07c-0.14,1,109.2,1.47,109.2,1.47-3.47-5.87,14.32-6.24,6.29-9.74-10-4.38-13.29-1.32-12.53-4.7s10.13-1.66,13.34-6.42-9.19-1.17-13.38-1.45,0.49-1.18,2-3.4c4.45-6.69,13.56-13.58,9.63-14.2s-12.29-.22-13.8-2.35,6.93-6.44,7.77-9.82-6.28,3.4-7.12,1.07,9.2-8.23,4.92-9.21-11,8.18-13.78,4.2,12.59-9.34,18-15c3.67-3.83,9.26-11.67,7.58-13.67s-12.38,9.12-19.48,12c-0.87.35-2,.6-2.66-0.08,0.85-1.92,3.86-5,1.29-6.12s-6,3-9,4.46c-1.63.8-3.65,1.59-5.14,0.55,0.38-1.42,5.38-.93,1.14-4.26s6-5.74,10.17-15.67c0.4-.94,0-5.9-1-6.15-0.51-.13-3-2.65-6.64-0.25-4.13,2.75-3.39,5.81-7.16,9-5.44,2.77-1.64-2-6-3.43-1.7-.54-6.45,6.8-6.6,3.8,4.57-8.5,6.14-15.52,3.6-17.6-2-1.61-2.57,3.8-5.2,6.4-4.28,4.23-6,9.8-8.4,8.8s1-7.82-2.8-11.4C71,6.21,70.55,6.18,69,4.8c-2.95-2.69-1.8-5.6-4.2-4.6s-0.92,3.37.8,16.05C65.64,16.25,64.32,20.86,62.18,19.93Z" fill="url(#6ffe16d5-d289-459c-9648-9e4b4468e1dd)"/></svg>