<svg id="4c5ab60a-3be4-4d4c-aa1f-e5e63a57a85c" data-name="Ebene 1" xmlns="http://www.w3.org/2000/svg" xmlns:xlink="http://www.w3.org/1999/xlink" viewBox="0 0 224.79 107.93"><defs><linearGradient id="00190f56-1a41-4b67-94de-698995fe1da0" x1="147.42" y1="-2.53" x2="81.42" y2="111.79" gradientUnits="userSpaceOnUse"><stop offset="0" stop-color="#fff" stop-opacity="0.2"/><stop offset="0.11" stop-color="#fff" stop-opacity="0.22"/><stop offset="0.24" stop-color="#fff" stop-opacity="0.28"/><stop offset="0.39" stop-color="#fff" stop-opacity="0.39"/><stop offset="0.55" stop-color="#fff" stop-opacity="0.53"/><stop offset="0.72" stop-color="#fff" stop-opacity="0.71"/><stop offset="0.9" stop-color="#fff" stop-opacity="0.93"/><stop offset="0.95" stop-color="#fff"/></linearGradient></defs><title>Key_A</title><path d="M189,48.13c-7.87-.51,2.87-22.3-2.23-21.42S168.36,39.05,164.33,50c-1.39,3.79-4,17.63-7.81,14.91s2.66-24.18-4.83-18.46c-0.71.54-18.4,33.3-23.83,30a3.08,3.08,0,0,1-1.19-2.6c-0.85-17.67,2.39-35.27,3-53,0.26-7.12.4-17.08-4.4-20.46s-16.12,14-21.08,23.48S87.68,55.87,85.84,56c-1.22.11-1.64-45.88-11-49.25C68,4.29,72.44,23.54,57.48,25.08,48,26,35.18,72.09,7,59.92c-8.76-3.79-8.58,6.48-3.62,6.25s25.06,9.69,33.07-1.66,21-39.43,27.5-29.66c6,9.06-12.68,32.72-6.86,35.76S67.66,57,75,59.74s7.54,20.2,18.31,6.81,21.76-36.69,25.59-29.73-12.59,25.61-8.35,24.88,6.38-4.53,7.38,1.22-15.3,25.08.42,27.66-0.84,16.66,4.26,17.34S141.42,83.47,147,83.44s-9.14,17.41,2.43,23.08,30.68-40.64,37.18-42.7,5.42,23.73,15.86,21,23.42-33.46,22.22-40.42c-2.78-16.12-18.23,32.87-27,26.92S200.81,48.89,189,48.13Z" fill="url(#00190f56-1a41-4b67-94de-698995fe1da0)"/></svg>