<svg id="80f78b38-3662-41a2-98a1-336e72f0561e" data-name="Ebene 1" xmlns="http://www.w3.org/2000/svg" xmlns:xlink="http://www.w3.org/1999/xlink" viewBox="0 0 143.38 122.06"><defs><linearGradient id="4dd505f4-8135-43e5-8ecc-c1e198c1b71e" x1="71.3" x2="71.3" y2="122.06" gradientUnits="userSpaceOnUse"><stop offset="0" stop-color="#fff" stop-opacity="0.2"/><stop offset="0.1" stop-color="#fff" stop-opacity="0.22"/><stop offset="0.24" stop-color="#fff" stop-opacity="0.29"/><stop offset="0.4" stop-color="#fff" stop-opacity="0.4"/><stop offset="0.57" stop-color="#fff" stop-opacity="0.56"/><stop offset="0.76" stop-color="#fff" stop-opacity="0.76"/><stop offset="0.95" stop-color="#fff"/></linearGradient></defs><title>Key_A</title><path d="M56.39,45.19C52.07,49.9,23.53,21,21.09,24.67s10.24,12.05,6.11,17.5C22.71,48.07,42.47,68,37.72,75.55c-5.49,8.75-8.36,2.85-12.43,5.7-2.91,2-18.77-13-22.07-11.45s21,23.14,20.2,28.17c-1.34,8.38-9.3,4.27-10,7.14-1.15,4.57-12.19,1.24-13.31,3.07S9,111.6,13.09,113s23.65,4.32,24.5,9h74.23c0.13-6.61,29.48-5.38,29.3-10.08s-9.67-2.45-11.18-6.35c-2.41-6.25,10.23-13.23,9.41-15.87-0.45-1.48-7.52,1.85-8.54-.91s-11.4,5-14.66-.72c-4-7,21.57-17.71,19.94-21.57s-26.46,9.36-30.12,2c-2.21-4.41,26.31-14.67,24-17.72s14.23-9.36,12.52-11.39S120.05,52.23,117,46.41,97.06,56.59,91.56,49.67s21-20.76,18.52-24c-3.29-4.38-23,14.45-27.85,8.75C79,30.57,83.05,23,78.17,23S73.83,0.55,69.48,0s-0.65,19-3.93,25.24C61.28,33.39,67.59,33,56.39,45.19Z" fill="url(#4dd505f4-8135-43e5-8ecc-c1e198c1b71e)"/></svg>