<svg id="513f3c98-d652-4955-8090-394f81475eb2" data-name="Ebene 1" xmlns="http://www.w3.org/2000/svg" xmlns:xlink="http://www.w3.org/1999/xlink" viewBox="0 0 116.04 108.37"><defs><linearGradient id="0f19b4da-8a6c-4510-876e-a3f03c04d1fb" x1="58.02" x2="58.02" y2="108.37" gradientUnits="userSpaceOnUse"><stop offset="0" stop-color="#fff" stop-opacity="0.2"/><stop offset="0.54" stop-color="#fff" stop-opacity="0.65"/><stop offset="0.95" stop-color="#fff"/></linearGradient></defs><title>Key_A</title><path d="M38.64,26c-1.35,2.07.86,2.32-.94,5.75S37.45,36.32,36,39c-2.82,5.18-4.19.34-6.54,4.75-1.48,2.77-2.86-1.29-4.42,2s2.1,7.23-.57,11.74c-3.09,5.23-4.34,2.64-6.24,6.16s-5.39-1.31-8,.93c-3.36,2.88,3,11.22-.78,13.42-1,.55-3.63-3.31-5.32-0.77-0.87,1.31,1.22,2.52.31,4.41-1.07,2.24-2.54,1-3.85,3.64C-1,88.43,1.29,91.88.71,95.85c-0.44,3,4.56,12.52,4.56,12.52H109.45s7.23-7.52,6.06-11.57c-0.87-3,1.19-4.85.31-7.43-0.72-2.11-1.6.58-3-2.49s1.14-2.77.68-5.78-6.16-.84-7.1-4.58c-0.52-2.09-5.4-1.78-6.58-5.67s0.27-5.7-1.41-7.18c-3.08-2.7.63-3.45-1.25-7.1s-5.79.77-7.52-4c-1-2.78,1.57-4,.31-6.71S90.1,41,88.54,38.36s-4.85,5-6.89,1.53,1.88-5-.94-10.36-7.44-.77-10-5.94-0.47-6-1.64-9.78-3-1.14-5.81-3.44S61.91-.26,56.24,0c-5.11.24-5.18,6.8-9,15.63C42.34,27.14,41.46,21.66,38.64,26Z" fill="url(#0f19b4da-8a6c-4510-876e-a3f03c04d1fb)"/></svg>