<svg id="73f4fa6d-dfef-464a-82fd-df1d474f726d" data-name="Ebene 1" xmlns="http://www.w3.org/2000/svg" xmlns:xlink="http://www.w3.org/1999/xlink" viewBox="0 0 115.56 82.76"><defs><linearGradient id="a22e9033-8274-4841-a9c3-2947529af3d8" x1="58.69" x2="58.69" y2="82.76" gradientUnits="userSpaceOnUse"><stop offset="0" stop-color="#fff" stop-opacity="0.2"/><stop offset="0.02" stop-color="#fff" stop-opacity="0.22"/><stop offset="0.28" stop-color="#fff" stop-opacity="0.5"/><stop offset="0.5" stop-color="#fff" stop-opacity="0.71"/><stop offset="0.7" stop-color="#fff" stop-opacity="0.87"/><stop offset="0.85" stop-color="#fff" stop-opacity="0.96"/><stop offset="0.95" stop-color="#fff"/></linearGradient></defs><title>Key_A</title><path d="M95.43,82.76c1-1.45-3.67-5.42,11.58-5.44,8,0,7.69-11.11,0-11.11-4,0-9.14-.94-9.14-5,0-2.57,2.46-3.49,5.63-3.49,11.34,0,8.5-13.77-.41-13.77-6.29,0-11.66,1.67-11.66-3.24,0-1.82.83-3.65,6.83-3.65,7.29,0,6.68-9.11.41-9.11s-12.8.61-12.8-3c0-2.56.81-4.45,5-4.45,15,0,12.86-20.66-1.11-20.45S38.54,0,30.44,0c-9.52,0-9.92,13,0,13,4,0,5.77,1.61,5.77,4.74,0,5.25-11.64,4.37-16.1,4.37-6.68,0-6.68,8.91-.81,8.91,4.25,0,5,1.94,5,4.41S22,40.1,14.64,40.1c-11.54,0-15.19,17-.61,17,6.23,0,5.53,8.1-1.35,8.1-9.75,0-10.58,13.17-.4,13.17,0,0,11-.32,11.22,4Z" fill="url(#a22e9033-8274-4841-a9c3-2947529af3d8)"/></svg>