<?xml version="1.0" standalone="no"?>
<!DOCTYPE svg PUBLIC "-//W3C//DTD SVG 20010904//EN"
 "http://www.w3.org/TR/2001/REC-SVG-20010904/DTD/svg10.dtd">
<svg version="1.0" xmlns="http://www.w3.org/2000/svg"
 width="512.000000pt" height="512.000000pt" viewBox="0 0 512.000000 512.000000"
 preserveAspectRatio="xMidYMid meet">
<metadata>
Created by potrace 1.11, written by Peter Selinger 2001-2013
</metadata>
<g transform="translate(0.000000,512.000000) scale(0.100000,-0.100000)"
fill="#000000" stroke="none">
<path d="M2529 3149 c-144 -249 -473 -867 -512 -962 -47 -111 -63 -140 -108
-187 -18 -19 -6 2 -453 -808 -344 -626 -421 -771 -412 -780 11 -11 126 17 218
53 190 74 215 83 308 105 78 19 123 23 250 23 140 0 172 -3 331 -37 172 -36
338 -50 367 -32 7 4 12 3 12 -1 0 -5 19 -8 42 -6 25 1 46 -3 50 -10 5 -7 8 -1
8 16 0 15 1 27 3 28 1 0 53 8 116 18 110 17 166 17 156 1 -3 -4 3 -10 13 -12
15 -4 18 -1 14 17 -4 25 -5 25 123 44 110 17 282 31 378 31 48 0 87 2 87 3 0
2 -9 30 -21 63 -88 251 -179 518 -176 520 1 2 34 -25 73 -59 125 -110 467
-402 481 -410 18 -11 8 12 -54 122 -29 51 -53 95 -53 96 0 1 -25 46 -55 100
-30 53 -55 98 -55 100 0 2 -15 30 -34 62 -18 32 -49 87 -68 123 -20 36 -129
234 -243 440 -114 206 -217 393 -229 415 -72 133 -144 253 -163 275 l-23 25 0
-41 c0 -41 17 -109 47 -189 9 -22 37 -106 64 -187 53 -164 52 -131 14 -350
-10 -64 -13 -124 -8 -220 7 -145 2 -154 -42 -68 -14 27 -29 51 -35 55 -5 3
-10 12 -10 20 0 8 -13 34 -30 58 -16 25 -30 49 -30 54 0 5 -7 18 -16 28 -8 11
-28 43 -43 70 -15 28 -32 49 -38 48 -6 -1 -13 15 -16 35 -3 20 -26 179 -51
352 -55 376 -88 604 -117 800 -11 80 -24 158 -28 174 l-7 30 -25 -45z m-204
-709 c0 -60 -2 -110 -5 -110 -8 0 -50 65 -50 78 0 9 51 142 54 142 1 0 1 -49
1 -110z m240 -513 l25 -44 -18 -94 -18 -94 -7 80 c-4 44 -10 106 -14 138 -3
31 -3 57 0 57 4 0 18 -20 32 -43z"/>
</g>
</svg>
