<svg width="375" height="55" viewBox="0 0 375 55" xmlns="http://www.w3.org/2000/svg"><title>Waves_5</title><defs><linearGradient x1="38.654%" y1="197.445%" x2="42.255%" y2="50%" id="a"><stop stop-color="#FFF" stop-opacity=".177" offset="0%"/><stop stop-color="#FFF" offset="100%"/></linearGradient></defs><g fill="url(#a)" fill-rule="evenodd" fill-opacity=".7"><path d="M375 31.523s-24.404 1.776-29.701-14.53C340.002.684 329.78 23.49 287.156 23.49c-23.765 0-40.472-2.716-46.674-14.005-7.208-13.123-20.61 13.934-52.982 14.005-32.371.07-32.17-24.462-44.66-16.876-12.412 7.538-33.08 22.537-62.883 22.537-29.803 0-38.195-26.104-48.35-19.666C13.391 21.036 0 29.152 0 29.152V55h375V31.523z"/><path d="M375 19.862s-23.6 1.678-28.783-14.815c-5.184-16.493-43.076 15.832-65.781 19.49-22.725 3.66-69.971 0-67.1-14.005 2.696-13.15-32.7 3.35-52.982 14.004C140.07 35.19 69.44 31.175 72.17 9.52c2.728-21.654-28.448 10.342-48.56 10.342C7.017 19.862 0 2.262 0 2.262V55h375V19.863z"/><path d="M375 28.986s-76.527-3.617-81.27-17.46c-4.742-13.845-25.466 8.371-74.937 12.194-27.332 2.111-84.143 5.266-101.18-15.275-11.363-13.7-44.93 24.196-87.908 24.196C7.42 32.64 0 21.937 0 21.937V55h375V28.986z"/></g></svg>