<svg width="375" height="55" viewBox="0 0 375 55" xmlns="http://www.w3.org/2000/svg"><title>Waves_4</title><defs><linearGradient x1="38.654%" y1="197.445%" x2="42.255%" y2="50%" id="a"><stop stop-color="#FFF" stop-opacity=".177" offset="0%"/><stop stop-color="#FFF" offset="100%"/></linearGradient></defs><g fill="url(#a)" fill-rule="evenodd" fill-opacity=".7"><path d="M375 15.605S356.104 8.882 333.416 13c-22.687 4.119-32.363 2.099-92.934-11.897C221.47-3.289 198.756 15.11 187.5 15.11s-14.963-11.805-31.91-9.504c-26.806 3.638-41.747 14.163-58.807 12.861C81.505 17.3 63.827 4.526 45.895 3.56 7.939 1.515 0 15.109 0 15.109V55h375V15.605z"/><path d="M375 20.876s-55.965 0-63.766-14.674c-7.8-14.674-57.482 6.76-106.953 10.582-27.332 2.112-62.234.878-69.953-13.369-6.7-12.365-41.793 13.369-64.61 6.238C46.903 2.523 25.369 33.437 0 13.827V55h375V20.876z"/></g></svg>