<svg width="375" height="55" viewBox="0 0 375 55" xmlns="http://www.w3.org/2000/svg"><title>Waves_3</title><defs><linearGradient x1="52.501%" y1="218.147%" x2="52.501%" y2="50%" id="a"><stop stop-color="#FFF" stop-opacity=".177" offset="0%"/><stop stop-color="#FFF" offset="100%"/></linearGradient><linearGradient x1="43.09%" y1="164.158%" x2="43.09%" y2="17.838%" id="b"><stop stop-color="#FFF" stop-opacity=".177" offset="0%"/><stop stop-color="#FFF" offset="100%"/></linearGradient></defs><g fill="none" fill-rule="evenodd"><path d="M0 14.412c17.72 9.3 49.105-6.932 73.364-3.37 25.38 3.728 37.463-6.894 80.034.177C195.238 18.168 213.383 4 240.672 4c34.919 0 39.455 14.168 60.148 14.168 20.694 0 28.78-10.688 44.069-10.688 22.285 0 30.111 6.932 30.111 6.932V55H0V14.412z" fill-opacity=".9" fill="url(#a)" transform="matrix(-1 0 0 1 375 0)"/><path d="M46.957 18.998C67.924 18.998 70.611 0 116.057 0c54.485 0 99.137 21.978 182.013 8.717C335.092 2.793 375 18.937 375 18.937V55H0V8.717s25.99 10.281 46.957 10.281z" fill-opacity=".7" fill="url(#b)" transform="matrix(-1 0 0 1 375 0)"/></g></svg>