<?xml version="1.0" encoding="UTF-8"?>
<svg viewBox="0 0 375 48" version="1.1" xmlns="http://www.w3.org/2000/svg" xmlns:xlink="http://www.w3.org/1999/xlink">
    <!-- Generator: Sketch 42 (36781) - http://www.bohemiancoding.com/sketch -->
    <title>Waves_5</title>
    <desc>Created with Sketch.</desc>
    <defs>
        <linearGradient x1="38.6536458%" y1="197.445278%" x2="42.2546875%" y2="50%" id="linearGradient-1">
            <stop stop-color="#FFFFFF" stop-opacity="0.177224864" offset="0%"></stop>
            <stop stop-color="#FFFFFF" offset="100%"></stop>
        </linearGradient>
        <linearGradient x1="42.2546864%" y1="123.043476%" x2="42.2546875%" y2="50%" id="linearGradient-2">
            <stop stop-color="#FFFFFF" stop-opacity="0.177224864" offset="0%"></stop>
            <stop stop-color="#FFFFFF" offset="100%"></stop>
        </linearGradient>
        <linearGradient x1="25.522396%" y1="-106.945274%" x2="25.522396%" y2="100%" id="linearGradient-3">
            <stop stop-color="#FFFFFF" stop-opacity="0" offset="0%"></stop>
            <stop stop-color="#FFFFFF" offset="100%"></stop>
        </linearGradient>
    </defs>
    <g id="Symbols" stroke="none" stroke-width="1" fill="none" fill-rule="evenodd">
        <g id="Waves_5">
            <path d="M5.68434189e-14,31.5234375 C5.68434189e-14,31.5234375 24.4042969,33.2994328 29.7011719,16.9921875 C34.9980469,0.68494223 45.21875,23.4908219 87.84375,23.4908219 C111.609375,23.4908219 128.316406,20.7753906 134.517578,9.48632812 C141.726229,-3.63682157 155.128906,23.4198983 187.5,23.4908219 C219.871094,23.5617456 219.669922,-0.970703125 232.160156,6.61523438 C244.57183,14.1534581 265.240234,29.1523438 295.042969,29.1523438 C324.845703,29.1523438 333.237604,3.04842066 343.392578,9.48632812 C361.609375,21.0351562 375,29.1523438 375,29.1523438 L375,48 L0,48 L5.68434189e-14,31.5234375 Z" id="Bckgnd-Copy-12" fill-opacity="0.7" fill="url(#linearGradient-1)" transform="translate(187.500000, 26.579681) scale(-1, 1) translate(-187.500000, -26.579681) "></path>
            <path d="M0,19.8620702 C0,19.8620702 23.5996094,21.5400318 28.7832031,5.046875 C33.9667969,-11.4462818 71.8590189,20.8794181 94.5644531,24.5364859 C117.289062,28.1966421 164.535156,24.5364859 161.664063,10.5319921 C158.96812,-2.61815506 194.363281,13.8828125 214.646484,24.5364859 C234.929688,35.1901592 305.558594,31.1745702 302.830078,9.52027332 C300.101563,-12.1340236 331.277793,19.8620702 351.390625,19.8620702 C367.982422,19.8620702 375,2.26159078 375,2.26159078 L375,48 L0,48 L1.42170713e-13,33.703125 L0,19.8620702 Z" id="Bckgnd-Copy-13" fill-opacity="0.7" fill="url(#linearGradient-1)" transform="translate(187.500000, 24.194624) scale(-1, 1) translate(-187.500000, -24.194624) "></path>
            <path d="M0,25.986245 C0,25.986245 76.5273438,25.3694955 81.2695312,11.5253075 C86.0117188,-2.31888049 106.736328,19.8973533 156.207031,23.7196189 C183.538821,25.8313609 240.349609,28.986245 257.386719,8.4453125 C268.749918,-5.25482366 302.316406,32.6405419 345.294922,32.6405419 C367.58009,32.6405419 375,21.9374169 375,21.9374169 L375,48 L0,48 L0,25.986245 Z" id="Bckgnd-Copy-14" fill-opacity="0.7" fill="url(#linearGradient-2)" transform="translate(187.500000, 26.729914) scale(-1, 1) translate(-187.500000, -26.729914) "></path>
            <path d="M0,40.804559 C0,40.804559 15.1899956,36.3130226 35.7255859,36.0507812 C56.2611763,35.7885399 91.0328521,39.6601562 113.972656,39.6601562 C136.91246,39.6601562 135.513829,35.7290761 169.479492,36.0507812 C203.445155,36.3724864 217.001053,41.1669757 234.798828,40.804559 C260.979862,40.2714338 285.056481,34.2083661 304.894531,34.1533203 C324.732581,34.0982745 375,39.6601562 375,39.6601562 L375,48 L0,48 L0,40.804559 Z" id="Rectangle-2" fill="url(#linearGradient-3)"></path>
        </g>
    </g>
</svg>
