<?xml version="1.0" encoding="UTF-8"?>
<svg width="375px" height="48px" viewBox="0 0 375 48" version="1.1" xmlns="http://www.w3.org/2000/svg" xmlns:xlink="http://www.w3.org/1999/xlink">
    <!-- Generator: Sketch 42 (36781) - http://www.bohemiancoding.com/sketch -->
    <title>Waves_3</title>
    <desc>Created with Sketch.</desc>
    <defs>
        <linearGradient x1="57.60625%" y1="-86.8607955%" x2="55.8286458%" y2="100%" id="linearGradient-1">
            <stop stop-color="#FFFFFF" stop-opacity="0.177224864" offset="0%"></stop>
            <stop stop-color="#FFFFFF" offset="100%"></stop>
        </linearGradient>
        <linearGradient x1="46.615625%" y1="-121.691895%" x2="40.2755208%" y2="100%" id="linearGradient-2">
            <stop stop-color="#FFFFFF" stop-opacity="0.177224864" offset="0%"></stop>
            <stop stop-color="#FFFFFF" offset="100%"></stop>
        </linearGradient>
        <linearGradient x1="25.522396%" y1="-106.945274%" x2="25.522396%" y2="100%" id="linearGradient-3">
            <stop stop-color="#FFFFFF" stop-opacity="0" offset="0%"></stop>
            <stop stop-color="#FFFFFF" offset="100%"></stop>
        </linearGradient>
    </defs>
    <g id="Symbols" stroke="none" stroke-width="1" fill="none" fill-rule="evenodd">
        <g id="Waves_3">
            <path d="M1.13686838e-13,14.4121094 C17.7207031,23.7128906 49.1054688,7.48046875 73.363682,11.0426527 C98.7449467,14.7697505 110.826793,4.14798576 153.398438,11.21875 C195.238281,18.1679688 213.382813,4 240.671875,4 C275.590935,4 280.126953,18.1679688 300.820313,18.1679688 C321.513672,18.1679688 329.599609,7.48046875 344.888672,7.48046875 C367.17384,7.48046875 375,14.4121094 375,14.4121094 L375,48 L0,48 L1.13686838e-13,14.4121094 Z" id="Bckgnd-Copy-8" fill-opacity="0.9" fill="url(#linearGradient-1)" transform="translate(187.500000, 26.000000) scale(-1, 1) translate(-187.500000, -26.000000) "></path>
            <path d="M46.9570312,18.9980469 C67.9238281,18.9980469 70.6113281,0 116.056641,0 C170.54225,0 215.193787,21.9779154 298.070313,8.71679687 C335.091797,2.79296875 375,18.9375 375,18.9375 L375,48 L-5.68434189e-14,48 L-5.68434189e-14,8.71679687 C-5.68434189e-14,8.71679687 25.9902344,18.9980469 46.9570312,18.9980469 Z" id="Bckgnd-Copy-9" fill-opacity="0.7" fill="url(#linearGradient-2)" transform="translate(187.500000, 24.000000) scale(-1, 1) translate(-187.500000, -24.000000) "></path>
            <path d="M1.05693232e-13,40.804559 C1.05693232e-13,40.804559 14.0517578,34.1533203 56.6191406,34.1533203 C78.1859747,34.1533203 160.169181,42.3242449 234.798828,40.804559 C307.468907,39.3247759 346.607422,39.3955078 375,30.7910156 C375,30.7910156 375,48 375,48 L1.05693232e-13,48 L1.05693232e-13,40.804559 Z" id="Rectangle-2" fill="url(#linearGradient-3)"></path>
        </g>
    </g>
</svg>