<?xml version="1.0" encoding="UTF-8"?>
<svg viewBox="0 0 375 48" version="1.1" xmlns="http://www.w3.org/2000/svg" xmlns:xlink="http://www.w3.org/1999/xlink">
    <!-- Generator: Sketch 42 (36781) - http://www.bohemiancoding.com/sketch -->
    <title>Waves_2</title>
    <desc>Created with Sketch.</desc>
    <defs>
        <linearGradient x1="40.8473958%" y1="-101.680501%" x2="41.8390625%" y2="93.3390299%" id="linearGradient-1">
            <stop stop-color="#FFFFFF" stop-opacity="0.177224864" offset="0%"></stop>
            <stop stop-color="#FFFFFF" offset="100%"></stop>
        </linearGradient>
        <linearGradient x1="25.522396%" y1="-106.945274%" x2="25.522396%" y2="100%" id="linearGradient-2">
            <stop stop-color="#FFFFFF" stop-opacity="0" offset="0%"></stop>
            <stop stop-color="#FFFFFF" offset="100%"></stop>
        </linearGradient>
    </defs>
    <g id="Symbols" stroke="none" stroke-width="1" fill="none" fill-rule="evenodd">
        <g id="Waves_2">
            <path d="M0,2.2544938 C0,2.2544938 28.8604067,17.7319492 90.5332031,11.7584 C152.206,5.78485095 183.828125,-2.57558433 219.410156,2.2544938 C270.221949,9.15193393 291.150391,2.2544938 329.105469,0.209571925 C367.060547,-1.83534995 375,11.7584 375,11.7584 L375,48 L0,48 L0,2.2544938 Z" fill="url(#linearGradient-1)" transform="translate(187.500000, 24.000000) scale(-1, 1) translate(-187.500000, -24.000000) "></path>
            <path d="M0,40.804559 C0,40.804559 14.7259695,29.9492188 56.9160156,29.9492188 C92.9960937,29.9492188 158.361328,40.8457031 221.232422,37.625 C284.103516,34.4042969 331.853516,34.1533203 375,37.625 C375,37.625 375,48 375,48 L0,48 L0,40.804559 Z" id="Rectangle-2" fill="url(#linearGradient-2)"></path>
        </g>
    </g>
</svg>
