<?xml version="1.0" encoding="UTF-8"?>
<svg viewBox="0 0 375 48" version="1.1" xmlns="http://www.w3.org/2000/svg" xmlns:xlink="http://www.w3.org/1999/xlink">
    <!-- Generator: Sketch 42 (36781) - http://www.bohemiancoding.com/sketch -->
    <title>Waves_4</title>
    <desc>Created with Sketch.</desc>
    <defs>
        <linearGradient x1="38.6536458%" y1="197.445278%" x2="42.2546875%" y2="50%" id="linearGradient-1">
            <stop stop-color="#FFFFFF" stop-opacity="0.177224864" offset="0%"></stop>
            <stop stop-color="#FFFFFF" offset="100%"></stop>
        </linearGradient>
        <linearGradient x1="42.2546864%" y1="-14.3473307%" x2="42.2546875%" y2="50%" id="linearGradient-2">
            <stop stop-color="#FFFFFF" stop-opacity="0.177224864" offset="0%"></stop>
            <stop stop-color="#FFFFFF" offset="100%"></stop>
        </linearGradient>
        <linearGradient x1="25.522396%" y1="-106.945274%" x2="25.522396%" y2="100%" id="linearGradient-3">
            <stop stop-color="#FFFFFF" stop-opacity="0" offset="0%"></stop>
            <stop stop-color="#FFFFFF" offset="100%"></stop>
        </linearGradient>
    </defs>
    <g id="Symbols" stroke="none" stroke-width="1" fill="none" fill-rule="evenodd">
        <g id="Waves_4">
            <path d="M2.27373675e-13,15.6047945 C2.27373675e-13,15.6047945 18.8964844,8.8815507 41.5839844,13.0006913 C64.2714844,17.119832 73.9472656,15.0999434 134.517578,1.10420695 C153.531179,-3.28918862 176.244141,15.1087008 187.5,15.1087008 C198.755859,15.1087008 202.463105,3.30431924 219.410156,5.6047945 C246.215612,9.24349755 261.157395,19.7680019 278.216797,18.4661544 C293.494797,17.3002503 311.173364,4.52600827 329.105469,3.55987263 C367.060547,1.51495075 375,15.1087008 375,15.1087008 L375,48 L-9.09494702e-13,48 L2.27373675e-13,15.6047945 Z" id="Bckgnd-Copy-10" fill-opacity="0.7" fill="url(#linearGradient-1)" transform="translate(187.500000, 24.213137) scale(-1, 1) translate(-187.500000, -24.213137) "></path>
            <path d="M0,20.8759103 C0,20.8759103 55.9648438,20.8759103 63.765625,6.2018632 C71.5664062,-8.47218392 121.248047,12.9615943 170.71875,16.7838599 C198.050539,18.8956019 232.953065,17.6621409 240.671875,3.41497283 C247.371094,-8.95026155 282.464844,16.7838599 305.28125,9.65303508 C328.097656,2.52221025 349.632812,33.4371082 375,13.8270822 L375,48 L0,48 L0,20.8759103 Z" id="Bckgnd-Copy-8" fill-opacity="0.7" fill="url(#linearGradient-2)" transform="translate(187.500000, 24.000000) scale(-1, 1) translate(-187.500000, -24.000000) "></path>
            <path d="M0,36.3652344 C0,36.3652344 26.6621094,41.2672498 55.9746094,41.2672498 C85.2871094,41.2672498 98.2336966,30.7910156 138.130859,30.7910156 C178.028022,30.7910156 183.425781,39.2672497 216.208984,39.2672498 C248.992187,39.2672498 261.260907,30.7910156 300.5625,30.7910156 C339.864093,30.7910156 354.626953,39.2672498 375,39.2672498 C375,39.2672498 375,48 375,48 L0,48 L0,36.3652344 Z" id="Rectangle-2" fill="url(#linearGradient-3)"></path>
        </g>
    </g>
</svg>
