<svg data-name="Ebene 2" xmlns="http://www.w3.org/2000/svg" viewBox="0 0 98.76 70"><defs><linearGradient id="a" x1="62.54" y1="35" x2="0" y2="35" gradientUnits="userSpaceOnUse"><stop offset=".05" stop-color="#536498"/><stop offset=".07" stop-color="#516295"/><stop offset=".24" stop-color="#465480"/><stop offset=".44" stop-color="#3e4a71"/><stop offset=".66" stop-color="#394568"/><stop offset="1" stop-color="#384365"/></linearGradient><linearGradient id="b" x1="77.42" y1="33.04" x2="49.97" y2="48.89" gradientUnits="userSpaceOnUse"><stop offset=".34" stop-color="#6f86ca"/><stop offset=".54" stop-color="#6478b6"/><stop offset=".82" stop-color="#5769a0"/><stop offset="1" stop-color="#536498"/></linearGradient><linearGradient id="c" x1="13.93" y1="46.2" x2="26.17" y2="56.47" gradientUnits="userSpaceOnUse"><stop offset=".05" stop-color="#6f86ca"/><stop offset=".07" stop-color="#6c82c5"/><stop offset=".25" stop-color="#596ca2"/><stop offset=".43" stop-color="#4b5a87"/><stop offset=".62" stop-color="#404d74"/><stop offset=".8" stop-color="#3a4669"/><stop offset="1" stop-color="#384365"/></linearGradient><linearGradient id="d" x1="41" y1="22.47" x2="57.55" y2="22.47" gradientUnits="userSpaceOnUse"><stop offset=".05" stop-color="#6f86ca"/><stop offset=".14" stop-color="#6175b0"/><stop offset=".27" stop-color="#526395"/><stop offset=".4" stop-color="#465580"/><stop offset=".56" stop-color="#3e4b71"/><stop offset=".73" stop-color="#394568"/><stop offset="1" stop-color="#384365"/></linearGradient><linearGradient id="e" x1="57.27" y1="39.98" x2="97.8" y2="39.98" gradientUnits="userSpaceOnUse"><stop offset=".05" stop-color="#6f86ca"/><stop offset=".07" stop-color="#6e84c7"/><stop offset=".24" stop-color="#6276b2"/><stop offset=".43" stop-color="#596ca4"/><stop offset=".66" stop-color="#55669b"/><stop offset="1" stop-color="#536498"/></linearGradient><linearGradient id="f" x1="18.83" y1="44.68" x2="65.14" y2="52.85" gradientUnits="userSpaceOnUse"><stop offset=".05" stop-color="#536498"/><stop offset=".21" stop-color="#4a5987"/><stop offset=".47" stop-color="#404d74"/><stop offset=".73" stop-color="#3a4569"/><stop offset="1" stop-color="#384365"/></linearGradient></defs><title>5-update_</title><path fill="url(#a)" d="M62.54 70L49.27 0 0 70h62.54"/><path fill="url(#b)" d="M98.76 70L49.27 0l12.89 70h36.6z"/><path fill="url(#c)" d="M14.81 70H0l31.41-44.62L14.81 70z"/><path fill="url(#d)" d="M49.27 0L41 22.37l16.55 22.58"/><path fill="url(#e)" d="M57.27 11.31l13.17 38.17 27.37 19.17"/><path fill="url(#f)" d="M62.12 70H14.37l18.58-4.03L41 22.49l16.55 22.46L62.12 70z"/></svg>