<svg data-name="Ebene 2" xmlns="http://www.w3.org/2000/svg" viewBox="0 0 98.76 50"><defs><linearGradient id="a" x1="62.16" y1="25" x2="0" y2="25" gradientUnits="userSpaceOnUse"><stop offset=".05" stop-color="#536498"/><stop offset=".07" stop-color="#516295"/><stop offset=".24" stop-color="#465480"/><stop offset=".44" stop-color="#3e4a71"/><stop offset=".66" stop-color="#394568"/><stop offset="1" stop-color="#384365"/></linearGradient><linearGradient id="b" x1="81.75" y1="20.54" x2="54.3" y2="36.38" gradientUnits="userSpaceOnUse"><stop offset=".34" stop-color="#6f86ca"/><stop offset=".54" stop-color="#6478b6"/><stop offset=".82" stop-color="#5769a0"/><stop offset="1" stop-color="#536498"/></linearGradient><linearGradient id="c" x1="11.09" y1="36.79" x2="19.77" y2="44.08" gradientUnits="userSpaceOnUse"><stop offset=".05" stop-color="#6f86ca"/><stop offset=".07" stop-color="#6c82c5"/><stop offset=".25" stop-color="#596ca2"/><stop offset=".43" stop-color="#4b5a87"/><stop offset=".62" stop-color="#404d74"/><stop offset=".8" stop-color="#3a4669"/><stop offset="1" stop-color="#384365"/></linearGradient><linearGradient id="d" x1="41" y1="17.86" x2="58.41" y2="17.86" gradientUnits="userSpaceOnUse"><stop offset=".05" stop-color="#6f86ca"/><stop offset=".14" stop-color="#6175b0"/><stop offset=".27" stop-color="#526395"/><stop offset=".4" stop-color="#465580"/><stop offset=".56" stop-color="#3e4b71"/><stop offset=".73" stop-color="#394568"/><stop offset="1" stop-color="#384365"/></linearGradient><linearGradient id="e" x1="60.39" y1="29.98" x2="97.42" y2="29.98" gradientUnits="userSpaceOnUse"><stop offset=".05" stop-color="#6f86ca"/><stop offset=".07" stop-color="#6e84c7"/><stop offset=".24" stop-color="#6276b2"/><stop offset=".43" stop-color="#596ca4"/><stop offset=".66" stop-color="#55669b"/><stop offset="1" stop-color="#536498"/></linearGradient><linearGradient id="f" x1="17.13" y1="34.33" x2="63.44" y2="42.49" gradientUnits="userSpaceOnUse"><stop offset=".05" stop-color="#536498"/><stop offset=".21" stop-color="#4a5987"/><stop offset=".47" stop-color="#404d74"/><stop offset=".73" stop-color="#3a4569"/><stop offset="1" stop-color="#384365"/></linearGradient></defs><title>5-update_</title><path fill="url(#a)" d="M62.16 50L49.27 0 0 50h62.16z"/><path fill="url(#b)" d="M98.76 50L49.27 0l12.89 50h36.6z"/><path fill="url(#c)" d="M14.81 50H0l24.31-24.62L14.81 50z"/><path fill="url(#d)" d="M49.27 0L41 22.37l17.41 13.36"/><path fill="url(#e)" d="M60.39 11.31l10.05 23.16 26.98 14.18"/><path fill="url(#f)" d="M62.12 50H14.37l18.58-4.03L41 22.37l17.41 13.36L62.12 50z"/></svg>