<svg width="100" height="90" viewBox="0 0 100 90" xmlns="http://www.w3.org/2000/svg"><title>Key_2_5_2</title><defs><linearGradient x1="100%" y1="49.994%" x2="0%" y2="49.994%" id="a"><stop stop-color="#A6475B" offset="5%"/><stop stop-color="#9F4457" offset="10%"/><stop stop-color="#8A3B4B" offset="26%"/><stop stop-color="#7B3443" offset="45%"/><stop stop-color="#72303E" offset="67%"/><stop stop-color="#6F2F3D" offset="100%"/></linearGradient><linearGradient x1="51.889%" y1="49.406%" x2="-6.769%" y2="68.015%" id="b"><stop stop-color="#DD5E79" offset="34%"/><stop stop-color="#C4546B" offset="57%"/><stop stop-color="#AE4A5F" offset="83%"/><stop stop-color="#A6475B" offset="100%"/></linearGradient><linearGradient x1="10.857%" y1="41.595%" x2="111.314%" y2="54.232%" id="c"><stop stop-color="#A6475B" offset="5%"/><stop stop-color="#974153" offset="20%"/><stop stop-color="#813747" offset="48%"/><stop stop-color="#74313F" offset="76%"/><stop stop-color="#6F2F3D" offset="100%"/></linearGradient><linearGradient x1="0%" y1="50%" y2="50%" id="d"><stop stop-color="#DD5E79" offset="5%"/><stop stop-color="#DB5D78" offset="6%"/><stop stop-color="#BA4F66" offset="17%"/><stop stop-color="#9F4357" offset="29%"/><stop stop-color="#8A3A4B" offset="42%"/><stop stop-color="#7B3443" offset="57%"/><stop stop-color="#72303E" offset="74%"/><stop stop-color="#6F2F3D" offset="100%"/></linearGradient><linearGradient x1="0%" y1="50.009%" y2="50.009%" id="e"><stop stop-color="#DD5E79" offset="5%"/><stop stop-color="#D65B75" offset="10%"/><stop stop-color="#C15269" offset="26%"/><stop stop-color="#B24C61" offset="45%"/><stop stop-color="#A9485C" offset="67%"/><stop stop-color="#A6475B" offset="100%"/></linearGradient><linearGradient x1="34.374%" y1="42.817%" x2="76.024%" y2="61.951%" id="f"><stop stop-color="#DD5E79" offset="5%"/><stop stop-color="#CF5871" offset="11%"/><stop stop-color="#AC495E" offset="28%"/><stop stop-color="#913E50" offset="46%"/><stop stop-color="#7E3645" offset="63%"/><stop stop-color="#73313F" offset="81%"/><stop stop-color="#6F2F3D" offset="100%"/></linearGradient></defs><g fill-rule="nonzero" fill="none"><path fill="url(#a)" d="M63.04 90.01L49.77 0 .5 90.01h62.54"/><path fill="url(#b)" d="M99.26 90.01L49.77 0l13.27 90.01z"/><path fill="url(#c)" d="M63.04 90.01l-48.17-9.77 18.58-14.32 8.05-43.49L56.41 45z"/><path fill="url(#d)" d="M49.77 0L41.5 22.43 56.41 45"/><path fill="url(#e)" d="M56.02 11.36l14.92 43.16 16.6 14.17"/><path fill="url(#f)" d="M15.3 79.43L.93 89.19l34.91-63.76z"/></g></svg>