<svg viewBox="0 0 100 90" xmlns="http://www.w3.org/2000/svg"><title>Key_3_5_2</title><defs><linearGradient x1="100%" y1="49.994%" x2="0%" y2="49.994%" id="a"><stop stop-color="#B0557F" offset="5%"/><stop stop-color="#A55077" offset="12%"/><stop stop-color="#904667" offset="28%"/><stop stop-color="#813E5C" offset="46%"/><stop stop-color="#783A56" offset="68%"/><stop stop-color="#753954" offset="100%"/></linearGradient><linearGradient x1="51.889%" y1="49.406%" x2="-7.335%" y2="68.204%" id="b"><stop stop-color="#D099B2" offset="34%"/><stop stop-color="#CF97B0" offset="35%"/><stop stop-color="#BE7396" offset="63%"/><stop stop-color="#B45D85" offset="86%"/><stop stop-color="#B0557F" offset="100%"/></linearGradient><linearGradient x1="10.986%" y1="41.654%" x2="111.425%" y2="54.188%" id="c"><stop stop-color="#B0557F" offset="5%"/><stop stop-color="#9D4C71" offset="23%"/><stop stop-color="#874261" offset="50%"/><stop stop-color="#7A3B57" offset="77%"/><stop stop-color="#753954" offset="100%"/></linearGradient><linearGradient x1="34.355%" y1="42.817%" x2="76.017%" y2="61.951%" id="d"><stop stop-color="#D099B2" offset="5%"/><stop stop-color="#D099B2" offset="5%"/><stop stop-color="#AF7690" offset="23%"/><stop stop-color="#965B76" offset="42%"/><stop stop-color="#834863" offset="61%"/><stop stop-color="#793D58" offset="80%"/><stop stop-color="#753954" offset="100%"/></linearGradient><linearGradient x1="0%" y1="50%" y2="50%" id="e"><stop stop-color="#D099B2" offset="5%"/><stop stop-color="#BC849D" offset="13%"/><stop stop-color="#A26983" offset="26%"/><stop stop-color="#8E546E" offset="39%"/><stop stop-color="#80455F" offset="55%"/><stop stop-color="#783C57" offset="73%"/><stop stop-color="#753954" offset="100%"/></linearGradient><linearGradient x1="0%" y1="50%" y2="50%" id="f"><stop stop-color="#D099B2" offset="5%"/><stop stop-color="#C685A3" offset="16%"/><stop stop-color="#BC7093" offset="32%"/><stop stop-color="#B56188" offset="49%"/><stop stop-color="#B15881" offset="69%"/><stop stop-color="#B0557F" offset="100%"/></linearGradient></defs><g fill-rule="nonzero" fill="none"><path fill="url(#a)" d="M63.04 90.01L49.77 0 .5 90.01h62.54"/><path fill="url(#b)" d="M99.26 90.01L49.77 0l12.89 90.01h34.55"/><path fill="url(#c)" d="M62.66 90.01l-47.79-9.65 18.58-14.33 8.05-43.6L56.22 45z"/><path fill="url(#d)" d="M15.31 79.43L.94 89.19l34.9-63.76z"/><path fill="url(#e)" d="M49.77 0L41.5 22.43 56.22 45"/><path fill="url(#f)" d="M56.17 11.66l14.77 42.87 16.6 14.17"/></g></svg>