<svg width="100" height="50" viewBox="0 0 100 50" xmlns="http://www.w3.org/2000/svg"><title>Key_3_1_2</title><defs><linearGradient x1="100%" y1="50%" x2="0%" y2="50%" id="a"><stop stop-color="#B0557F" offset="5%"/><stop stop-color="#A55077" offset="12%"/><stop stop-color="#904667" offset="28%"/><stop stop-color="#813E5C" offset="46%"/><stop stop-color="#783A56" offset="68%"/><stop stop-color="#753954" offset="100%"/></linearGradient><linearGradient x1="65.629%" y1="41.08%" x2="10.164%" y2="72.76%" id="b"><stop stop-color="#D099B2" offset="34%"/><stop stop-color="#CF97B0" offset="35%"/><stop stop-color="#BE7396" offset="63%"/><stop stop-color="#B45D85" offset="86%"/><stop stop-color="#B0557F" offset="100%"/></linearGradient><linearGradient x1="45.619%" y1="46.344%" x2="81.325%" y2="75.955%" id="c"><stop stop-color="#D099B2" offset="5%"/><stop stop-color="#D099B2" offset="5%"/><stop stop-color="#AF7690" offset="23%"/><stop stop-color="#965B76" offset="42%"/><stop stop-color="#834863" offset="61%"/><stop stop-color="#793D58" offset="80%"/><stop stop-color="#753954" offset="100%"/></linearGradient><linearGradient x1="0%" y1="49.986%" y2="49.986%" id="d"><stop stop-color="#D099B2" offset="5%"/><stop stop-color="#BC849D" offset="13%"/><stop stop-color="#A26983" offset="26%"/><stop stop-color="#8E546E" offset="39%"/><stop stop-color="#80455F" offset="55%"/><stop stop-color="#783C57" offset="73%"/><stop stop-color="#753954" offset="100%"/></linearGradient><linearGradient x1="0%" y1="50%" y2="50%" id="e"><stop stop-color="#D099B2" offset="5%"/><stop stop-color="#C685A3" offset="16%"/><stop stop-color="#BC7093" offset="32%"/><stop stop-color="#B56188" offset="49%"/><stop stop-color="#B15881" offset="69%"/><stop stop-color="#B0557F" offset="100%"/></linearGradient><linearGradient x1="5.759%" y1="43.221%" x2="102.743%" y2="72.919%" id="f"><stop stop-color="#B0557F" offset="5%"/><stop stop-color="#9D4C71" offset="23%"/><stop stop-color="#874261" offset="50%"/><stop stop-color="#7A3B57" offset="77%"/><stop stop-color="#753954" offset="100%"/></linearGradient></defs><g fill-rule="nonzero" fill="none"><path fill="url(#a)" d="M62.16 50L49.27 0 0 50z" transform="translate(.5)"/><path fill="url(#b)" d="M98.76 50L49.27 0l12.89 50z" transform="translate(.5)"/><path fill="url(#c)" d="M14.81 50H0l24.31-24.62z" transform="translate(.5)"/><path fill="url(#d)" d="M49.27 0L41 22.37l17.41 13.36" transform="translate(.5)"/><path fill="url(#e)" d="M60.39 11.31l10.05 23.16 26.98 14.18" transform="translate(.5)"/><path fill="url(#f)" d="M62.12 50H14.37l18.58-4.03L41 22.49l17.41 13.24z" transform="translate(.5)"/></g></svg>