<svg viewBox="0 0 100 50" xmlns="http://www.w3.org/2000/svg"><title>Key_1_1_2</title><defs><linearGradient x1="100%" y1="50%" x2="0%" y2="50%" id="a"><stop stop-color="#7D1026" offset="5%"/><stop stop-color="#6D0E22" offset="19%"/><stop stop-color="#5F0C1D" offset="40%"/><stop stop-color="#560B1B" offset="64%"/><stop stop-color="#530B1A" offset="100%"/></linearGradient><linearGradient x1="65.629%" y1="41.08%" x2="10.164%" y2="72.76%" id="b"><stop stop-color="#A61533" offset="34%"/><stop stop-color="#9B1430" offset="47%"/><stop stop-color="#851129" offset="79%"/><stop stop-color="#7D1026" offset="100%"/></linearGradient><linearGradient x1="45.619%" y1="46.344%" x2="81.325%" y2="75.955%" id="c"><stop stop-color="#A61533" offset="5%"/><stop stop-color="#9F1431" offset="13%"/><stop stop-color="#8C122B" offset="41%"/><stop stop-color="#811027" offset="70%"/><stop stop-color="#7D1026" offset="100%"/></linearGradient><linearGradient x1="0%" y1="49.986%" y2="49.986%" id="d"><stop stop-color="#A61533" offset="5%"/><stop stop-color="#9E1431" offset="8%"/><stop stop-color="#831128" offset="22%"/><stop stop-color="#6E0E22" offset="36%"/><stop stop-color="#5F0C1D" offset="52%"/><stop stop-color="#560B1B" offset="71%"/><stop stop-color="#530B1A" offset="100%"/></linearGradient><linearGradient x1="0%" y1="50%" y2="50%" id="e"><stop stop-color="#A61533" offset="5%"/><stop stop-color="#97132E" offset="19%"/><stop stop-color="#89112A" offset="39%"/><stop stop-color="#801027" offset="63%"/><stop stop-color="#7D1026" offset="100%"/></linearGradient><linearGradient x1="5.759%" y1="43.221%" x2="102.743%" y2="72.919%" id="f"><stop stop-color="#A61533" offset="5%"/><stop stop-color="#91122D" offset="34%"/><stop stop-color="#590C1C" offset="93%"/><stop stop-color="#530B1A" offset="100%"/></linearGradient></defs><g fill-rule="nonzero" fill="none"><path fill="url(#a)" d="M62.16 50L49.27 0 0 50z" transform="translate(.5)"/><path fill="url(#b)" d="M98.76 50L49.27 0l12.89 50z" transform="translate(.5)"/><path fill="url(#c)" d="M14.81 50H0l24.31-24.62z" transform="translate(.5)"/><path fill="url(#d)" d="M49.27 0L41 22.37l17.41 13.36" transform="translate(.5)"/><path fill="url(#e)" d="M60.39 11.31l10.05 23.16 26.98 14.18" transform="translate(.5)"/><path fill="url(#f)" d="M62.12 50H14.37l18.58-4.03L41 22.49l17.41 13.24z" transform="translate(.5)"/></g></svg>