<svg id="Ebene_1" data-name="Ebene 1" xmlns="http://www.w3.org/2000/svg" xmlns:xlink="http://www.w3.org/1999/xlink" viewBox="0 0 98.76 60"><defs><style>.cls-1{fill:url(#Unbenannter_Verlauf_35);}.cls-2{fill:url(#_1_LIGHT);}.cls-3{fill:url(#Unbenannter_Verlauf_32);}.cls-4{fill:url(#Unbenannter_Verlauf_11);}.cls-5{fill:url(#Unbenannter_Verlauf_9);}.cls-6{fill:url(#Unbenannter_Verlauf_30);}.cls-7{fill:url(#Unbenannter_Verlauf_13);}.cls-8{fill:url(#Unbenannter_Verlauf_7);}</style><linearGradient id="Unbenannter_Verlauf_35" x1="62.54" y1="30" x2="0" y2="30" gradientUnits="userSpaceOnUse"><stop offset="0.05" stop-color="#7d1026"/><stop offset="0.19" stop-color="#6d0e22"/><stop offset="0.4" stop-color="#5f0c1d"/><stop offset="0.64" stop-color="#560b1b"/><stop offset="1" stop-color="#530b1a"/></linearGradient><linearGradient id="_1_LIGHT" x1="79.59" y1="26.79" x2="52.14" y2="42.63" gradientUnits="userSpaceOnUse"><stop offset="0.34" stop-color="#a61533"/><stop offset="0.47" stop-color="#9b1430"/><stop offset="0.79" stop-color="#851129"/><stop offset="1" stop-color="#7d1026"/></linearGradient><linearGradient id="Unbenannter_Verlauf_32" x1="14.03" y1="42.54" x2="23.09" y2="50.13" gradientUnits="userSpaceOnUse"><stop offset="0.05" stop-color="#a61533"/><stop offset="0.13" stop-color="#9f1431"/><stop offset="0.41" stop-color="#8c122b"/><stop offset="0.7" stop-color="#811027"/><stop offset="1" stop-color="#7d1026"/></linearGradient><linearGradient id="Unbenannter_Verlauf_11" x1="41" y1="22.02" x2="58.75" y2="22.02" gradientUnits="userSpaceOnUse"><stop offset="0.05" stop-color="#a61533"/><stop offset="0.08" stop-color="#9e1431"/><stop offset="0.22" stop-color="#831128"/><stop offset="0.36" stop-color="#6e0e22"/><stop offset="0.52" stop-color="#5f0c1d"/><stop offset="0.71" stop-color="#560b1b"/><stop offset="1" stop-color="#530b1a"/></linearGradient><linearGradient id="Unbenannter_Verlauf_9" x1="58.6" y1="34.98" x2="97.64" y2="34.98" gradientUnits="userSpaceOnUse"><stop offset="0.05" stop-color="#a61533"/><stop offset="0.19" stop-color="#97132e"/><stop offset="0.39" stop-color="#89112a"/><stop offset="0.63" stop-color="#801027"/><stop offset="1" stop-color="#7d1026"/></linearGradient><linearGradient id="Unbenannter_Verlauf_30" x1="17.99" y1="39.48" x2="64.29" y2="47.64" gradientUnits="userSpaceOnUse"><stop offset="0.05" stop-color="#a61533"/><stop offset="0.34" stop-color="#91122d"/><stop offset="0.93" stop-color="#590c1c"/><stop offset="1" stop-color="#530b1a"/></linearGradient><linearGradient id="Unbenannter_Verlauf_13" x1="48.16" y1="46.18" x2="64.11" y2="48.99" gradientUnits="userSpaceOnUse"><stop offset="0.05" stop-color="#a61533"/><stop offset="0.16" stop-color="#94132e"/><stop offset="0.37" stop-color="#780f25"/><stop offset="0.58" stop-color="#630d1f"/><stop offset="0.79" stop-color="#570b1b"/><stop offset="1" stop-color="#530b1a"/></linearGradient><linearGradient id="Unbenannter_Verlauf_7" x1="61.14" y1="42.11" x2="78.64" y2="45.19" gradientUnits="userSpaceOnUse"><stop offset="0.05" stop-color="#a61533"/><stop offset="0.1" stop-color="#a21432"/><stop offset="0.4" stop-color="#8d122b"/><stop offset="0.71" stop-color="#811127"/><stop offset="1" stop-color="#7d1026"/></linearGradient></defs><title>Key_</title><polyline class="cls-1" points="62.54 60 49.27 0 0 60 62.54 60"/><polygon class="cls-2" points="98.76 60 49.27 0 62.16 60 98.76 60"/><polygon class="cls-3" points="14.81 60 0 60 28.43 25.38 14.81 60"/><polyline class="cls-4" points="49.27 0 41 22.37 58.75 44.05"/><polyline class="cls-5" points="58.6 11.31 70.44 44.48 97.64 58.65"/><polygon class="cls-6" points="62.12 60 14.37 60 32.95 55.97 41 22.37 58.75 44.05 62.12 60"/><polygon class="cls-7" points="50.35 33.75 53.87 60 62.16 60 58.75 44.05 50.35 33.75"/><polygon class="cls-8" points="69.91 60 76.03 60 63.93 26.25 69.91 60"/></svg>