<svg id="Ebene_1" data-name="Ebene 1" xmlns="http://www.w3.org/2000/svg" xmlns:xlink="http://www.w3.org/1999/xlink" viewBox="0 0 99.75 80.01"><defs><style>.cls-1{fill:url(#_4_DARK);}.cls-2{fill:url(#_4_LIGHT);}.cls-3{fill:url(#Unbenannter_Verlauf_67);}.cls-4{fill:url(#Unbenannter_Verlauf_69);}.cls-5{fill:url(#Unbenannter_Verlauf_63);}.cls-6{fill:url(#Unbenannter_Verlauf_71);}.cls-7{fill:url(#Unbenannter_Verlauf_65);}.cls-8{fill:url(#Unbenannter_Verlauf_73);}</style><linearGradient id="_4_DARK" x1="63.52" y1="40" x2="0.98" y2="40" gradientUnits="userSpaceOnUse"><stop offset="0.05" stop-color="#5a7ebc"/><stop offset="0.14" stop-color="#5374ad"/><stop offset="0.3" stop-color="#496698"/><stop offset="0.48" stop-color="#415c89"/><stop offset="0.68" stop-color="#3d5680"/><stop offset="1" stop-color="#3c547d"/></linearGradient><linearGradient id="_4_LIGHT" x1="76.24" y1="39.29" x2="48.79" y2="55.14" gradientUnits="userSpaceOnUse"><stop offset="0.34" stop-color="#9cb2d7"/><stop offset="0.34" stop-color="#9cb2d7"/><stop offset="0.62" stop-color="#7896c8"/><stop offset="0.85" stop-color="#6284bf"/><stop offset="1" stop-color="#5a7ebc"/></linearGradient><linearGradient id="Unbenannter_Verlauf_67" x1="20.66" y1="49.81" x2="67.03" y2="57.98" gradientUnits="userSpaceOnUse"><stop offset="0.05" stop-color="#5a7ebc"/><stop offset="0.37" stop-color="#4e6da2"/><stop offset="0.77" stop-color="#415b87"/><stop offset="1" stop-color="#3c547d"/></linearGradient><linearGradient id="Unbenannter_Verlauf_69" x1="14.01" y1="49.96" x2="29.27" y2="62.76" gradientUnits="userSpaceOnUse"><stop offset="0.05" stop-color="#9cb2d7"/><stop offset="0.05" stop-color="#9cb2d7"/><stop offset="0.23" stop-color="#7990b6"/><stop offset="0.42" stop-color="#5e769d"/><stop offset="0.61" stop-color="#4b638b"/><stop offset="0.8" stop-color="#405881"/><stop offset="1" stop-color="#3c547d"/></linearGradient><linearGradient id="Unbenannter_Verlauf_63" x1="57.28" y1="39.96" x2="92.68" y2="39.96" gradientUnits="userSpaceOnUse"><stop offset="0.05" stop-color="#9cb2d7"/><stop offset="0.15" stop-color="#8aa3cf"/><stop offset="0.31" stop-color="#7593c7"/><stop offset="0.48" stop-color="#6687c1"/><stop offset="0.69" stop-color="#5d80bd"/><stop offset="1" stop-color="#5a7ebc"/></linearGradient><linearGradient id="Unbenannter_Verlauf_71" x1="45.56" y1="54.6" x2="66.96" y2="58.37" gradientUnits="userSpaceOnUse"><stop offset="0.05" stop-color="#9cb2d7"/><stop offset="0.22" stop-color="#7d94ba"/><stop offset="0.42" stop-color="#6178a0"/><stop offset="0.61" stop-color="#4c648c"/><stop offset="0.81" stop-color="#405881"/><stop offset="1" stop-color="#3c547d"/></linearGradient><linearGradient id="Unbenannter_Verlauf_65" x1="41.99" y1="22.46" x2="57.54" y2="22.46" xlink:href="#Unbenannter_Verlauf_63"/><linearGradient id="Unbenannter_Verlauf_73" x1="57.98" y1="51.88" x2="85.45" y2="56.73" gradientUnits="userSpaceOnUse"><stop offset="0.05" stop-color="#9cb2d7"/><stop offset="0.06" stop-color="#9bb1d7"/><stop offset="0.29" stop-color="#7f9bcb"/><stop offset="0.53" stop-color="#6a8bc3"/><stop offset="0.77" stop-color="#5e81be"/><stop offset="1" stop-color="#5a7ebc"/></linearGradient></defs><title>Key_</title><polyline class="cls-1" points="63.52 80 50.26 0 0.98 80 63.52 80"/><polygon class="cls-2" points="99.75 80 50.26 0 63.15 80 99.75 80"/><polygon class="cls-3" points="63.15 80 15.34 80 33.92 65.92 41.98 22.43 57.55 45 63.15 80"/><polygon class="cls-4" points="14.79 80 0 80 34.6 25.43 14.79 80"/><polyline class="cls-5" points="57.28 11.36 72.4 54.52 92.68 68.56"/><polygon class="cls-6" points="49.37 32.96 53.73 78.02 63.15 80 57.55 45 49.37 32.96"/><polyline class="cls-7" points="50.26 0 41.99 22.36 57.55 44.93"/><polygon class="cls-8" points="67.53 80 81.35 80 62.5 26.25 67.53 80"/></svg>