<svg viewBox="0 0 100 90" xmlns="http://www.w3.org/2000/svg"><title>Key_1_5_1</title><defs><linearGradient x1="100%" y1="49.994%" x2="0%" y2="49.994%" id="a"><stop stop-color="#7D1026" offset="5%"/><stop stop-color="#6D0E22" offset="19%"/><stop stop-color="#5F0C1D" offset="40%"/><stop stop-color="#560B1B" offset="64%"/><stop stop-color="#530B1A" offset="100%"/></linearGradient><linearGradient x1="51.889%" y1="49.406%" x2="-7.335%" y2="68.204%" id="b"><stop stop-color="#A61533" offset="34%"/><stop stop-color="#9B1430" offset="47%"/><stop stop-color="#851129" offset="79%"/><stop stop-color="#7D1026" offset="100%"/></linearGradient><linearGradient x1="0%" y1="50%" y2="50%" id="c"><stop stop-color="#A61533" offset="5%"/><stop stop-color="#9E1431" offset="8%"/><stop stop-color="#831128" offset="22%"/><stop stop-color="#6E0E22" offset="36%"/><stop stop-color="#5F0C1D" offset="52%"/><stop stop-color="#560B1B" offset="71%"/><stop stop-color="#530B1A" offset="100%"/></linearGradient><linearGradient x1="0%" y1="50%" y2="50%" id="d"><stop stop-color="#A61533" offset="5%"/><stop stop-color="#97132E" offset="19%"/><stop stop-color="#89112A" offset="39%"/><stop stop-color="#801027" offset="63%"/><stop stop-color="#7D1026" offset="100%"/></linearGradient><linearGradient x1="10.857%" y1="41.61%" x2="111.314%" y2="54.232%" id="e"><stop stop-color="#A61533" offset="5%"/><stop stop-color="#91122D" offset="34%"/><stop stop-color="#590C1C" offset="93%"/><stop stop-color="#530B1A" offset="100%"/></linearGradient><linearGradient x1="-24.102%" y1="47.742%" x2="121.813%" y2="56.728%" id="f"><stop stop-color="#A61533" offset="5%"/><stop stop-color="#A21432" offset="10%"/><stop stop-color="#8D122B" offset="40%"/><stop stop-color="#811127" offset="71%"/><stop stop-color="#7D1026" offset="100%"/></linearGradient><linearGradient x1="34.384%" y1="42.817%" x2="76.017%" y2="61.951%" id="g"><stop stop-color="#A61533" offset="5%"/><stop stop-color="#9F1431" offset="13%"/><stop stop-color="#8C122B" offset="41%"/><stop stop-color="#811027" offset="70%"/><stop stop-color="#7D1026" offset="100%"/></linearGradient><linearGradient x1="-32.509%" y1="46.331%" x2="132.509%" y2="53.651%" id="h"><stop stop-color="#A61533" offset="5%"/><stop stop-color="#94132E" offset="16%"/><stop stop-color="#780F25" offset="37%"/><stop stop-color="#630D1F" offset="58%"/><stop stop-color="#570B1B" offset="79%"/><stop stop-color="#530B1A" offset="100%"/></linearGradient></defs><g fill-rule="nonzero" fill="none"><path fill="url(#a)" d="M63.04 90.01L49.77 0 .5 90.01h62.54"/><path fill="url(#b)" d="M99.26 90.01L49.77 0l12.89 90.01z"/><path fill="url(#c)" d="M49.77 0L41.5 22.43 56.27 45"/><path fill="url(#d)" d="M54.49 8.58l14.96 43.16 16.6 14.18"/><path fill="url(#e)" d="M63.04 90.01l-48.17-9.76 18.58-14.33 8.05-43.49L56.27 45z"/><path fill="url(#f)" d="M66.2 90.01h16.75L60.67 26.25z"/><path fill="url(#g)" d="M14.87 80.25L.5 90.01l34.9-63.76z"/><path fill="url(#h)" d="M48.89 33.72l4.35 54.3 9.8 1.99L56.27 45z"/></g></svg>