<svg data-name="Ebene 1" xmlns="http://www.w3.org/2000/svg" viewBox="0 0 98.76 60"><defs><linearGradient id="a" x1="62.54" y1="30" x2="0" y2="30" gradientUnits="userSpaceOnUse"><stop offset=".05" stop-color="#978ea7"/><stop offset=".19" stop-color="#898197"/><stop offset=".4" stop-color="#7b7589"/><stop offset=".64" stop-color="#736d80"/><stop offset="1" stop-color="#716b7d"/></linearGradient><linearGradient id="b" x1="79.59" y1="26.79" x2="52.14" y2="42.63" gradientUnits="userSpaceOnUse"><stop offset=".34" stop-color="#c1bbca"/><stop offset=".5" stop-color="#b3acbe"/><stop offset=".81" stop-color="#9e96ad"/><stop offset="1" stop-color="#978ea7"/></linearGradient><linearGradient id="c" x1="14.03" y1="42.54" x2="23.09" y2="50.13" gradientUnits="userSpaceOnUse"><stop offset=".05" stop-color="#c1bbca"/><stop offset=".17" stop-color="#aea8b8"/><stop offset=".37" stop-color="#938d9e"/><stop offset=".57" stop-color="#807a8c"/><stop offset=".78" stop-color="#756f81"/><stop offset="1" stop-color="#716b7d"/></linearGradient><linearGradient id="d" x1="41" y1="22.02" x2="58.75" y2="22.02" gradientUnits="userSpaceOnUse"><stop offset=".05" stop-color="#c1bbca"/><stop offset=".07" stop-color="#bcb6c5"/><stop offset=".21" stop-color="#a19bab"/><stop offset=".35" stop-color="#8c8697"/><stop offset=".52" stop-color="#7d7788"/><stop offset=".71" stop-color="#746e80"/><stop offset="1" stop-color="#716b7d"/></linearGradient><linearGradient id="e" x1="58.6" y1="34.98" x2="97.64" y2="34.98" gradientUnits="userSpaceOnUse"><stop offset=".05" stop-color="#c1bbca"/><stop offset=".21" stop-color="#b0a8bc"/><stop offset=".41" stop-color="#a29ab0"/><stop offset=".64" stop-color="#9a91a9"/><stop offset="1" stop-color="#978ea7"/></linearGradient><linearGradient id="f" x1="17.98" y1="39.53" x2="64.28" y2="47.7" gradientUnits="userSpaceOnUse"><stop offset=".05" stop-color="#978ea7"/><stop offset=".07" stop-color="#958da5"/><stop offset=".4" stop-color="#817a8f"/><stop offset=".72" stop-color="#756f82"/><stop offset="1" stop-color="#716b7d"/></linearGradient><linearGradient id="g" x1="48.16" y1="46.18" x2="64.11" y2="48.99" gradientUnits="userSpaceOnUse"><stop offset=".05" stop-color="#c1bbca"/><stop offset=".14" stop-color="#b2acbc"/><stop offset=".36" stop-color="#9690a0"/><stop offset=".58" stop-color="#817b8d"/><stop offset=".79" stop-color="#756f81"/><stop offset="1" stop-color="#716b7d"/></linearGradient><linearGradient id="h" x1="61.11" y1="42.22" x2="78.57" y2="45.3" gradientUnits="userSpaceOnUse"><stop offset=".05" stop-color="#c1bbca"/><stop offset=".14" stop-color="#b9b3c4"/><stop offset=".43" stop-color="#a69eb4"/><stop offset=".72" stop-color="#9b92aa"/><stop offset="1" stop-color="#978ea7"/></linearGradient></defs><title>3-update_</title><path fill="url(#a)" d="M62.54 60L49.27 0 0 60h62.54"/><path fill="url(#b)" d="M98.76 60L49.27 0l12.89 60h36.6z"/><path fill="url(#c)" d="M14.81 60H0l28.43-34.62L14.81 60z"/><path fill="url(#d)" d="M49.27 0L41 22.37l17.75 21.68"/><path fill="url(#e)" d="M58.6 11.31l11.84 33.17 27.2 14.17"/><path fill="url(#f)" d="M62.12 60H14.37l18.58-4.03L41 22.49l17.75 21.56L62.12 60z"/><path fill="url(#g)" d="M50.35 33.75L53.87 60h8.29l-3.41-15.95-8.4-10.3z"/><path fill="url(#h)" d="M68.54 60h7.44L63.93 26.25 68.54 60z"/></svg>