<svg viewBox="0 0 100 90" xmlns="http://www.w3.org/2000/svg"><title>Key_5_5_1</title><defs><linearGradient x1="100%" y1="49.994%" x2="0%" y2="49.994%" id="a"><stop stop-color="#4793BE" offset="5%"/><stop stop-color="#4188B0" offset="13%"/><stop stop-color="#39789B" offset="29%"/><stop stop-color="#336C8C" offset="47%"/><stop stop-color="#306583" offset="68%"/><stop stop-color="#2F6380" offset="100%"/></linearGradient><linearGradient x1="51.889%" y1="49.406%" x2="-7.335%" y2="68.204%" id="b"><stop stop-color="#90BED8" offset="34%"/><stop stop-color="#89BAD5" offset="38%"/><stop stop-color="#65A5C9" offset="65%"/><stop stop-color="#4F98C1" offset="86%"/><stop stop-color="#4793BE" offset="100%"/></linearGradient><linearGradient x1="34.355%" y1="42.817%" x2="76.017%" y2="61.951%" id="c"><stop stop-color="#91BFD9" offset="5%"/><stop stop-color="#8FBDD7" offset="6%"/><stop stop-color="#6C9DB8" offset="24%"/><stop stop-color="#51839F" offset="42%"/><stop stop-color="#3E718E" offset="61%"/><stop stop-color="#336783" offset="80%"/><stop stop-color="#2F6380" offset="100%"/></linearGradient><linearGradient x1="0%" y1="49.989%" y2="49.989%" id="d"><stop stop-color="#91BFD9" offset="5%"/><stop stop-color="#7AA9C4" offset="14%"/><stop stop-color="#5F90AB" offset="26%"/><stop stop-color="#4A7C98" offset="40%"/><stop stop-color="#3B6E8A" offset="55%"/><stop stop-color="#326682" offset="73%"/><stop stop-color="#2F6380" offset="100%"/></linearGradient><linearGradient x1="-.032%" y1="50%" y2="50%" id="e"><stop stop-color="#91BFD9" offset="5%"/><stop stop-color="#77B0D0" offset="19%"/><stop stop-color="#62A3C8" offset="34%"/><stop stop-color="#539BC3" offset="50%"/><stop stop-color="#4A96C0" offset="70%"/><stop stop-color="#4794BF" offset="100%"/></linearGradient><linearGradient x1="10.857%" y1="41.601%" x2="111.314%" y2="54.225%" id="f"><stop stop-color="#4794BF" offset="5%"/><stop stop-color="#4693BD" offset="6%"/><stop stop-color="#3C7EA2" offset="29%"/><stop stop-color="#356F8F" offset="52%"/><stop stop-color="#306684" offset="75%"/><stop stop-color="#2F6380" offset="100%"/></linearGradient><linearGradient x1="-32.509%" y1="46.349%" x2="132.509%" y2="53.669%" id="g"><stop stop-color="#91BFD9" offset="5%"/><stop stop-color="#70A0BB" offset="23%"/><stop stop-color="#5486A1" offset="42%"/><stop stop-color="#3F728F" offset="62%"/><stop stop-color="#336784" offset="81%"/><stop stop-color="#2F6380" offset="100%"/></linearGradient><linearGradient x1="-24.281%" y1="47.747%" x2="122.032%" y2="56.697%" id="h"><stop stop-color="#91BFD9" offset="5%"/><stop stop-color="#88BAD6" offset="11%"/><stop stop-color="#6CA9CC" offset="33%"/><stop stop-color="#579EC5" offset="56%"/><stop stop-color="#4B96C0" offset="78%"/><stop stop-color="#4794BF" offset="100%"/></linearGradient></defs><g fill-rule="nonzero" fill="none"><path fill="url(#a)" d="M63.04 90.01L49.77 0 .5 90.01h62.54"/><path fill="url(#b)" d="M99.26 90.01L49.77 0l12.89 90.01z"/><path fill="url(#c)" d="M15.32 79.37L.96 89.14l34.9-63.76z"/><path fill="url(#d)" d="M49.77 0L41.5 22.37l14.77 22.58"/><path fill="url(#e)" d="M55.94 11.21l15 43.27 16.6 14.17"/><path fill="url(#f)" d="M63.03 90.06L14.86 80.3l18.58-14.33 8.05-43.48 14.77 22.57z"/><path fill="url(#g)" d="M48.89 33.77l4.35 54.31 9.8 1.98-6.77-45z"/><path fill="url(#h)" d="M66.53 90.01L83.26 90 61.02 25.88z"/></g></svg>