<svg data-name="Ebene 1" xmlns="http://www.w3.org/2000/svg" viewBox="0 0 98.76 70"><defs><linearGradient id="a" x1="62.54" y1="35" x2="0" y2="35" gradientUnits="userSpaceOnUse"><stop offset=".05" stop-color="#978ea7"/><stop offset=".19" stop-color="#898197"/><stop offset=".4" stop-color="#7b7589"/><stop offset=".64" stop-color="#736d80"/><stop offset="1" stop-color="#716b7d"/></linearGradient><linearGradient id="b" x1="77.42" y1="33.04" x2="49.97" y2="48.89" gradientUnits="userSpaceOnUse"><stop offset=".34" stop-color="#c1bbca"/><stop offset=".5" stop-color="#b3acbe"/><stop offset=".81" stop-color="#9e96ad"/><stop offset="1" stop-color="#978ea7"/></linearGradient><linearGradient id="c" x1="13.93" y1="46.2" x2="26.17" y2="56.47" gradientUnits="userSpaceOnUse"><stop offset=".05" stop-color="#c1bbca"/><stop offset=".17" stop-color="#aea8b8"/><stop offset=".37" stop-color="#938d9e"/><stop offset=".57" stop-color="#807a8c"/><stop offset=".78" stop-color="#756f81"/><stop offset="1" stop-color="#716b7d"/></linearGradient><linearGradient id="d" x1="41" y1="22.47" x2="57.55" y2="22.47" gradientUnits="userSpaceOnUse"><stop offset=".05" stop-color="#c1bbca"/><stop offset=".07" stop-color="#bcb6c5"/><stop offset=".21" stop-color="#a19bab"/><stop offset=".35" stop-color="#8c8697"/><stop offset=".52" stop-color="#7d7788"/><stop offset=".71" stop-color="#746e80"/><stop offset="1" stop-color="#716b7d"/></linearGradient><linearGradient id="e" x1="57.27" y1="39.98" x2="97.8" y2="39.98" gradientUnits="userSpaceOnUse"><stop offset=".05" stop-color="#c1bbca"/><stop offset=".21" stop-color="#b0a8bc"/><stop offset=".41" stop-color="#a29ab0"/><stop offset=".64" stop-color="#9a91a9"/><stop offset="1" stop-color="#978ea7"/></linearGradient><linearGradient id="f" x1="18.83" y1="44.68" x2="65.14" y2="52.85" gradientUnits="userSpaceOnUse"><stop offset=".05" stop-color="#978ea7"/><stop offset=".07" stop-color="#958da5"/><stop offset=".4" stop-color="#817a8f"/><stop offset=".72" stop-color="#756f82"/><stop offset="1" stop-color="#716b7d"/></linearGradient></defs><title>3-update_</title><path fill="url(#a)" d="M62.54 70L49.27 0 0 70h62.54"/><path fill="url(#b)" d="M98.76 70L49.27 0l12.89 70h36.6z"/><path fill="url(#c)" d="M14.81 70H0l31.41-44.62L14.81 70z"/><path fill="url(#d)" d="M49.27 0L41 22.37l16.55 22.58"/><path fill="url(#e)" d="M57.27 11.31l13.17 38.17 27.37 19.17"/><path fill="url(#f)" d="M62.12 70H14.37l18.58-4.03L41 22.49l16.55 22.46L62.12 70z"/></svg>