<svg width="100" height="70" viewBox="0 0 100 70" xmlns="http://www.w3.org/2000/svg"><title>Key_1_3_1</title><defs><linearGradient x1="100%" y1="50%" x2="0%" y2="50%" id="a"><stop stop-color="#7D1026" offset="5%"/><stop stop-color="#6D0E22" offset="19%"/><stop stop-color="#5F0C1D" offset="40%"/><stop stop-color="#560B1B" offset="64%"/><stop stop-color="#530B1A" offset="100%"/></linearGradient><linearGradient x1="56.88%" y1="47.2%" x2="1.414%" y2="69.843%" id="b"><stop stop-color="#A61533" offset="34%"/><stop stop-color="#9B1430" offset="47%"/><stop stop-color="#851129" offset="79%"/><stop stop-color="#7D1026" offset="100%"/></linearGradient><linearGradient x1="44.349%" y1="46.661%" x2="83.317%" y2="69.677%" id="c"><stop stop-color="#A61533" offset="5%"/><stop stop-color="#9F1431" offset="13%"/><stop stop-color="#8C122B" offset="41%"/><stop stop-color="#811027" offset="70%"/><stop stop-color="#7D1026" offset="100%"/></linearGradient><linearGradient x1="0%" y1="49.989%" y2="49.989%" id="d"><stop stop-color="#A61533" offset="5%"/><stop stop-color="#9E1431" offset="8%"/><stop stop-color="#831128" offset="22%"/><stop stop-color="#6E0E22" offset="36%"/><stop stop-color="#5F0C1D" offset="52%"/><stop stop-color="#560B1B" offset="71%"/><stop stop-color="#530B1A" offset="100%"/></linearGradient><linearGradient x1="0%" y1="50%" x2="99.975%" y2="50%" id="e"><stop stop-color="#A61533" offset="5%"/><stop stop-color="#97132E" offset="19%"/><stop stop-color="#89112A" offset="39%"/><stop stop-color="#801027" offset="63%"/><stop stop-color="#7D1026" offset="100%"/></linearGradient><linearGradient x1="9.361%" y1="46.735%" x2="106.346%" y2="63.867%" id="f"><stop stop-color="#A61533" offset="5%"/><stop stop-color="#91122D" offset="34%"/><stop stop-color="#590C1C" offset="93%"/><stop stop-color="#530B1A" offset="100%"/></linearGradient><linearGradient x1="-23.813%" y1="47.679%" x2="121.556%" y2="56.715%" id="g"><stop stop-color="#A61533" offset="5%"/><stop stop-color="#94132E" offset="16%"/><stop stop-color="#780F25" offset="37%"/><stop stop-color="#630D1F" offset="58%"/><stop stop-color="#570B1B" offset="79%"/><stop stop-color="#530B1A" offset="100%"/></linearGradient><linearGradient x1="-24.14%" y1="47.314%" x2="122.288%" y2="56.251%" id="h"><stop stop-color="#A61533" offset="5%"/><stop stop-color="#A21432" offset="10%"/><stop stop-color="#8D122B" offset="40%"/><stop stop-color="#811127" offset="71%"/><stop stop-color="#7D1026" offset="100%"/></linearGradient></defs><g fill-rule="nonzero" fill="none"><path fill="url(#a)" d="M62.54 70L49.27 0 0 70h62.54" transform="translate(.5)"/><path fill="url(#b)" d="M98.76 70L49.27 0l12.89 70z" transform="translate(.5)"/><path fill="url(#c)" d="M14.81 70H0l31.41-44.62z" transform="translate(.5)"/><path fill="url(#d)" d="M49.27 0L41 22.37l16.55 22.58" transform="translate(.5)"/><path fill="url(#e)" d="M57.27 11.31l13.17 38.17 27.37 19.17" transform="translate(.5)"/><path fill="url(#f)" d="M62.12 70H14.37l18.58-4.03L41 22.37l16.55 22.58z" transform="translate(.5)"/><path fill="url(#g)" d="M49.27 33.59L52.79 70h9.33l-4.57-25.05z" transform="translate(.5)"/><path fill="url(#h)" d="M68.4 70h9.14L62.42 26.25z" transform="translate(.5)"/></g></svg>