<svg viewBox="0 0 100 80" xmlns="http://www.w3.org/2000/svg"><title>Key_2_4_1</title><defs><linearGradient x1="100%" y1="50%" x2="0%" y2="50%" id="a"><stop stop-color="#A6475B" offset="5%"/><stop stop-color="#9F4457" offset="10%"/><stop stop-color="#8A3B4B" offset="26%"/><stop stop-color="#7B3443" offset="45%"/><stop stop-color="#72303E" offset="67%"/><stop stop-color="#6F2F3D" offset="100%"/></linearGradient><linearGradient x1="52.495%" y1="49.112%" x2="-2.97%" y2="68.925%" id="b"><stop stop-color="#DD5E79" offset="34%"/><stop stop-color="#C4546B" offset="57%"/><stop stop-color="#AE4A5F" offset="83%"/><stop stop-color="#A6475B" offset="100%"/></linearGradient><linearGradient x1="11.127%" y1="47.559%" x2="108.115%" y2="61.751%" id="c"><stop stop-color="#A6475B" offset="5%"/><stop stop-color="#974153" offset="20%"/><stop stop-color="#813747" offset="48%"/><stop stop-color="#74313F" offset="76%"/><stop stop-color="#6F2F3D" offset="100%"/></linearGradient><linearGradient x1="40.491%" y1="44.951%" x2="84.595%" y2="68.408%" id="d"><stop stop-color="#DD5E79" offset="5%"/><stop stop-color="#CF5871" offset="11%"/><stop stop-color="#AC495E" offset="28%"/><stop stop-color="#913E50" offset="46%"/><stop stop-color="#7E3645" offset="63%"/><stop stop-color="#73313F" offset="81%"/><stop stop-color="#6F2F3D" offset="100%"/></linearGradient><linearGradient x1="0%" y1="50%" y2="50%" id="e"><stop stop-color="#DD5E79" offset="5%"/><stop stop-color="#D65B75" offset="10%"/><stop stop-color="#C15269" offset="26%"/><stop stop-color="#B24C61" offset="45%"/><stop stop-color="#A9485C" offset="67%"/><stop stop-color="#A6475B" offset="100%"/></linearGradient><linearGradient x1="-27.649%" y1="46.003%" x2="127.649%" y2="54.018%" id="f"><stop stop-color="#DD5E79" offset="5%"/><stop stop-color="#D55B75" offset="9%"/><stop stop-color="#B14B61" offset="27%"/><stop stop-color="#943F51" offset="46%"/><stop stop-color="#7F3646" offset="64%"/><stop stop-color="#73313F" offset="82%"/><stop stop-color="#6F2F3D" offset="100%"/></linearGradient><linearGradient x1="0%" y1="49.989%" x2="99.936%" y2="49.989%" id="g"><stop stop-color="#DD5E79" offset="5%"/><stop stop-color="#DB5D78" offset="6%"/><stop stop-color="#BA4F66" offset="17%"/><stop stop-color="#9F4357" offset="29%"/><stop stop-color="#8A3A4B" offset="42%"/><stop stop-color="#7B3443" offset="57%"/><stop stop-color="#72303E" offset="74%"/><stop stop-color="#6F2F3D" offset="100%"/></linearGradient><linearGradient x1="-24.446%" y1="47.6%" x2="122.228%" y2="56.492%" id="h"><stop stop-color="#DD5E79" offset="5%"/><stop stop-color="#CB566F" offset="23%"/><stop stop-color="#B64E64" offset="49%"/><stop stop-color="#AA495D" offset="75%"/><stop stop-color="#A6475B" offset="100%"/></linearGradient></defs><g fill-rule="nonzero" fill="none"><path fill="url(#a)" d="M63.52 80L50.26 0 .98 80h62.54"/><path fill="url(#b)" d="M99.75 80L50.26 0l12.89 80z"/><path fill="url(#c)" d="M63.15 80H15.34l18.58-14.08 8.06-43.49L57.55 45z"/><path fill="url(#d)" d="M14.79 80H0l34.6-54.57z"/><path fill="url(#e)" d="M57.28 11.36L72.4 54.52l20.28 14.04"/><path fill="url(#f)" d="M49.37 32.96l4.36 45.06L63.15 80l-5.6-35z"/><path fill="url(#g)" d="M50.26 0l-8.27 22.36 15.56 22.57"/><path fill="url(#h)" d="M68.22 80.06L81.19 80 62.7 26.3z"/></g></svg>