<svg id="Ebene_1" data-name="Ebene 1" xmlns="http://www.w3.org/2000/svg" xmlns:xlink="http://www.w3.org/1999/xlink" viewBox="0 0 98.76 80.01"><defs><style>.cls-1{fill:url(#_4_DARK);}.cls-2{fill:url(#_4_LIGHT);}.cls-3{fill:url(#Unbenannter_Verlauf_69);}.cls-4{fill:url(#Unbenannter_Verlauf_65);}.cls-5{fill:url(#Unbenannter_Verlauf_63);}.cls-6{fill:url(#Unbenannter_Verlauf_67);}</style><linearGradient id="_4_DARK" x1="62.54" y1="40" x2="0" y2="40" gradientUnits="userSpaceOnUse"><stop offset="0.05" stop-color="#5a7ebc"/><stop offset="0.14" stop-color="#5374ad"/><stop offset="0.3" stop-color="#496698"/><stop offset="0.48" stop-color="#415c89"/><stop offset="0.68" stop-color="#3d5680"/><stop offset="1" stop-color="#3c547d"/></linearGradient><linearGradient id="_4_LIGHT" x1="75.26" y1="39.29" x2="47.81" y2="55.14" gradientUnits="userSpaceOnUse"><stop offset="0.34" stop-color="#9cb2d7"/><stop offset="0.34" stop-color="#9cb2d7"/><stop offset="0.62" stop-color="#7896c8"/><stop offset="0.85" stop-color="#6284bf"/><stop offset="1" stop-color="#5a7ebc"/></linearGradient><linearGradient id="Unbenannter_Verlauf_69" x1="13.24" y1="49.69" x2="29.09" y2="62.98" gradientUnits="userSpaceOnUse"><stop offset="0.05" stop-color="#9cb2d7"/><stop offset="0.05" stop-color="#9cb2d7"/><stop offset="0.23" stop-color="#7990b6"/><stop offset="0.42" stop-color="#5e769d"/><stop offset="0.61" stop-color="#4b638b"/><stop offset="0.8" stop-color="#405881"/><stop offset="1" stop-color="#3c547d"/></linearGradient><linearGradient id="Unbenannter_Verlauf_65" x1="41" y1="22.47" x2="56.51" y2="22.47" gradientUnits="userSpaceOnUse"><stop offset="0.05" stop-color="#9cb2d7"/><stop offset="0.15" stop-color="#8aa3cf"/><stop offset="0.31" stop-color="#7593c7"/><stop offset="0.48" stop-color="#6687c1"/><stop offset="0.69" stop-color="#5d80bd"/><stop offset="1" stop-color="#5a7ebc"/></linearGradient><linearGradient id="Unbenannter_Verlauf_63" x1="56.27" y1="39.98" x2="91.74" y2="39.98" xlink:href="#Unbenannter_Verlauf_65"/><linearGradient id="Unbenannter_Verlauf_67" x1="19.69" y1="49.83" x2="65.99" y2="58" gradientUnits="userSpaceOnUse"><stop offset="0.05" stop-color="#5a7ebc"/><stop offset="0.37" stop-color="#4e6da2"/><stop offset="0.77" stop-color="#415b87"/><stop offset="1" stop-color="#3c547d"/></linearGradient></defs><title>Key_</title><polyline class="cls-1" points="62.54 80 49.27 0 0 80 62.54 80"/><polygon class="cls-2" points="98.76 80 49.27 0 62.16 80 98.76 80"/><polygon class="cls-3" points="14.81 80 0 80 33.64 25.38 14.81 80"/><polyline class="cls-4" points="49.27 0 41 22.37 56.51 44.95"/><polyline class="cls-5" points="56.27 11.31 70.44 54.48 91.74 68.65"/><polygon class="cls-6" points="62.12 80 14.37 80 32.95 65.97 41 22.49 56.51 44.95 62.12 80"/></svg>