<svg width="100" height="80" viewBox="0 0 100 80" xmlns="http://www.w3.org/2000/svg"><title>Key_4_4_2</title><defs><linearGradient x1="100%" y1="50%" x2="0%" y2="50%" id="a"><stop stop-color="#5A7EBC" offset="5%"/><stop stop-color="#5374AD" offset="14%"/><stop stop-color="#496698" offset="30%"/><stop stop-color="#415C89" offset="48%"/><stop stop-color="#3D5680" offset="68%"/><stop stop-color="#3C547D" offset="100%"/></linearGradient><linearGradient x1="52.505%" y1="49.112%" x2="-2.949%" y2="68.925%" id="b"><stop stop-color="#9CB2D7" offset="34%"/><stop stop-color="#9CB2D7" offset="34%"/><stop stop-color="#7896C8" offset="62%"/><stop stop-color="#6284BF" offset="85%"/><stop stop-color="#5A7EBC" offset="100%"/></linearGradient><linearGradient x1="39.376%" y1="44.508%" x2="86.449%" y2="68.839%" id="c"><stop stop-color="#9CB2D7" offset="5%"/><stop stop-color="#9CB2D7" offset="5%"/><stop stop-color="#7990B6" offset="23%"/><stop stop-color="#5E769D" offset="42%"/><stop stop-color="#4B638B" offset="61%"/><stop stop-color="#405881" offset="80%"/><stop stop-color="#3C547D" offset="100%"/></linearGradient><linearGradient x1="0%" y1="49.989%" y2="49.989%" id="d"><stop stop-color="#9CB2D7" offset="5%"/><stop stop-color="#8AA3CF" offset="15%"/><stop stop-color="#7593C7" offset="31%"/><stop stop-color="#6687C1" offset="48%"/><stop stop-color="#5D80BD" offset="69%"/><stop stop-color="#5A7EBC" offset="100%"/></linearGradient><linearGradient x1="27.159%" y1="64.34%" x2="95.465%" y2="28.454%" id="e"><stop stop-color="#9CB2D7" offset="0%"/><stop stop-color="#8AA3CF" offset="15%"/><stop stop-color="#7593C7" offset="31%"/><stop stop-color="#6687C1" offset="48%"/><stop stop-color="#5D80BD" offset="69%"/><stop stop-color="#5A7EBC" offset="100%"/></linearGradient><linearGradient x1="11.141%" y1="47.54%" x2="108.126%" y2="61.746%" id="f"><stop stop-color="#5A7EBC" offset="5%"/><stop stop-color="#4B699C" offset="43%"/><stop stop-color="#405A85" offset="78%"/><stop stop-color="#3C547D" offset="100%"/></linearGradient></defs><g fill="none" fill-rule="evenodd"><path fill="url(#a)" d="M62.78 80L49.51 0 .24 80h62.54"/><path fill="url(#b)" d="M99.01 80L49.51 0l12.9 80z"/><path fill="url(#c)" d="M15.05 80H.24l33.65-54.62z"/><path fill="url(#d)" d="M49.51 0l-8.27 22.37 15.51 22.58"/><path fill="url(#e)" d="M56.51 11.31l14.17 43.17 21.3 14.17"/><path fill="url(#f)" d="M62.36 80H14.61l18.58-14.03 8.05-43.48 15.51 22.46z"/></g></svg>