<svg data-name="Ebene 2" xmlns="http://www.w3.org/2000/svg" viewBox="0 0 98.76 60"><defs><linearGradient id="a" x1="62.54" y1="30" x2="0" y2="30" gradientUnits="userSpaceOnUse"><stop offset=".05" stop-color="#536498"/><stop offset=".07" stop-color="#516295"/><stop offset=".24" stop-color="#465480"/><stop offset=".44" stop-color="#3e4a71"/><stop offset=".66" stop-color="#394568"/><stop offset="1" stop-color="#384365"/></linearGradient><linearGradient id="b" x1="79.59" y1="26.79" x2="52.14" y2="42.63" gradientUnits="userSpaceOnUse"><stop offset=".34" stop-color="#6f86ca"/><stop offset=".54" stop-color="#6478b6"/><stop offset=".82" stop-color="#5769a0"/><stop offset="1" stop-color="#536498"/></linearGradient><linearGradient id="c" x1="14.03" y1="42.54" x2="23.09" y2="50.13" gradientUnits="userSpaceOnUse"><stop offset=".05" stop-color="#6f86ca"/><stop offset=".07" stop-color="#6c82c5"/><stop offset=".25" stop-color="#596ca2"/><stop offset=".43" stop-color="#4b5a87"/><stop offset=".62" stop-color="#404d74"/><stop offset=".8" stop-color="#3a4669"/><stop offset="1" stop-color="#384365"/></linearGradient><linearGradient id="d" x1="41" y1="22.02" x2="58.75" y2="22.02" gradientUnits="userSpaceOnUse"><stop offset=".05" stop-color="#6f86ca"/><stop offset=".14" stop-color="#6175b0"/><stop offset=".27" stop-color="#526395"/><stop offset=".4" stop-color="#465580"/><stop offset=".56" stop-color="#3e4b71"/><stop offset=".73" stop-color="#394568"/><stop offset="1" stop-color="#384365"/></linearGradient><linearGradient id="e" x1="58.6" y1="34.98" x2="97.64" y2="34.98" gradientUnits="userSpaceOnUse"><stop offset=".05" stop-color="#6f86ca"/><stop offset=".07" stop-color="#6e84c7"/><stop offset=".24" stop-color="#6276b2"/><stop offset=".43" stop-color="#596ca4"/><stop offset=".66" stop-color="#55669b"/><stop offset="1" stop-color="#536498"/></linearGradient><linearGradient id="f" x1="17.98" y1="39.53" x2="64.28" y2="47.7" gradientUnits="userSpaceOnUse"><stop offset=".05" stop-color="#536498"/><stop offset=".21" stop-color="#4a5987"/><stop offset=".47" stop-color="#404d74"/><stop offset=".73" stop-color="#3a4569"/><stop offset="1" stop-color="#384365"/></linearGradient></defs><title>5-update_</title><path fill="url(#a)" d="M62.54 60L49.27 0 0 60h62.54"/><path fill="url(#b)" d="M98.76 60L49.27 0l12.89 60h36.6z"/><path fill="url(#c)" d="M14.81 60H0l28.43-34.62L14.81 60z"/><path fill="url(#d)" d="M49.27 0L41 22.37l17.75 21.68"/><path fill="url(#e)" d="M58.6 11.31l11.84 33.17 27.2 14.17"/><path fill="url(#f)" d="M62.12 60H14.37l18.58-4.03L41 22.49l17.75 21.56L62.12 60z"/></svg>