<svg id="Ebene_1" data-name="Ebene 1" xmlns="http://www.w3.org/2000/svg" xmlns:xlink="http://www.w3.org/1999/xlink" viewBox="0 0 98.76 90.06"><defs><style>.cls-1{fill:url(#_4_DARK);}.cls-2{fill:url(#_4_LIGHT);}.cls-3{fill:url(#Unbenannter_Verlauf_67);}.cls-4{fill:url(#Unbenannter_Verlauf_69);}.cls-5{fill:url(#Unbenannter_Verlauf_65);}.cls-6{fill:url(#Unbenannter_Verlauf_63);}</style><linearGradient id="_4_DARK" x1="62.54" y1="45" x2="0" y2="45" gradientUnits="userSpaceOnUse"><stop offset="0.05" stop-color="#5a7ebc"/><stop offset="0.14" stop-color="#5374ad"/><stop offset="0.3" stop-color="#496698"/><stop offset="0.48" stop-color="#415c89"/><stop offset="0.68" stop-color="#3d5680"/><stop offset="1" stop-color="#3c547d"/></linearGradient><linearGradient id="_4_LIGHT" x1="74.95" y1="44.47" x2="45.64" y2="61.39" gradientUnits="userSpaceOnUse"><stop offset="0.34" stop-color="#9cb2d7"/><stop offset="0.34" stop-color="#9cb2d7"/><stop offset="0.62" stop-color="#7896c8"/><stop offset="0.85" stop-color="#6284bf"/><stop offset="1" stop-color="#5a7ebc"/></linearGradient><linearGradient id="Unbenannter_Verlauf_67" x1="19.6" y1="50.6" x2="67.99" y2="59.13" gradientUnits="userSpaceOnUse"><stop offset="0.05" stop-color="#5a7ebc"/><stop offset="0.37" stop-color="#4e6da2"/><stop offset="0.77" stop-color="#415b87"/><stop offset="1" stop-color="#3c547d"/></linearGradient><linearGradient id="Unbenannter_Verlauf_69" x1="12.43" y1="52.68" x2="26.97" y2="64.88" gradientUnits="userSpaceOnUse"><stop offset="0.05" stop-color="#9cb2d7"/><stop offset="0.05" stop-color="#9cb2d7"/><stop offset="0.23" stop-color="#7990b6"/><stop offset="0.42" stop-color="#5e769d"/><stop offset="0.61" stop-color="#4b638b"/><stop offset="0.8" stop-color="#405881"/><stop offset="1" stop-color="#3c547d"/></linearGradient><linearGradient id="Unbenannter_Verlauf_65" x1="41" y1="22.47" x2="55.77" y2="22.47" gradientUnits="userSpaceOnUse"><stop offset="0.05" stop-color="#9cb2d7"/><stop offset="0.15" stop-color="#8aa3cf"/><stop offset="0.31" stop-color="#7593c7"/><stop offset="0.48" stop-color="#6687c1"/><stop offset="0.69" stop-color="#5d80bd"/><stop offset="1" stop-color="#5a7ebc"/></linearGradient><linearGradient id="Unbenannter_Verlauf_63" x1="55.49" y1="39.98" x2="87.04" y2="39.98" xlink:href="#Unbenannter_Verlauf_65"/></defs><title>Key_</title><polyline class="cls-1" points="62.54 90.01 49.27 0 0 90.01 62.54 90.01"/><polyline class="cls-2" points="98.76 90.01 49.27 0 62.16 90.01 96.71 90.01"/><polygon class="cls-3" points="62.54 90.06 14.37 80.3 32.95 65.97 41 22.49 55.77 45.06 62.54 90.06"/><polygon class="cls-4" points="14.81 79.37 0.44 89.14 35.34 25.38 14.81 79.37"/><polyline class="cls-5" points="49.27 0 41 22.37 55.77 44.95"/><polyline class="cls-6" points="55.49 11.31 70.44 54.48 87.04 68.65"/></svg>