<svg viewBox="0 0 100 50" xmlns="http://www.w3.org/2000/svg"><title>Key_4_1_1</title><defs><linearGradient x1="100%" y1="50%" x2="0%" y2="50%" id="a"><stop stop-color="#5A7EBC" offset="5%"/><stop stop-color="#5374AD" offset="14%"/><stop stop-color="#496698" offset="30%"/><stop stop-color="#415C89" offset="48%"/><stop stop-color="#3D5680" offset="68%"/><stop stop-color="#3C547D" offset="100%"/></linearGradient><linearGradient x1="65.616%" y1="41.08%" x2="10.162%" y2="72.76%" id="b"><stop stop-color="#9CB2D7" offset="34%"/><stop stop-color="#9CB2D7" offset="34%"/><stop stop-color="#7896C8" offset="62%"/><stop stop-color="#6284BF" offset="85%"/><stop stop-color="#5A7EBC" offset="100%"/></linearGradient><linearGradient x1="45.619%" y1="46.344%" x2="81.366%" y2="75.955%" id="c"><stop stop-color="#9CB2D7" offset="5%"/><stop stop-color="#9CB2D7" offset="5%"/><stop stop-color="#7990B6" offset="23%"/><stop stop-color="#5E769D" offset="42%"/><stop stop-color="#4B638B" offset="61%"/><stop stop-color="#405881" offset="80%"/><stop stop-color="#3C547D" offset="100%"/></linearGradient><linearGradient x1="5%" y1="49.986%" y2="49.986%" id="d"><stop stop-color="#9CB2D7" offset="0%"/><stop stop-color="#8AA3CF" offset="15%"/><stop stop-color="#7593C7" offset="31%"/><stop stop-color="#6687C1" offset="48%"/><stop stop-color="#5D80BD" offset="69%"/><stop stop-color="#5A7EBC" offset="100%"/></linearGradient><linearGradient x1="27.159%" y1="64.34%" x2="80.718%" y2="16.634%" id="e"><stop stop-color="#9CB2D7" offset="0%"/><stop stop-color="#8AA3CF" offset="15%"/><stop stop-color="#7593C7" offset="31%"/><stop stop-color="#6687C1" offset="48%"/><stop stop-color="#5D80BD" offset="69%"/><stop stop-color="#5A7EBC" offset="100%"/></linearGradient><linearGradient x1="5.78%" y1="43.286%" x2="102.764%" y2="72.819%" id="f"><stop stop-color="#5A7EBC" offset="5%"/><stop stop-color="#4B699C" offset="43%"/><stop stop-color="#405A85" offset="78%"/><stop stop-color="#3C547D" offset="100%"/></linearGradient><linearGradient x1="-14.897%" y1="47.353%" x2="112.578%" y2="59.94%" id="g"><stop stop-color="#9CB2D7" offset="5%"/><stop stop-color="#7D94BA" offset="22%"/><stop stop-color="#6178A0" offset="42%"/><stop stop-color="#4C648C" offset="61%"/><stop stop-color="#405881" offset="81%"/><stop stop-color="#3C547D" offset="100%"/></linearGradient><linearGradient x1="-19.167%" y1="46.94%" x2="117.425%" y2="57.376%" id="h"><stop stop-color="#9CB2D7" offset="5%"/><stop stop-color="#91A9D3" offset="18%"/><stop stop-color="#698AC2" offset="72%"/><stop stop-color="#5A7EBC" offset="100%"/></linearGradient></defs><g fill="none" fill-rule="evenodd"><path fill="url(#a)" d="M62.41 50L49.51 0 .24 50z"/><path fill="url(#b)" d="M99.01 50L49.51 0l12.9 50z"/><path fill="url(#c)" d="M15.05 50H.24l24.31-24.62z"/><path fill="url(#d)" d="M49.51 0l-8.27 22.37 17.41 13.36"/><path fill="url(#e)" d="M60.63 11.31l10.05 23.16 26.98 14.18"/><path fill="url(#f)" d="M62.36 50H14.61l18.58-4.03 8.05-23.6 17.41 13.36z"/><path fill="url(#g)" d="M51.2 29.98L53.89 50h8.52l-3.76-14.27z"/><path fill="url(#h)" d="M71.39 50h6.02L67.08 26.14z"/></g></svg>