<svg width="100" height="80" viewBox="0 0 100 80" xmlns="http://www.w3.org/2000/svg"><title>Key_3_4_1</title><defs><linearGradient x1="100%" y1="50%" x2="0%" y2="50%" id="a"><stop stop-color="#B0557F" offset="5%"/><stop stop-color="#A55077" offset="12%"/><stop stop-color="#904667" offset="28%"/><stop stop-color="#813E5C" offset="46%"/><stop stop-color="#783A56" offset="68%"/><stop stop-color="#753954" offset="100%"/></linearGradient><linearGradient x1="52.495%" y1="49.112%" x2="-2.97%" y2="68.925%" id="b"><stop stop-color="#D099B2" offset="34%"/><stop stop-color="#CF97B0" offset="35%"/><stop stop-color="#BE7396" offset="63%"/><stop stop-color="#B45D85" offset="86%"/><stop stop-color="#B0557F" offset="100%"/></linearGradient><linearGradient x1="11.127%" y1="47.559%" x2="108.115%" y2="61.751%" id="c"><stop stop-color="#B0557F" offset="5%"/><stop stop-color="#9D4C71" offset="23%"/><stop stop-color="#874261" offset="50%"/><stop stop-color="#7A3B57" offset="77%"/><stop stop-color="#753954" offset="100%"/></linearGradient><linearGradient x1="40.491%" y1="44.951%" x2="84.595%" y2="68.408%" id="d"><stop stop-color="#D099B2" offset="5%"/><stop stop-color="#D099B2" offset="5%"/><stop stop-color="#AF7690" offset="23%"/><stop stop-color="#965B76" offset="42%"/><stop stop-color="#834863" offset="61%"/><stop stop-color="#793D58" offset="80%"/><stop stop-color="#753954" offset="100%"/></linearGradient><linearGradient x1="0%" y1="50%" y2="50%" id="e"><stop stop-color="#D099B2" offset="5%"/><stop stop-color="#C685A3" offset="16%"/><stop stop-color="#BC7093" offset="32%"/><stop stop-color="#B56188" offset="49%"/><stop stop-color="#B15881" offset="69%"/><stop stop-color="#B0557F" offset="100%"/></linearGradient><linearGradient x1="-27.649%" y1="46.003%" x2="127.649%" y2="54.018%" id="f"><stop stop-color="#D099B2" offset="5%"/><stop stop-color="#B37A94" offset="22%"/><stop stop-color="#985E78" offset="42%"/><stop stop-color="#854964" offset="61%"/><stop stop-color="#793D58" offset="81%"/><stop stop-color="#753954" offset="100%"/></linearGradient><linearGradient x1="0%" y1="49.989%" y2="49.989%" id="g"><stop stop-color="#D099B2" offset="5%"/><stop stop-color="#BC849D" offset="13%"/><stop stop-color="#A26983" offset="26%"/><stop stop-color="#8E546E" offset="39%"/><stop stop-color="#80455F" offset="55%"/><stop stop-color="#783C57" offset="73%"/><stop stop-color="#753954" offset="100%"/></linearGradient><linearGradient x1="-23.979%" y1="47.684%" x2="121.751%" y2="56.707%" id="h"><stop stop-color="#D099B2" offset="5%"/><stop stop-color="#CF96B0" offset="7%"/><stop stop-color="#C17A9B" offset="30%"/><stop stop-color="#B8658B" offset="54%"/><stop stop-color="#B25982" offset="77%"/><stop stop-color="#B0557F" offset="100%"/></linearGradient></defs><g fill-rule="nonzero" fill="none"><path fill="url(#a)" d="M63.52 80L50.26 0 .98 80h62.54"/><path fill="url(#b)" d="M99.75 80L50.26 0l12.89 80z"/><path fill="url(#c)" d="M63.15 80H15.34l18.58-14.08 8.06-43.49 15.52 22.5z"/><path fill="url(#d)" d="M14.79 80H0l34.6-54.57z"/><path fill="url(#e)" d="M57.28 11.36L72.4 54.52l20.28 14.04"/><path fill="url(#f)" d="M49.37 32.96l4.36 45.06L63.15 80 57.5 44.93z"/><path fill="url(#g)" d="M50.26 0l-8.27 22.36L57.5 44.93"/><path fill="url(#h)" d="M67.53 80h13.82L62.5 26.25z"/></g></svg>