<svg viewBox="0 0 100 70" xmlns="http://www.w3.org/2000/svg"><title>Key_3_3_2</title><defs><linearGradient x1="100%" y1="50%" x2="0%" y2="50%" id="a"><stop stop-color="#B0557F" offset="5%"/><stop stop-color="#A55077" offset="12%"/><stop stop-color="#904667" offset="28%"/><stop stop-color="#813E5C" offset="46%"/><stop stop-color="#783A56" offset="68%"/><stop stop-color="#753954" offset="100%"/></linearGradient><linearGradient x1="56.88%" y1="47.2%" x2="1.414%" y2="69.843%" id="b"><stop stop-color="#D099B2" offset="34%"/><stop stop-color="#CF97B0" offset="35%"/><stop stop-color="#BE7396" offset="63%"/><stop stop-color="#B45D85" offset="86%"/><stop stop-color="#B0557F" offset="100%"/></linearGradient><linearGradient x1="44.349%" y1="46.661%" x2="83.317%" y2="69.677%" id="c"><stop stop-color="#D099B2" offset="5%"/><stop stop-color="#D099B2" offset="5%"/><stop stop-color="#AF7690" offset="23%"/><stop stop-color="#965B76" offset="42%"/><stop stop-color="#834863" offset="61%"/><stop stop-color="#793D58" offset="80%"/><stop stop-color="#753954" offset="100%"/></linearGradient><linearGradient x1="0%" y1="49.989%" y2="49.989%" id="d"><stop stop-color="#D099B2" offset="5%"/><stop stop-color="#BC849D" offset="13%"/><stop stop-color="#A26983" offset="26%"/><stop stop-color="#8E546E" offset="39%"/><stop stop-color="#80455F" offset="55%"/><stop stop-color="#783C57" offset="73%"/><stop stop-color="#753954" offset="100%"/></linearGradient><linearGradient x1="0%" y1="50%" x2="99.975%" y2="50%" id="e"><stop stop-color="#D099B2" offset="5%"/><stop stop-color="#C685A3" offset="16%"/><stop stop-color="#BC7093" offset="32%"/><stop stop-color="#B56188" offset="49%"/><stop stop-color="#B15881" offset="69%"/><stop stop-color="#B0557F" offset="100%"/></linearGradient><linearGradient x1="9.34%" y1="46.706%" x2="106.325%" y2="63.902%" id="f"><stop stop-color="#B0557F" offset="5%"/><stop stop-color="#9D4C71" offset="23%"/><stop stop-color="#874261" offset="50%"/><stop stop-color="#7A3B57" offset="77%"/><stop stop-color="#753954" offset="100%"/></linearGradient></defs><g fill-rule="nonzero" fill="none"><path fill="url(#a)" d="M62.54 70L49.27 0 0 70h62.54" transform="translate(.5)"/><path fill="url(#b)" d="M98.76 70L49.27 0l12.89 70z" transform="translate(.5)"/><path fill="url(#c)" d="M14.81 70H0l31.41-44.62z" transform="translate(.5)"/><path fill="url(#d)" d="M49.27 0L41 22.37l16.55 22.58" transform="translate(.5)"/><path fill="url(#e)" d="M57.27 11.31l13.17 38.17 27.37 19.17" transform="translate(.5)"/><path fill="url(#f)" d="M62.12 70H14.37l18.58-4.03L41 22.49l16.55 22.46z" transform="translate(.5)"/></g></svg>