<svg width="100" height="80" viewBox="0 0 100 80" xmlns="http://www.w3.org/2000/svg"><title>Key_1_4_1</title><defs><linearGradient x1="100%" y1="50%" x2="0%" y2="50%" id="a"><stop stop-color="#7D1026" offset="5%"/><stop stop-color="#6D0E22" offset="19%"/><stop stop-color="#5F0C1D" offset="40%"/><stop stop-color="#560B1B" offset="64%"/><stop stop-color="#530B1A" offset="100%"/></linearGradient><linearGradient x1="52.495%" y1="49.112%" x2="-2.97%" y2="68.925%" id="b"><stop stop-color="#A61533" offset="34%"/><stop stop-color="#9B1430" offset="47%"/><stop stop-color="#851129" offset="79%"/><stop stop-color="#7D1026" offset="100%"/></linearGradient><linearGradient x1="11.148%" y1="47.554%" x2="108.136%" y2="61.745%" id="c"><stop stop-color="#A61533" offset="5%"/><stop stop-color="#91122D" offset="34%"/><stop stop-color="#590C1C" offset="93%"/><stop stop-color="#530B1A" offset="100%"/></linearGradient><linearGradient x1="40.491%" y1="44.951%" x2="84.595%" y2="68.408%" id="d"><stop stop-color="#A61533" offset="5%"/><stop stop-color="#9F1431" offset="13%"/><stop stop-color="#8C122B" offset="41%"/><stop stop-color="#811027" offset="70%"/><stop stop-color="#7D1026" offset="100%"/></linearGradient><linearGradient x1="0%" y1="50%" y2="50%" id="e"><stop stop-color="#A61533" offset="5%"/><stop stop-color="#97132E" offset="19%"/><stop stop-color="#89112A" offset="39%"/><stop stop-color="#801027" offset="63%"/><stop stop-color="#7D1026" offset="100%"/></linearGradient><linearGradient x1="-27.649%" y1="46.003%" x2="127.649%" y2="54.018%" id="f"><stop stop-color="#A61533" offset="5%"/><stop stop-color="#94132E" offset="16%"/><stop stop-color="#780F25" offset="37%"/><stop stop-color="#630D1F" offset="58%"/><stop stop-color="#570B1B" offset="79%"/><stop stop-color="#530B1A" offset="100%"/></linearGradient><linearGradient x1="0%" y1="49.989%" x2="99.936%" y2="49.989%" id="g"><stop stop-color="#A61533" offset="5%"/><stop stop-color="#9E1431" offset="8%"/><stop stop-color="#831128" offset="22%"/><stop stop-color="#6E0E22" offset="36%"/><stop stop-color="#5F0C1D" offset="52%"/><stop stop-color="#560B1B" offset="71%"/><stop stop-color="#530B1A" offset="100%"/></linearGradient><linearGradient x1="-24.378%" y1="47.609%" x2="122.27%" y2="56.521%" id="h"><stop stop-color="#A61533" offset="5%"/><stop stop-color="#A21432" offset="10%"/><stop stop-color="#8D122B" offset="40%"/><stop stop-color="#811127" offset="71%"/><stop stop-color="#7D1026" offset="100%"/></linearGradient></defs><g fill-rule="nonzero" fill="none"><path fill="url(#a)" d="M63.52 80L50.26 0 .98 80h62.54"/><path fill="url(#b)" d="M99.75 80L50.26 0l12.89 80z"/><path fill="url(#c)" d="M63.15 80H15.34l18.58-14.08 8.07-43.56L57.55 45z"/><path fill="url(#d)" d="M14.79 80H0l34.6-54.57z"/><path fill="url(#e)" d="M57.28 11.36L72.4 54.52l20.28 14.04"/><path fill="url(#f)" d="M49.37 32.96l4.36 45.06L63.15 80l-5.6-35z"/><path fill="url(#g)" d="M50.26 0l-8.27 22.36 15.56 22.57"/><path fill="url(#h)" d="M68.19 80h12.98l-18.5-53.75z"/></g></svg>