<svg data-name="Ebene 2" xmlns="http://www.w3.org/2000/svg" viewBox="0 0 98.76 80.01"><defs><linearGradient id="a" x1="62.54" y1="40" x2="0" y2="40" gradientUnits="userSpaceOnUse"><stop offset=".05" stop-color="#536498"/><stop offset=".07" stop-color="#516295"/><stop offset=".24" stop-color="#465480"/><stop offset=".44" stop-color="#3e4a71"/><stop offset=".66" stop-color="#394568"/><stop offset="1" stop-color="#384365"/></linearGradient><linearGradient id="b" x1="75.26" y1="39.29" x2="47.81" y2="55.14" gradientUnits="userSpaceOnUse"><stop offset=".34" stop-color="#6f86ca"/><stop offset=".54" stop-color="#6478b6"/><stop offset=".82" stop-color="#5769a0"/><stop offset="1" stop-color="#536498"/></linearGradient><linearGradient id="c" x1="13.24" y1="49.69" x2="29.09" y2="62.98" gradientUnits="userSpaceOnUse"><stop offset=".05" stop-color="#6f86ca"/><stop offset=".07" stop-color="#6c82c5"/><stop offset=".25" stop-color="#596ca2"/><stop offset=".43" stop-color="#4b5a87"/><stop offset=".62" stop-color="#404d74"/><stop offset=".8" stop-color="#3a4669"/><stop offset="1" stop-color="#384365"/></linearGradient><linearGradient id="d" x1="41" y1="22.47" x2="56.51" y2="22.47" gradientUnits="userSpaceOnUse"><stop offset=".05" stop-color="#6f86ca"/><stop offset=".14" stop-color="#6175b0"/><stop offset=".27" stop-color="#526395"/><stop offset=".4" stop-color="#465580"/><stop offset=".56" stop-color="#3e4b71"/><stop offset=".73" stop-color="#394568"/><stop offset="1" stop-color="#384365"/></linearGradient><linearGradient id="e" x1="56.27" y1="39.98" x2="91.74" y2="39.98" gradientUnits="userSpaceOnUse"><stop offset=".05" stop-color="#6f86ca"/><stop offset=".07" stop-color="#6e84c7"/><stop offset=".24" stop-color="#6276b2"/><stop offset=".43" stop-color="#596ca4"/><stop offset=".66" stop-color="#55669b"/><stop offset="1" stop-color="#536498"/></linearGradient><linearGradient id="f" x1="19.69" y1="49.83" x2="65.99" y2="58" gradientUnits="userSpaceOnUse"><stop offset=".05" stop-color="#536498"/><stop offset=".21" stop-color="#4a5987"/><stop offset=".47" stop-color="#404d74"/><stop offset=".73" stop-color="#3a4569"/><stop offset="1" stop-color="#384365"/></linearGradient></defs><title>5-update_</title><path fill="url(#a)" d="M62.54 80L49.27 0 0 80h62.54"/><path fill="url(#b)" d="M98.76 80L49.27 0l12.89 80h36.6z"/><path fill="url(#c)" d="M14.81 80H0l33.64-54.62L14.81 80z"/><path fill="url(#d)" d="M49.27 0L41 22.37l15.51 22.58"/><path fill="url(#e)" d="M56.27 11.31l14.17 43.17 21.3 14.17"/><path fill="url(#f)" d="M62.12 80H14.37l18.58-14.03L41 22.49l15.51 22.46L62.12 80z"/></svg>