<svg width="100" height="80" viewBox="0 0 100 80" xmlns="http://www.w3.org/2000/svg"><title>Key_5_4_2</title><defs><linearGradient x1="100%" y1="50%" x2="0%" y2="50%" id="a"><stop stop-color="#4793BE" offset="5%"/><stop stop-color="#4188B0" offset="13%"/><stop stop-color="#39789B" offset="29%"/><stop stop-color="#336C8C" offset="47%"/><stop stop-color="#306583" offset="68%"/><stop stop-color="#2F6380" offset="100%"/></linearGradient><linearGradient x1="52.516%" y1="49.112%" x2="-2.95%" y2="68.925%" id="b"><stop stop-color="#90BED8" offset="34%"/><stop stop-color="#89BAD5" offset="38%"/><stop stop-color="#65A5C9" offset="65%"/><stop stop-color="#4F98C1" offset="86%"/><stop stop-color="#4793BE" offset="100%"/></linearGradient><linearGradient x1="39.358%" y1="44.508%" x2="86.474%" y2="68.839%" id="c"><stop stop-color="#91BFD9" offset="5%"/><stop stop-color="#8FBDD7" offset="6%"/><stop stop-color="#6C9DB8" offset="24%"/><stop stop-color="#51839F" offset="42%"/><stop stop-color="#3E718E" offset="61%"/><stop stop-color="#336783" offset="80%"/><stop stop-color="#2F6380" offset="100%"/></linearGradient><linearGradient x1="0%" y1="49.989%" y2="49.989%" id="d"><stop stop-color="#91BFD9" offset="5%"/><stop stop-color="#7AA9C4" offset="14%"/><stop stop-color="#5F90AB" offset="26%"/><stop stop-color="#4A7C98" offset="40%"/><stop stop-color="#3B6E8A" offset="55%"/><stop stop-color="#326682" offset="73%"/><stop stop-color="#2F6380" offset="100%"/></linearGradient><linearGradient x1="0%" y1="50%" y2="50%" id="e"><stop stop-color="#91BFD9" offset="5%"/><stop stop-color="#77B0D0" offset="19%"/><stop stop-color="#62A3C8" offset="34%"/><stop stop-color="#539BC3" offset="50%"/><stop stop-color="#4A96C0" offset="70%"/><stop stop-color="#4794BF" offset="100%"/></linearGradient><linearGradient x1="11.141%" y1="47.54%" x2="108.105%" y2="61.746%" id="f"><stop stop-color="#4794BF" offset="5%"/><stop stop-color="#4693BD" offset="6%"/><stop stop-color="#3C7EA2" offset="29%"/><stop stop-color="#356F8F" offset="52%"/><stop stop-color="#306684" offset="75%"/><stop stop-color="#2F6380" offset="100%"/></linearGradient></defs><g fill-rule="nonzero" fill="none"><path fill="url(#a)" d="M62.54 80L49.27 0 0 80h62.54" transform="translate(.5)"/><path fill="url(#b)" d="M98.76 80L49.27 0l12.89 80z" transform="translate(.5)"/><path fill="url(#c)" d="M14.81 80H0l33.64-54.62z" transform="translate(.5)"/><path fill="url(#d)" d="M49.27 0L41 22.37l15.51 22.58" transform="translate(.5)"/><path fill="url(#e)" d="M56.27 11.31l14.17 43.17 21.3 14.17" transform="translate(.5)"/><path fill="url(#f)" d="M62.12 80H14.37l18.58-14.03L41 22.49l15.51 22.46z" transform="translate(.5)"/></g></svg>