<svg width="100" height="90" viewBox="0 0 100 90" xmlns="http://www.w3.org/2000/svg"><title>Key_3_5_1</title><defs><linearGradient x1="100%" y1="49.994%" x2="0%" y2="49.994%" id="a"><stop stop-color="#B0557F" offset="5%"/><stop stop-color="#A55077" offset="12%"/><stop stop-color="#904667" offset="28%"/><stop stop-color="#813E5C" offset="46%"/><stop stop-color="#783A56" offset="68%"/><stop stop-color="#753954" offset="100%"/></linearGradient><linearGradient x1="51.889%" y1="49.406%" x2="-6.769%" y2="68.015%" id="b"><stop stop-color="#D099B2" offset="34%"/><stop stop-color="#CF97B0" offset="35%"/><stop stop-color="#BE7396" offset="63%"/><stop stop-color="#B45D85" offset="86%"/><stop stop-color="#B0557F" offset="100%"/></linearGradient><linearGradient x1="34.355%" y1="42.817%" x2="76.017%" y2="61.951%" id="c"><stop stop-color="#D099B2" offset="5%"/><stop stop-color="#D099B2" offset="5%"/><stop stop-color="#AF7690" offset="23%"/><stop stop-color="#965B76" offset="42%"/><stop stop-color="#834863" offset="61%"/><stop stop-color="#793D58" offset="80%"/><stop stop-color="#753954" offset="100%"/></linearGradient><linearGradient x1="0%" y1="50%" y2="50%" id="d"><stop stop-color="#D099B2" offset="5%"/><stop stop-color="#BC849D" offset="13%"/><stop stop-color="#A26983" offset="26%"/><stop stop-color="#8E546E" offset="39%"/><stop stop-color="#80455F" offset="55%"/><stop stop-color="#783C57" offset="73%"/><stop stop-color="#753954" offset="100%"/></linearGradient><linearGradient x1="0%" y1="50.009%" y2="50.009%" id="e"><stop stop-color="#D099B2" offset="5%"/><stop stop-color="#C685A3" offset="16%"/><stop stop-color="#BC7093" offset="32%"/><stop stop-color="#B56188" offset="49%"/><stop stop-color="#B15881" offset="69%"/><stop stop-color="#B0557F" offset="100%"/></linearGradient><linearGradient x1="10.876%" y1="41.589%" x2="111.291%" y2="54.232%" id="f"><stop stop-color="#B0557F" offset="5%"/><stop stop-color="#9D4C71" offset="23%"/><stop stop-color="#874261" offset="50%"/><stop stop-color="#7A3B57" offset="77%"/><stop stop-color="#753954" offset="100%"/></linearGradient><linearGradient x1="-32.438%" y1="46.333%" x2="132.438%" y2="53.649%" id="g"><stop stop-color="#D099B2" offset="5%"/><stop stop-color="#B37A94" offset="22%"/><stop stop-color="#985E78" offset="42%"/><stop stop-color="#854964" offset="61%"/><stop stop-color="#793D58" offset="81%"/><stop stop-color="#753954" offset="100%"/></linearGradient><linearGradient x1="-24.277%" y1="47.757%" x2="121.971%" y2="56.713%" id="h"><stop stop-color="#D099B2" offset="5%"/><stop stop-color="#CF96B0" offset="7%"/><stop stop-color="#C17A9B" offset="30%"/><stop stop-color="#B8658B" offset="54%"/><stop stop-color="#B25982" offset="77%"/><stop stop-color="#B0557F" offset="100%"/></linearGradient></defs><g fill-rule="nonzero" fill="none"><path fill="url(#a)" d="M63.04 90.01L49.77 0 .5 90.01h62.54"/><path fill="url(#b)" d="M99.26 90.01L49.77 0l13.27 90.01z"/><path fill="url(#c)" d="M15.32 79.43L.96 89.19l34.9-63.76z"/><path fill="url(#d)" d="M49.77 0L41.5 22.43 56.41 45"/><path fill="url(#e)" d="M56.02 11.37l14.96 43.16L87.54 68.7"/><path fill="url(#f)" d="M63.04 90.01l-48.18-9.65 18.58-14.33 8.05-43.49L56.41 45z"/><path fill="url(#g)" d="M48.89 33.83l4.35 54.31 9.8 1.87L56.41 45z"/><path fill="url(#h)" d="M66.54 90.01L83.29 90 61.17 26.25z"/></g></svg>