<svg viewBox="0 0 100 80" xmlns="http://www.w3.org/2000/svg"><title>Key_1_4_2</title><defs><linearGradient x1="100%" y1="50%" x2="0%" y2="50%" id="a"><stop stop-color="#7D1026" offset="5%"/><stop stop-color="#6D0E22" offset="19%"/><stop stop-color="#5F0C1D" offset="40%"/><stop stop-color="#560B1B" offset="64%"/><stop stop-color="#530B1A" offset="100%"/></linearGradient><linearGradient x1="52.516%" y1="49.112%" x2="-2.95%" y2="68.925%" id="b"><stop stop-color="#A61533" offset="34%"/><stop stop-color="#9B1430" offset="47%"/><stop stop-color="#851129" offset="79%"/><stop stop-color="#7D1026" offset="100%"/></linearGradient><linearGradient x1="39.358%" y1="44.508%" x2="86.474%" y2="68.839%" id="c"><stop stop-color="#A61533" offset="5%"/><stop stop-color="#9F1431" offset="13%"/><stop stop-color="#8C122B" offset="41%"/><stop stop-color="#811027" offset="70%"/><stop stop-color="#7D1026" offset="100%"/></linearGradient><linearGradient x1="0%" y1="49.989%" y2="49.989%" id="d"><stop stop-color="#A61533" offset="5%"/><stop stop-color="#9E1431" offset="8%"/><stop stop-color="#831128" offset="22%"/><stop stop-color="#6E0E22" offset="36%"/><stop stop-color="#5F0C1D" offset="52%"/><stop stop-color="#560B1B" offset="71%"/><stop stop-color="#530B1A" offset="100%"/></linearGradient><linearGradient x1="0%" y1="50%" y2="50%" id="e"><stop stop-color="#A61533" offset="5%"/><stop stop-color="#97132E" offset="19%"/><stop stop-color="#89112A" offset="39%"/><stop stop-color="#801027" offset="63%"/><stop stop-color="#7D1026" offset="100%"/></linearGradient><linearGradient x1="11.162%" y1="47.562%" x2="108.126%" y2="61.721%" id="f"><stop stop-color="#A61533" offset="5%"/><stop stop-color="#91122D" offset="34%"/><stop stop-color="#590C1C" offset="93%"/><stop stop-color="#530B1A" offset="100%"/></linearGradient></defs><g fill-rule="nonzero" fill="none"><path fill="url(#a)" d="M62.54 80L49.27 0 0 80h62.54" transform="translate(.5)"/><path fill="url(#b)" d="M98.76 80L49.27 0l12.89 80z" transform="translate(.5)"/><path fill="url(#c)" d="M14.81 80H0l33.64-54.62z" transform="translate(.5)"/><path fill="url(#d)" d="M49.27 0L41 22.37l15.51 22.58" transform="translate(.5)"/><path fill="url(#e)" d="M56.27 11.31l14.17 43.17 21.3 14.17" transform="translate(.5)"/><path fill="url(#f)" d="M62.12 80H14.37l18.58-14.03L41 22.37l15.51 22.58z" transform="translate(.5)"/></g></svg>