<svg data-name="Ebene 1" xmlns="http://www.w3.org/2000/svg" viewBox="0 0 98.76 90.01"><defs><linearGradient id="a" x1="62.54" y1="45" x2="0" y2="45" gradientUnits="userSpaceOnUse"><stop offset=".05" stop-color="#978ea7"/><stop offset=".19" stop-color="#898197"/><stop offset=".4" stop-color="#7b7589"/><stop offset=".64" stop-color="#736d80"/><stop offset="1" stop-color="#716b7d"/></linearGradient><linearGradient id="b" x1="74.95" y1="44.47" x2="45.92" y2="61.22" gradientUnits="userSpaceOnUse"><stop offset=".34" stop-color="#c1bbca"/><stop offset=".5" stop-color="#b3acbe"/><stop offset=".81" stop-color="#9e96ad"/><stop offset="1" stop-color="#978ea7"/></linearGradient><linearGradient id="c" x1="12.45" y1="52.73" x2="26.99" y2="64.93" gradientUnits="userSpaceOnUse"><stop offset=".05" stop-color="#c1bbca"/><stop offset=".17" stop-color="#aea8b8"/><stop offset=".37" stop-color="#938d9e"/><stop offset=".57" stop-color="#807a8c"/><stop offset=".78" stop-color="#756f81"/><stop offset="1" stop-color="#716b7d"/></linearGradient><linearGradient id="d" x1="41" y1="22.5" x2="55.91" y2="22.5" gradientUnits="userSpaceOnUse"><stop offset=".05" stop-color="#c1bbca"/><stop offset=".07" stop-color="#bcb6c5"/><stop offset=".21" stop-color="#a19bab"/><stop offset=".35" stop-color="#8c8697"/><stop offset=".52" stop-color="#7d7788"/><stop offset=".71" stop-color="#746e80"/><stop offset="1" stop-color="#716b7d"/></linearGradient><linearGradient id="e" x1="55.52" y1="40.04" x2="87.04" y2="40.04" gradientUnits="userSpaceOnUse"><stop offset=".05" stop-color="#c1bbca"/><stop offset=".21" stop-color="#b0a8bc"/><stop offset=".41" stop-color="#a29ab0"/><stop offset=".64" stop-color="#9a91a9"/><stop offset="1" stop-color="#978ea7"/></linearGradient><linearGradient id="f" x1="19.6" y1="50.6" x2="67.98" y2="59.13" gradientUnits="userSpaceOnUse"><stop offset=".05" stop-color="#978ea7"/><stop offset=".07" stop-color="#958da5"/><stop offset=".4" stop-color="#817a8f"/><stop offset=".72" stop-color="#756f82"/><stop offset="1" stop-color="#716b7d"/></linearGradient><linearGradient id="g" x1="43.8" y1="59.86" x2="67.13" y2="63.97" gradientUnits="userSpaceOnUse"><stop offset=".05" stop-color="#c1bbca"/><stop offset=".14" stop-color="#b2acbc"/><stop offset=".36" stop-color="#9690a0"/><stop offset=".58" stop-color="#817b8d"/><stop offset=".79" stop-color="#756f81"/><stop offset="1" stop-color="#716b7d"/></linearGradient><linearGradient id="h" x1="55.3" y1="56.7" x2="87.65" y2="62.41" gradientUnits="userSpaceOnUse"><stop offset=".05" stop-color="#c1bbca"/><stop offset=".14" stop-color="#b9b3c4"/><stop offset=".43" stop-color="#a69eb4"/><stop offset=".72" stop-color="#9b92aa"/><stop offset="1" stop-color="#978ea7"/></linearGradient></defs><title>3-update_</title><path fill="url(#a)" d="M62.54 90.01L49.27 0 0 90.01h62.54"/><path fill="url(#b)" d="M98.76 90.01L49.27 0l13.27 90.01h36.22z"/><path fill="url(#c)" d="M14.82 79.43L.46 89.19l34.9-63.76-20.54 54z"/><path fill="url(#d)" d="M49.27 0L41 22.43 55.91 45"/><path fill="url(#e)" d="M55.52 11.37l14.96 43.16L87.04 68.7"/><path fill="url(#f)" d="M62.54 90.01l-48.18-9.65 18.58-14.33 8.05-43.49L55.91 45l6.63 45.01z"/><path fill="url(#g)" d="M48.39 33.83l4.35 54.31 9.8 1.87L55.91 45l-7.52-11.17z"/><path fill="url(#h)" d="M66.04 90.01L82.79 90 60.67 26.25l5.37 63.76z"/></svg>