<svg width="100" height="80" viewBox="0 0 100 80" xmlns="http://www.w3.org/2000/svg"><title>Key_5_4_1</title><defs><linearGradient x1="100%" y1="50%" x2="0%" y2="50%" id="a"><stop stop-color="#4793BE" offset="5%"/><stop stop-color="#4188B0" offset="13%"/><stop stop-color="#39789B" offset="29%"/><stop stop-color="#336C8C" offset="47%"/><stop stop-color="#306583" offset="68%"/><stop stop-color="#2F6380" offset="100%"/></linearGradient><linearGradient x1="52.495%" y1="49.112%" x2="-2.97%" y2="68.925%" id="b"><stop stop-color="#90BED8" offset="34%"/><stop stop-color="#89BAD5" offset="38%"/><stop stop-color="#65A5C9" offset="65%"/><stop stop-color="#4F98C1" offset="86%"/><stop stop-color="#4793BE" offset="100%"/></linearGradient><linearGradient x1="11.127%" y1="47.559%" x2="108.115%" y2="61.751%" id="c"><stop stop-color="#4794BF" offset="5%"/><stop stop-color="#4693BD" offset="6%"/><stop stop-color="#3C7EA2" offset="29%"/><stop stop-color="#356F8F" offset="52%"/><stop stop-color="#306684" offset="75%"/><stop stop-color="#2F6380" offset="100%"/></linearGradient><linearGradient x1="40.491%" y1="44.951%" x2="84.595%" y2="68.408%" id="d"><stop stop-color="#91BFD9" offset="5%"/><stop stop-color="#8FBDD7" offset="6%"/><stop stop-color="#6C9DB8" offset="24%"/><stop stop-color="#51839F" offset="42%"/><stop stop-color="#3E718E" offset="61%"/><stop stop-color="#336783" offset="80%"/><stop stop-color="#2F6380" offset="100%"/></linearGradient><linearGradient x1="0%" y1="50%" y2="50%" id="e"><stop stop-color="#91BFD9" offset="5%"/><stop stop-color="#77B0D0" offset="19%"/><stop stop-color="#62A3C8" offset="34%"/><stop stop-color="#539BC3" offset="50%"/><stop stop-color="#4A96C0" offset="70%"/><stop stop-color="#4794BF" offset="100%"/></linearGradient><linearGradient x1="-27.649%" y1="46.003%" x2="127.649%" y2="54.018%" id="f"><stop stop-color="#91BFD9" offset="5%"/><stop stop-color="#70A0BB" offset="23%"/><stop stop-color="#5486A1" offset="42%"/><stop stop-color="#3F728F" offset="62%"/><stop stop-color="#336784" offset="81%"/><stop stop-color="#2F6380" offset="100%"/></linearGradient><linearGradient x1="0%" y1="49.989%" x2="99.936%" y2="49.989%" id="g"><stop stop-color="#91BFD9" offset="5%"/><stop stop-color="#7AA9C4" offset="14%"/><stop stop-color="#5F90AB" offset="26%"/><stop stop-color="#4A7C98" offset="40%"/><stop stop-color="#3B6E8A" offset="55%"/><stop stop-color="#326682" offset="73%"/><stop stop-color="#2F6380" offset="100%"/></linearGradient><linearGradient x1="-24.008%" y1="47.691%" x2="121.735%" y2="56.703%" id="h"><stop stop-color="#91BFD9" offset="5%"/><stop stop-color="#88BAD6" offset="11%"/><stop stop-color="#6CA9CC" offset="33%"/><stop stop-color="#579EC5" offset="56%"/><stop stop-color="#4B96C0" offset="78%"/><stop stop-color="#4794BF" offset="100%"/></linearGradient></defs><g fill-rule="nonzero" fill="none"><path fill="url(#a)" d="M63.52 80L50.26 0 .98 80h62.54"/><path fill="url(#b)" d="M99.75 80L50.26 0l12.89 80z"/><path fill="url(#c)" d="M63.15 80H15.34l18.58-14.08 8.06-43.49L57.55 45z"/><path fill="url(#d)" d="M14.79 80H0l34.6-54.57z"/><path fill="url(#e)" d="M57.28 11.36L72.4 54.52l20.28 14.04"/><path fill="url(#f)" d="M49.37 32.96l4.36 45.06L63.15 80l-5.6-35z"/><path fill="url(#g)" d="M50.26 0l-8.27 22.36 15.56 22.57"/><path fill="url(#h)" d="M67.52 80h13.83L62.44 26.07z"/></g></svg>