<svg data-name="Ebene 2" xmlns="http://www.w3.org/2000/svg" viewBox="0 0 99.75 80.01"><defs><linearGradient id="a" x1="63.52" y1="40" x2=".98" y2="40" gradientUnits="userSpaceOnUse"><stop offset=".05" stop-color="#536498"/><stop offset=".07" stop-color="#516295"/><stop offset=".24" stop-color="#465480"/><stop offset=".44" stop-color="#3e4a71"/><stop offset=".66" stop-color="#394568"/><stop offset="1" stop-color="#384365"/></linearGradient><linearGradient id="b" x1="76.24" y1="39.29" x2="48.79" y2="55.14" gradientUnits="userSpaceOnUse"><stop offset=".34" stop-color="#6f86ca"/><stop offset=".54" stop-color="#6478b6"/><stop offset=".82" stop-color="#5769a0"/><stop offset="1" stop-color="#536498"/></linearGradient><linearGradient id="c" x1="20.66" y1="49.81" x2="67.03" y2="57.98" gradientUnits="userSpaceOnUse"><stop offset=".05" stop-color="#536498"/><stop offset=".21" stop-color="#4a5987"/><stop offset=".47" stop-color="#404d74"/><stop offset=".73" stop-color="#3a4569"/><stop offset="1" stop-color="#384365"/></linearGradient><linearGradient id="d" x1="14.01" y1="49.96" x2="29.27" y2="62.76" gradientUnits="userSpaceOnUse"><stop offset=".05" stop-color="#6f86ca"/><stop offset=".07" stop-color="#6c82c5"/><stop offset=".25" stop-color="#596ca2"/><stop offset=".43" stop-color="#4b5a87"/><stop offset=".62" stop-color="#404d74"/><stop offset=".8" stop-color="#3a4669"/><stop offset="1" stop-color="#384365"/></linearGradient><linearGradient id="e" x1="57.28" y1="39.96" x2="92.68" y2="39.96" gradientUnits="userSpaceOnUse"><stop offset=".05" stop-color="#6f86ca"/><stop offset=".07" stop-color="#6e84c7"/><stop offset=".24" stop-color="#6276b2"/><stop offset=".43" stop-color="#596ca4"/><stop offset=".66" stop-color="#55669b"/><stop offset="1" stop-color="#536498"/></linearGradient><linearGradient id="f" x1="45.56" y1="54.6" x2="66.96" y2="58.37" gradientUnits="userSpaceOnUse"><stop offset=".05" stop-color="#6f86ca"/><stop offset=".24" stop-color="#5c6ea6"/><stop offset=".43" stop-color="#4c5b8a"/><stop offset=".62" stop-color="#414e75"/><stop offset=".81" stop-color="#3a4669"/><stop offset="1" stop-color="#384365"/></linearGradient><linearGradient id="g" x1="41.99" y1="22.46" x2="57.54" y2="22.46" gradientUnits="userSpaceOnUse"><stop offset=".05" stop-color="#6f86ca"/><stop offset=".14" stop-color="#6175b0"/><stop offset=".27" stop-color="#526395"/><stop offset=".4" stop-color="#465580"/><stop offset=".56" stop-color="#3e4b71"/><stop offset=".73" stop-color="#394568"/><stop offset="1" stop-color="#384365"/></linearGradient><linearGradient id="h" x1="57.9" y1="51.79" x2="85.46" y2="56.65" gradientUnits="userSpaceOnUse"><stop offset=".05" stop-color="#6f86ca"/><stop offset=".19" stop-color="#687dbd"/><stop offset=".46" stop-color="#5c6fa8"/><stop offset=".73" stop-color="#55679c"/><stop offset="1" stop-color="#536498"/></linearGradient></defs><title>5-update_</title><path fill="url(#a)" d="M63.52 80L50.26 0 .98 80h62.54"/><path fill="url(#b)" d="M99.75 80L50.26 0l12.89 80h36.6z"/><path fill="url(#c)" d="M63.15 80H15.34l18.58-14.08 8.06-43.49L57.55 45l5.6 35z"/><path fill="url(#d)" d="M14.79 80H0l34.6-54.57L14.79 80z"/><path fill="url(#e)" d="M57.28 11.36L72.4 54.52l20.28 14.04"/><path fill="url(#f)" d="M49.37 32.96l4.36 45.06L63.15 80l-5.6-35-8.18-12.04z"/><path fill="url(#g)" d="M50.26 0l-8.27 22.36 15.56 22.57"/><path fill="url(#h)" d="M67.52 80h13.83L62.44 26.07 67.52 80z"/></svg>