<svg id="Ebene_1" data-name="Ebene 1" xmlns="http://www.w3.org/2000/svg" xmlns:xlink="http://www.w3.org/1999/xlink" viewBox="0 0 98.76 70"><defs><style>.cls-1{fill:url(#_4_DARK);}.cls-2{fill:url(#_4_LIGHT);}.cls-3{fill:url(#Unbenannter_Verlauf_69);}.cls-4{fill:url(#Unbenannter_Verlauf_65);}.cls-5{fill:url(#Unbenannter_Verlauf_63);}.cls-6{fill:url(#Unbenannter_Verlauf_67);}.cls-7{fill:url(#Unbenannter_Verlauf_71);}.cls-8{fill:url(#Unbenannter_Verlauf_73);}</style><linearGradient id="_4_DARK" x1="62.54" y1="35" x2="0" y2="35" gradientUnits="userSpaceOnUse"><stop offset="0.05" stop-color="#5a7ebc"/><stop offset="0.14" stop-color="#5374ad"/><stop offset="0.3" stop-color="#496698"/><stop offset="0.48" stop-color="#415c89"/><stop offset="0.68" stop-color="#3d5680"/><stop offset="1" stop-color="#3c547d"/></linearGradient><linearGradient id="_4_LIGHT" x1="77.42" y1="33.04" x2="49.97" y2="48.89" gradientUnits="userSpaceOnUse"><stop offset="0.34" stop-color="#9cb2d7"/><stop offset="0.34" stop-color="#9cb2d7"/><stop offset="0.62" stop-color="#7896c8"/><stop offset="0.85" stop-color="#6284bf"/><stop offset="1" stop-color="#5a7ebc"/></linearGradient><linearGradient id="Unbenannter_Verlauf_69" x1="13.93" y1="46.2" x2="26.17" y2="56.47" gradientUnits="userSpaceOnUse"><stop offset="0.05" stop-color="#9cb2d7"/><stop offset="0.05" stop-color="#9cb2d7"/><stop offset="0.23" stop-color="#7990b6"/><stop offset="0.42" stop-color="#5e769d"/><stop offset="0.61" stop-color="#4b638b"/><stop offset="0.8" stop-color="#405881"/><stop offset="1" stop-color="#3c547d"/></linearGradient><linearGradient id="Unbenannter_Verlauf_65" x1="41" y1="22.47" x2="57.55" y2="22.47" gradientUnits="userSpaceOnUse"><stop offset="0.05" stop-color="#9cb2d7"/><stop offset="0.15" stop-color="#8aa3cf"/><stop offset="0.31" stop-color="#7593c7"/><stop offset="0.48" stop-color="#6687c1"/><stop offset="0.69" stop-color="#5d80bd"/><stop offset="1" stop-color="#5a7ebc"/></linearGradient><linearGradient id="Unbenannter_Verlauf_63" x1="57.27" y1="39.98" x2="97.8" y2="39.98" xlink:href="#Unbenannter_Verlauf_65"/><linearGradient id="Unbenannter_Verlauf_67" x1="18.83" y1="44.68" x2="65.14" y2="52.85" gradientUnits="userSpaceOnUse"><stop offset="0.05" stop-color="#5a7ebc"/><stop offset="0.37" stop-color="#4e6da2"/><stop offset="0.77" stop-color="#415b87"/><stop offset="1" stop-color="#3c547d"/></linearGradient><linearGradient id="Unbenannter_Verlauf_71" x1="46.21" y1="50.95" x2="64.89" y2="54.24" gradientUnits="userSpaceOnUse"><stop offset="0.05" stop-color="#9cb2d7"/><stop offset="0.22" stop-color="#7d94ba"/><stop offset="0.42" stop-color="#6178a0"/><stop offset="0.61" stop-color="#4c648c"/><stop offset="0.81" stop-color="#405881"/><stop offset="1" stop-color="#3c547d"/></linearGradient><linearGradient id="Unbenannter_Verlauf_73" x1="58.76" y1="46.99" x2="80.91" y2="50.89" gradientUnits="userSpaceOnUse"><stop offset="0.05" stop-color="#9cb2d7"/><stop offset="0.06" stop-color="#9bb1d7"/><stop offset="0.29" stop-color="#7f9bcb"/><stop offset="0.53" stop-color="#6a8bc3"/><stop offset="0.77" stop-color="#5e81be"/><stop offset="1" stop-color="#5a7ebc"/></linearGradient></defs><title>Key_</title><polyline class="cls-1" points="62.54 70 49.27 0 0 70 62.54 70"/><polygon class="cls-2" points="98.76 70 49.27 0 62.16 70 98.76 70"/><polygon class="cls-3" points="14.81 70 0 70 31.41 25.38 14.81 70"/><polyline class="cls-4" points="49.27 0 41 22.37 57.55 44.95"/><polyline class="cls-5" points="57.27 11.31 70.44 49.48 97.81 68.65"/><polygon class="cls-6" points="62.12 70 14.37 70 32.95 65.97 41 22.49 57.55 44.95 62.12 70"/><polygon class="cls-7" points="49.27 33.59 52.79 70 62.12 70 57.55 44.95 49.27 33.59"/><polygon class="cls-8" points="68.03 70 77.54 70 62.42 26.25 68.03 70"/></svg>