<svg viewBox="0 0 100 70" xmlns="http://www.w3.org/2000/svg"><title>Key_5_3_1</title><defs><linearGradient x1="100%" y1="50%" x2="0%" y2="50%" id="a"><stop stop-color="#4793BE" offset="5%"/><stop stop-color="#4188B0" offset="13%"/><stop stop-color="#39789B" offset="29%"/><stop stop-color="#336C8C" offset="47%"/><stop stop-color="#306583" offset="68%"/><stop stop-color="#2F6380" offset="100%"/></linearGradient><linearGradient x1="56.88%" y1="47.2%" x2="1.414%" y2="69.843%" id="b"><stop stop-color="#90BED8" offset="34%"/><stop stop-color="#89BAD5" offset="38%"/><stop stop-color="#65A5C9" offset="65%"/><stop stop-color="#4F98C1" offset="86%"/><stop stop-color="#4793BE" offset="100%"/></linearGradient><linearGradient x1="44.349%" y1="46.661%" x2="83.317%" y2="69.677%" id="c"><stop stop-color="#91BFD9" offset="5%"/><stop stop-color="#8FBDD7" offset="6%"/><stop stop-color="#6C9DB8" offset="24%"/><stop stop-color="#51839F" offset="42%"/><stop stop-color="#3E718E" offset="61%"/><stop stop-color="#336783" offset="80%"/><stop stop-color="#2F6380" offset="100%"/></linearGradient><linearGradient x1="0%" y1="49.989%" y2="49.989%" id="d"><stop stop-color="#91BFD9" offset="5%"/><stop stop-color="#7AA9C4" offset="14%"/><stop stop-color="#5F90AB" offset="26%"/><stop stop-color="#4A7C98" offset="40%"/><stop stop-color="#3B6E8A" offset="55%"/><stop stop-color="#326682" offset="73%"/><stop stop-color="#2F6380" offset="100%"/></linearGradient><linearGradient x1="0%" y1="50%" x2="99.975%" y2="50%" id="e"><stop stop-color="#91BFD9" offset="5%"/><stop stop-color="#77B0D0" offset="19%"/><stop stop-color="#62A3C8" offset="34%"/><stop stop-color="#539BC3" offset="50%"/><stop stop-color="#4A96C0" offset="70%"/><stop stop-color="#4794BF" offset="100%"/></linearGradient><linearGradient x1="9.34%" y1="46.706%" x2="106.325%" y2="63.902%" id="f"><stop stop-color="#4794BF" offset="5%"/><stop stop-color="#4693BD" offset="6%"/><stop stop-color="#3C7EA2" offset="29%"/><stop stop-color="#356F8F" offset="52%"/><stop stop-color="#306684" offset="75%"/><stop stop-color="#2F6380" offset="100%"/></linearGradient><linearGradient x1="-23.813%" y1="47.679%" x2="121.556%" y2="56.715%" id="g"><stop stop-color="#91BFD9" offset="5%"/><stop stop-color="#70A0BB" offset="23%"/><stop stop-color="#5486A1" offset="42%"/><stop stop-color="#3F728F" offset="62%"/><stop stop-color="#336784" offset="81%"/><stop stop-color="#2F6380" offset="100%"/></linearGradient><linearGradient x1="-24.206%" y1="47.406%" x2="122.288%" y2="56.32%" id="h"><stop stop-color="#91BFD9" offset="5%"/><stop stop-color="#88BAD6" offset="11%"/><stop stop-color="#6CA9CC" offset="33%"/><stop stop-color="#579EC5" offset="56%"/><stop stop-color="#4B96C0" offset="78%"/><stop stop-color="#4794BF" offset="100%"/></linearGradient></defs><g fill-rule="nonzero" fill="none"><path fill="url(#a)" d="M62.54 70L49.27 0 0 70h62.54" transform="translate(.5)"/><path fill="url(#b)" d="M98.76 70L49.27 0l12.89 70z" transform="translate(.5)"/><path fill="url(#c)" d="M14.81 70H0l31.41-44.62z" transform="translate(.5)"/><path fill="url(#d)" d="M49.27 0L41 22.37l16.55 22.58" transform="translate(.5)"/><path fill="url(#e)" d="M57.27 11.31l13.17 38.17 27.37 19.17" transform="translate(.5)"/><path fill="url(#f)" d="M62.12 70H14.37l18.58-4.03L41 22.49l16.55 22.46z" transform="translate(.5)"/><path fill="url(#g)" d="M49.27 33.59L52.79 70h9.33l-4.57-25.05z" transform="translate(.5)"/><path fill="url(#h)" d="M68.03 70h9.51L62.42 26.25z" transform="translate(.5)"/></g></svg>