<svg viewBox="0 0 100 90" xmlns="http://www.w3.org/2000/svg"><title>Key_4_5_1</title><defs><linearGradient x1="100%" y1="49.994%" x2="0%" y2="49.994%" id="a"><stop stop-color="#5A7EBC" offset="5%"/><stop stop-color="#5374AD" offset="14%"/><stop stop-color="#496698" offset="30%"/><stop stop-color="#415C89" offset="48%"/><stop stop-color="#3D5680" offset="68%"/><stop stop-color="#3C547D" offset="100%"/></linearGradient><linearGradient x1="51.879%" y1="49.406%" x2="-7.333%" y2="68.204%" id="b"><stop stop-color="#9CB2D7" offset="34%"/><stop stop-color="#9CB2D7" offset="34%"/><stop stop-color="#7896C8" offset="62%"/><stop stop-color="#6284BF" offset="85%"/><stop stop-color="#5A7EBC" offset="100%"/></linearGradient><linearGradient x1="34.384%" y1="42.817%" x2="76.017%" y2="61.951%" id="c"><stop stop-color="#9CB2D7" offset="5%"/><stop stop-color="#9CB2D7" offset="5%"/><stop stop-color="#7990B6" offset="23%"/><stop stop-color="#5E769D" offset="42%"/><stop stop-color="#4B638B" offset="61%"/><stop stop-color="#405881" offset="80%"/><stop stop-color="#3C547D" offset="100%"/></linearGradient><linearGradient x1=".068%" y1="49.989%" x2="99.932%" y2="49.989%" id="d"><stop stop-color="#9CB2D7" offset="5%"/><stop stop-color="#8AA3CF" offset="15%"/><stop stop-color="#7593C7" offset="31%"/><stop stop-color="#6687C1" offset="48%"/><stop stop-color="#5D80BD" offset="69%"/><stop stop-color="#5A7EBC" offset="100%"/></linearGradient><linearGradient x1="27.159%" y1="64.34%" x2="95.465%" y2="28.454%" id="e"><stop stop-color="#9CB2D7" offset="0%"/><stop stop-color="#8AA3CF" offset="15%"/><stop stop-color="#7593C7" offset="31%"/><stop stop-color="#6687C1" offset="48%"/><stop stop-color="#5D80BD" offset="69%"/><stop stop-color="#5A7EBC" offset="100%"/></linearGradient><linearGradient x1="10.857%" y1="41.601%" x2="111.314%" y2="54.225%" id="f"><stop stop-color="#5A7EBC" offset="5%"/><stop stop-color="#4B699C" offset="43%"/><stop stop-color="#405A85" offset="78%"/><stop stop-color="#3C547D" offset="100%"/></linearGradient><linearGradient x1="-32.509%" y1="46.349%" x2="132.509%" y2="53.669%" id="g"><stop stop-color="#9CB2D7" offset="5%"/><stop stop-color="#7D94BA" offset="22%"/><stop stop-color="#6178A0" offset="42%"/><stop stop-color="#4C648C" offset="61%"/><stop stop-color="#405881" offset="81%"/><stop stop-color="#3C547D" offset="100%"/></linearGradient><linearGradient x1="-24.281%" y1="47.747%" x2="122.032%" y2="56.697%" id="h"><stop stop-color="#9CB2D7" offset="5%"/><stop stop-color="#91A9D3" offset="18%"/><stop stop-color="#698AC2" offset="72%"/><stop stop-color="#5A7EBC" offset="100%"/></linearGradient></defs><g fill="none" fill-rule="evenodd"><path fill="url(#a)" d="M62.78 90.01L49.51 0 .24 90.01h62.54" transform="translate(0 .5)"/><path fill="url(#b)" d="M99.01 90.01L49.51 0l12.9 90.01z" transform="translate(0 .5)"/><path fill="url(#c)" d="M15.07 79.37L.7 89.14l34.9-63.76z" transform="translate(0 .5)"/><path fill="url(#d)" d="M49.51 0l-8.27 22.37 14.78 22.58" transform="translate(0 .5)"/><path fill="url(#e)" d="M55.68 11.21l15.01 43.27 16.59 14.17" transform="translate(0 .5)"/><path fill="url(#f)" d="M62.77 90.06L14.6 80.3l18.58-14.33 8.05-43.48L56 45.06z" transform="translate(0 .5)"/><path fill="url(#g)" d="M48.63 33.77l4.36 54.31 9.79 1.98-6.76-45z" transform="translate(0 .5)"/><path fill="url(#h)" d="M66.27 90.01L83 90 60.76 25.88z" transform="translate(0 .5)"/></g></svg>