<svg id="Ebene_1" data-name="Ebene 1" xmlns="http://www.w3.org/2000/svg" xmlns:xlink="http://www.w3.org/1999/xlink" viewBox="0 0 98.76 50"><defs><style>.cls-1{fill:url(#Unbenannter_Verlauf_35);}.cls-2{fill:url(#_1_LIGHT);}.cls-3{fill:url(#Unbenannter_Verlauf_32);}.cls-4{fill:url(#Unbenannter_Verlauf_11);}.cls-5{fill:url(#Unbenannter_Verlauf_9);}.cls-6{fill:url(#Unbenannter_Verlauf_30);}.cls-7{fill:url(#Unbenannter_Verlauf_13);}.cls-8{fill:url(#Unbenannter_Verlauf_7);}</style><linearGradient id="Unbenannter_Verlauf_35" x1="62.16" y1="25" x2="0" y2="25" gradientUnits="userSpaceOnUse"><stop offset="0.05" stop-color="#7d1026"/><stop offset="0.19" stop-color="#6d0e22"/><stop offset="0.4" stop-color="#5f0c1d"/><stop offset="0.64" stop-color="#560b1b"/><stop offset="1" stop-color="#530b1a"/></linearGradient><linearGradient id="_1_LIGHT" x1="81.75" y1="20.54" x2="54.3" y2="36.38" gradientUnits="userSpaceOnUse"><stop offset="0.34" stop-color="#a61533"/><stop offset="0.47" stop-color="#9b1430"/><stop offset="0.79" stop-color="#851129"/><stop offset="1" stop-color="#7d1026"/></linearGradient><linearGradient id="Unbenannter_Verlauf_32" x1="11.09" y1="36.79" x2="19.77" y2="44.08" gradientUnits="userSpaceOnUse"><stop offset="0.05" stop-color="#a61533"/><stop offset="0.13" stop-color="#9f1431"/><stop offset="0.41" stop-color="#8c122b"/><stop offset="0.7" stop-color="#811027"/><stop offset="1" stop-color="#7d1026"/></linearGradient><linearGradient id="Unbenannter_Verlauf_11" x1="41" y1="17.86" x2="58.41" y2="17.86" gradientUnits="userSpaceOnUse"><stop offset="0.05" stop-color="#a61533"/><stop offset="0.08" stop-color="#9e1431"/><stop offset="0.22" stop-color="#831128"/><stop offset="0.36" stop-color="#6e0e22"/><stop offset="0.52" stop-color="#5f0c1d"/><stop offset="0.71" stop-color="#560b1b"/><stop offset="1" stop-color="#530b1a"/></linearGradient><linearGradient id="Unbenannter_Verlauf_9" x1="60.39" y1="29.98" x2="97.42" y2="29.98" gradientUnits="userSpaceOnUse"><stop offset="0.05" stop-color="#a61533"/><stop offset="0.19" stop-color="#97132e"/><stop offset="0.39" stop-color="#89112a"/><stop offset="0.63" stop-color="#801027"/><stop offset="1" stop-color="#7d1026"/></linearGradient><linearGradient id="Unbenannter_Verlauf_30" x1="17.13" y1="34.33" x2="63.44" y2="42.49" gradientUnits="userSpaceOnUse"><stop offset="0.05" stop-color="#a61533"/><stop offset="0.34" stop-color="#91122d"/><stop offset="0.93" stop-color="#590c1c"/><stop offset="1" stop-color="#530b1a"/></linearGradient><linearGradient id="Unbenannter_Verlauf_13" x1="49.29" y1="39.46" x2="63.58" y2="41.98" gradientUnits="userSpaceOnUse"><stop offset="0.05" stop-color="#a61533"/><stop offset="0.16" stop-color="#94132e"/><stop offset="0.37" stop-color="#780f25"/><stop offset="0.58" stop-color="#630d1f"/><stop offset="0.79" stop-color="#570b1b"/><stop offset="1" stop-color="#530b1a"/></linearGradient><linearGradient id="Unbenannter_Verlauf_7" x1="64.89" y1="37.45" x2="79.03" y2="39.95" gradientUnits="userSpaceOnUse"><stop offset="0.05" stop-color="#a61533"/><stop offset="0.1" stop-color="#a21432"/><stop offset="0.4" stop-color="#8d122b"/><stop offset="0.71" stop-color="#811127"/><stop offset="1" stop-color="#7d1026"/></linearGradient></defs><title>Key_</title><polygon class="cls-1" points="62.16 50 49.27 0 0 50 62.16 50"/><polygon class="cls-2" points="98.76 50 49.27 0 62.16 50 98.76 50"/><polygon class="cls-3" points="14.81 50 0 50 24.31 25.38 14.81 50"/><polyline class="cls-4" points="49.27 0 41 22.37 58.41 35.73"/><polyline class="cls-5" points="60.39 11.31 70.44 34.47 97.42 48.65"/><polygon class="cls-6" points="62.12 50 14.37 50 32.95 45.97 41 22.37 58.41 35.73 62.12 50"/><polygon class="cls-7" points="50.96 29.98 53.64 50 62.16 50 58.41 35.73 50.96 29.98"/><polygon class="cls-8" points="70.51 50 77.25 50 66.87 26.25 70.51 50"/></svg>