<svg data-name="Ebene 1" xmlns="http://www.w3.org/2000/svg" viewBox="0 0 98.76 50"><defs><linearGradient id="a" x1="62.16" y1="25" x2="0" y2="25" gradientUnits="userSpaceOnUse"><stop offset=".05" stop-color="#978ea7"/><stop offset=".19" stop-color="#898197"/><stop offset=".4" stop-color="#7b7589"/><stop offset=".64" stop-color="#736d80"/><stop offset="1" stop-color="#716b7d"/></linearGradient><linearGradient id="b" x1="81.75" y1="20.54" x2="54.3" y2="36.38" gradientUnits="userSpaceOnUse"><stop offset=".34" stop-color="#c1bbca"/><stop offset=".5" stop-color="#b3acbe"/><stop offset=".81" stop-color="#9e96ad"/><stop offset="1" stop-color="#978ea7"/></linearGradient><linearGradient id="c" x1="11.09" y1="36.79" x2="19.77" y2="44.08" gradientUnits="userSpaceOnUse"><stop offset=".05" stop-color="#c1bbca"/><stop offset=".17" stop-color="#aea8b8"/><stop offset=".37" stop-color="#938d9e"/><stop offset=".57" stop-color="#807a8c"/><stop offset=".78" stop-color="#756f81"/><stop offset="1" stop-color="#716b7d"/></linearGradient><linearGradient id="d" x1="41" y1="17.86" x2="58.41" y2="17.86" gradientUnits="userSpaceOnUse"><stop offset=".05" stop-color="#c1bbca"/><stop offset=".07" stop-color="#bcb6c5"/><stop offset=".21" stop-color="#a19bab"/><stop offset=".35" stop-color="#8c8697"/><stop offset=".52" stop-color="#7d7788"/><stop offset=".71" stop-color="#746e80"/><stop offset="1" stop-color="#716b7d"/></linearGradient><linearGradient id="e" x1="60.39" y1="29.98" x2="97.42" y2="29.98" gradientUnits="userSpaceOnUse"><stop offset=".05" stop-color="#c1bbca"/><stop offset=".21" stop-color="#b0a8bc"/><stop offset=".41" stop-color="#a29ab0"/><stop offset=".64" stop-color="#9a91a9"/><stop offset="1" stop-color="#978ea7"/></linearGradient><linearGradient id="f" x1="17.12" y1="34.38" x2="63.43" y2="42.55" gradientUnits="userSpaceOnUse"><stop offset=".05" stop-color="#978ea7"/><stop offset=".07" stop-color="#958da5"/><stop offset=".4" stop-color="#817a8f"/><stop offset=".72" stop-color="#756f82"/><stop offset="1" stop-color="#716b7d"/></linearGradient></defs><title>3-update_</title><path fill="url(#a)" d="M62.16 50L49.27 0 0 50h62.16z"/><path fill="url(#b)" d="M98.76 50L49.27 0l12.89 50h36.6z"/><path fill="url(#c)" d="M14.81 50H0l24.31-24.62L14.81 50z"/><path fill="url(#d)" d="M49.27 0L41 22.37l17.41 13.36"/><path fill="url(#e)" d="M60.39 11.31l10.05 23.16 26.98 14.18"/><path fill="url(#f)" d="M62.12 50H14.37l18.58-4.03L41 22.49l17.41 13.24L62.12 50z"/></svg>