<svg data-name="Ebene 1" xmlns="http://www.w3.org/2000/svg" viewBox="0 0 99.75 80.01"><defs><linearGradient id="a" x1="63.52" y1="40" x2=".98" y2="40" gradientUnits="userSpaceOnUse"><stop offset=".05" stop-color="#978ea7"/><stop offset=".19" stop-color="#898197"/><stop offset=".4" stop-color="#7b7589"/><stop offset=".64" stop-color="#736d80"/><stop offset="1" stop-color="#716b7d"/></linearGradient><linearGradient id="b" x1="76.24" y1="39.29" x2="48.79" y2="55.14" gradientUnits="userSpaceOnUse"><stop offset=".34" stop-color="#c1bbca"/><stop offset=".5" stop-color="#b3acbe"/><stop offset=".81" stop-color="#9e96ad"/><stop offset="1" stop-color="#978ea7"/></linearGradient><linearGradient id="c" x1="20.66" y1="49.81" x2="67.03" y2="57.98" gradientUnits="userSpaceOnUse"><stop offset=".05" stop-color="#978ea7"/><stop offset=".07" stop-color="#958da5"/><stop offset=".4" stop-color="#817a8f"/><stop offset=".72" stop-color="#756f82"/><stop offset="1" stop-color="#716b7d"/></linearGradient><linearGradient id="d" x1="14.01" y1="49.96" x2="29.27" y2="62.76" gradientUnits="userSpaceOnUse"><stop offset=".05" stop-color="#c1bbca"/><stop offset=".17" stop-color="#aea8b8"/><stop offset=".37" stop-color="#938d9e"/><stop offset=".57" stop-color="#807a8c"/><stop offset=".78" stop-color="#756f81"/><stop offset="1" stop-color="#716b7d"/></linearGradient><linearGradient id="e" x1="57.28" y1="39.96" x2="92.68" y2="39.96" gradientUnits="userSpaceOnUse"><stop offset=".05" stop-color="#c1bbca"/><stop offset=".21" stop-color="#b0a8bc"/><stop offset=".41" stop-color="#a29ab0"/><stop offset=".64" stop-color="#9a91a9"/><stop offset="1" stop-color="#978ea7"/></linearGradient><linearGradient id="f" x1="45.56" y1="54.6" x2="66.96" y2="58.37" gradientUnits="userSpaceOnUse"><stop offset=".05" stop-color="#c1bbca"/><stop offset=".14" stop-color="#b2acbc"/><stop offset=".36" stop-color="#9690a0"/><stop offset=".58" stop-color="#817b8d"/><stop offset=".79" stop-color="#756f81"/><stop offset="1" stop-color="#716b7d"/></linearGradient><linearGradient id="g" x1="41.99" y1="22.46" x2="57.5" y2="22.46" gradientUnits="userSpaceOnUse"><stop offset=".05" stop-color="#c1bbca"/><stop offset=".07" stop-color="#bcb6c5"/><stop offset=".21" stop-color="#a19bab"/><stop offset=".35" stop-color="#8c8697"/><stop offset=".52" stop-color="#7d7788"/><stop offset=".71" stop-color="#746e80"/><stop offset="1" stop-color="#716b7d"/></linearGradient><linearGradient id="h" x1="57.98" y1="51.88" x2="85.45" y2="56.73" gradientUnits="userSpaceOnUse"><stop offset=".05" stop-color="#c1bbca"/><stop offset=".14" stop-color="#b9b3c4"/><stop offset=".43" stop-color="#a69eb4"/><stop offset=".72" stop-color="#9b92aa"/><stop offset="1" stop-color="#978ea7"/></linearGradient></defs><title>3-update_</title><path fill="url(#a)" d="M63.52 80L50.26 0 .98 80h62.54"/><path fill="url(#b)" d="M99.75 80L50.26 0l12.89 80h36.6z"/><path fill="url(#c)" d="M63.15 80H15.34l18.58-14.08 8.06-43.49 15.52 22.5L63.15 80z"/><path fill="url(#d)" d="M14.79 80H0l34.6-54.57L14.79 80z"/><path fill="url(#e)" d="M57.28 11.36L72.4 54.52l20.28 14.04"/><path fill="url(#f)" d="M49.37 32.96l4.36 45.06L63.15 80 57.5 44.93l-8.13-11.97z"/><path fill="url(#g)" d="M50.26 0l-8.27 22.36L57.5 44.93"/><path fill="url(#h)" d="M67.53 80h13.82L62.5 26.25 67.53 80z"/></svg>