<svg width="100" height="60" viewBox="0 0 100 60" xmlns="http://www.w3.org/2000/svg"><title>Key_2_2_1</title><defs><linearGradient x1="100%" y1="50%" x2="0%" y2="50%" id="a"><stop stop-color="#A6475B" offset="5%"/><stop stop-color="#9F4457" offset="10%"/><stop stop-color="#8A3B4B" offset="26%"/><stop stop-color="#7B3443" offset="45%"/><stop stop-color="#72303E" offset="67%"/><stop stop-color="#6F2F3D" offset="100%"/></linearGradient><linearGradient x1="61.265%" y1="44.65%" x2="5.799%" y2="71.05%" id="b"><stop stop-color="#DD5E79" offset="34%"/><stop stop-color="#C4546B" offset="57%"/><stop stop-color="#AE4A5F" offset="83%"/><stop stop-color="#A6475B" offset="100%"/></linearGradient><linearGradient x1="49.349%" y1="49.567%" x2="81.217%" y2="71.49%" id="c"><stop stop-color="#DD5E79" offset="5%"/><stop stop-color="#CF5871" offset="11%"/><stop stop-color="#AC495E" offset="28%"/><stop stop-color="#913E50" offset="46%"/><stop stop-color="#7E3645" offset="63%"/><stop stop-color="#73313F" offset="81%"/><stop stop-color="#6F2F3D" offset="100%"/></linearGradient><linearGradient x1="0%" y1="49.989%" y2="49.989%" id="d"><stop stop-color="#DD5E79" offset="5%"/><stop stop-color="#DB5D78" offset="6%"/><stop stop-color="#BA4F66" offset="17%"/><stop stop-color="#9F4357" offset="29%"/><stop stop-color="#8A3A4B" offset="42%"/><stop stop-color="#7B3443" offset="57%"/><stop stop-color="#72303E" offset="74%"/><stop stop-color="#6F2F3D" offset="100%"/></linearGradient><linearGradient x1="0%" y1="50%" y2="50%" id="e"><stop stop-color="#DD5E79" offset="5%"/><stop stop-color="#D65B75" offset="10%"/><stop stop-color="#C15269" offset="26%"/><stop stop-color="#B24C61" offset="45%"/><stop stop-color="#A9485C" offset="67%"/><stop stop-color="#A6475B" offset="100%"/></linearGradient><linearGradient x1="7.56%" y1="45.428%" x2="104.524%" y2="67.209%" id="f"><stop stop-color="#A6475B" offset="5%"/><stop stop-color="#974153" offset="20%"/><stop stop-color="#813747" offset="48%"/><stop stop-color="#74313F" offset="76%"/><stop stop-color="#6F2F3D" offset="100%"/></linearGradient><linearGradient x1="-18.544%" y1="47.352%" x2="116.511%" y2="58.057%" id="g"><stop stop-color="#DD5E79" offset="5%"/><stop stop-color="#D55B75" offset="9%"/><stop stop-color="#B14B61" offset="27%"/><stop stop-color="#943F51" offset="46%"/><stop stop-color="#7F3646" offset="64%"/><stop stop-color="#73313F" offset="82%"/><stop stop-color="#6F2F3D" offset="100%"/></linearGradient><linearGradient x1="-23.039%" y1="46.993%" x2="121.552%" y2="56.119%" id="h"><stop stop-color="#DD5E79" offset="5%"/><stop stop-color="#CB566F" offset="23%"/><stop stop-color="#B64E64" offset="49%"/><stop stop-color="#AA495D" offset="75%"/><stop stop-color="#A6475B" offset="100%"/></linearGradient></defs><g fill-rule="nonzero" fill="none"><path fill="url(#a)" d="M63.04 60L49.77 0 .5 60h62.54"/><path fill="url(#b)" d="M99.26 60L49.77 0l12.89 60z"/><path fill="url(#c)" d="M15.31 60H.5l28.43-34.62z"/><path fill="url(#d)" d="M49.77 0L41.5 22.37l17.75 21.68"/><path fill="url(#e)" d="M59.1 11.31l11.84 33.17 27.2 14.17"/><path fill="url(#f)" d="M62.62 60H14.87l18.58-4.03 8.05-33.48 17.75 21.56z"/><path fill="url(#g)" d="M50.85 33.75L54.37 60h8.29l-3.41-15.95z"/><path fill="url(#h)" d="M70.43 60h6.13L64.45 26.25z"/></g></svg>