<svg data-name="Ebene 1" xmlns="http://www.w3.org/2000/svg" viewBox="0 0 98.76 80.01"><defs><linearGradient id="a" x1="62.54" y1="40" x2="0" y2="40" gradientUnits="userSpaceOnUse"><stop offset=".05" stop-color="#978ea7"/><stop offset=".19" stop-color="#898197"/><stop offset=".4" stop-color="#7b7589"/><stop offset=".64" stop-color="#736d80"/><stop offset="1" stop-color="#716b7d"/></linearGradient><linearGradient id="b" x1="75.26" y1="39.29" x2="47.81" y2="55.14" gradientUnits="userSpaceOnUse"><stop offset=".34" stop-color="#c1bbca"/><stop offset=".5" stop-color="#b3acbe"/><stop offset=".81" stop-color="#9e96ad"/><stop offset="1" stop-color="#978ea7"/></linearGradient><linearGradient id="c" x1="19.68" y1="49.86" x2="66.04" y2="58.04" gradientUnits="userSpaceOnUse"><stop offset=".05" stop-color="#978ea7"/><stop offset=".07" stop-color="#958da5"/><stop offset=".4" stop-color="#817a8f"/><stop offset=".72" stop-color="#756f82"/><stop offset="1" stop-color="#716b7d"/></linearGradient><linearGradient id="d" x1="13.23" y1="49.72" x2="28.79" y2="62.77" gradientUnits="userSpaceOnUse"><stop offset=".05" stop-color="#c1bbca"/><stop offset=".17" stop-color="#aea8b8"/><stop offset=".37" stop-color="#938d9e"/><stop offset=".57" stop-color="#807a8c"/><stop offset=".78" stop-color="#756f81"/><stop offset="1" stop-color="#716b7d"/></linearGradient><linearGradient id="e" x1="41" y1="22.5" x2="56.57" y2="22.5" gradientUnits="userSpaceOnUse"><stop offset=".05" stop-color="#c1bbca"/><stop offset=".07" stop-color="#bcb6c5"/><stop offset=".21" stop-color="#a19bab"/><stop offset=".35" stop-color="#8c8697"/><stop offset=".52" stop-color="#7d7788"/><stop offset=".71" stop-color="#746e80"/><stop offset="1" stop-color="#716b7d"/></linearGradient><linearGradient id="f" x1="56.31" y1="40.04" x2="91.77" y2="40.04" gradientUnits="userSpaceOnUse"><stop offset=".05" stop-color="#c1bbca"/><stop offset=".21" stop-color="#b0a8bc"/><stop offset=".41" stop-color="#a29ab0"/><stop offset=".64" stop-color="#9a91a9"/><stop offset="1" stop-color="#978ea7"/></linearGradient></defs><title>3-update_</title><path fill="url(#a)" d="M62.54 80L49.27 0 0 80h62.54"/><path fill="url(#b)" d="M98.76 80L49.27 0l12.89 80h36.6z"/><path fill="url(#c)" d="M62.16 80H14.37l18.58-13.97L41 22.54 56.57 45l5.59 35z"/><path fill="url(#d)" d="M14.81 79.43L0 80l33.61-54.57-18.8 54z"/><path fill="url(#e)" d="M49.27 0L41 22.43 56.57 45"/><path fill="url(#f)" d="M56.31 11.37l14.13 40.16L91.77 68.7"/></svg>