<svg width="100" height="70" viewBox="0 0 100 70" xmlns="http://www.w3.org/2000/svg"><title>Key_2_3_1</title><defs><linearGradient x1="100%" y1="50%" x2="0%" y2="50%" id="a"><stop stop-color="#A6475B" offset="5%"/><stop stop-color="#9F4457" offset="10%"/><stop stop-color="#8A3B4B" offset="26%"/><stop stop-color="#7B3443" offset="45%"/><stop stop-color="#72303E" offset="67%"/><stop stop-color="#6F2F3D" offset="100%"/></linearGradient><linearGradient x1="56.88%" y1="47.2%" x2="1.414%" y2="69.843%" id="b"><stop stop-color="#DD5E79" offset="34%"/><stop stop-color="#C4546B" offset="57%"/><stop stop-color="#AE4A5F" offset="83%"/><stop stop-color="#A6475B" offset="100%"/></linearGradient><linearGradient x1="44.349%" y1="46.661%" x2="83.317%" y2="69.677%" id="c"><stop stop-color="#DD5E79" offset="5%"/><stop stop-color="#CF5871" offset="11%"/><stop stop-color="#AC495E" offset="28%"/><stop stop-color="#913E50" offset="46%"/><stop stop-color="#7E3645" offset="63%"/><stop stop-color="#73313F" offset="81%"/><stop stop-color="#6F2F3D" offset="100%"/></linearGradient><linearGradient x1="0%" y1="49.989%" y2="49.989%" id="d"><stop stop-color="#DD5E79" offset="5%"/><stop stop-color="#DB5D78" offset="6%"/><stop stop-color="#BA4F66" offset="17%"/><stop stop-color="#9F4357" offset="29%"/><stop stop-color="#8A3A4B" offset="42%"/><stop stop-color="#7B3443" offset="57%"/><stop stop-color="#72303E" offset="74%"/><stop stop-color="#6F2F3D" offset="100%"/></linearGradient><linearGradient x1="0%" y1="50%" x2="99.975%" y2="50%" id="e"><stop stop-color="#DD5E79" offset="5%"/><stop stop-color="#D65B75" offset="10%"/><stop stop-color="#C15269" offset="26%"/><stop stop-color="#B24C61" offset="45%"/><stop stop-color="#A9485C" offset="67%"/><stop stop-color="#A6475B" offset="100%"/></linearGradient><linearGradient x1="9.34%" y1="46.706%" x2="106.325%" y2="63.902%" id="f"><stop stop-color="#A6475B" offset="5%"/><stop stop-color="#974153" offset="20%"/><stop stop-color="#813747" offset="48%"/><stop stop-color="#74313F" offset="76%"/><stop stop-color="#6F2F3D" offset="100%"/></linearGradient><linearGradient x1="-23.813%" y1="47.679%" x2="121.556%" y2="56.715%" id="g"><stop stop-color="#DD5E79" offset="5%"/><stop stop-color="#D55B75" offset="9%"/><stop stop-color="#B14B61" offset="27%"/><stop stop-color="#943F51" offset="46%"/><stop stop-color="#7F3646" offset="64%"/><stop stop-color="#73313F" offset="82%"/><stop stop-color="#6F2F3D" offset="100%"/></linearGradient><linearGradient x1="-24.14%" y1="47.314%" x2="122.288%" y2="56.251%" id="h"><stop stop-color="#DD5E79" offset="5%"/><stop stop-color="#CB566F" offset="23%"/><stop stop-color="#B64E64" offset="49%"/><stop stop-color="#AA495D" offset="75%"/><stop stop-color="#A6475B" offset="100%"/></linearGradient></defs><g fill-rule="nonzero" fill="none"><path fill="url(#a)" d="M63.04 70L49.77 0 .5 70h62.54"/><path fill="url(#b)" d="M99.26 70L49.77 0l12.89 70h34.55z"/><path fill="url(#c)" d="M15.31 70H.5l31.41-44.62z"/><path fill="url(#d)" d="M49.77 0L41.5 22.37l16.55 22.58"/><path fill="url(#e)" d="M57.77 11.31l13.17 38.17 27.37 19.17"/><path fill="url(#f)" d="M62.62 70H14.87l18.58-4.03 8.05-43.48 16.55 22.46z"/><path fill="url(#g)" d="M49.77 33.59L53.29 70h9.33l-4.57-25.05z"/><path fill="url(#h)" d="M68.9 70h9.14L62.92 26.25z"/></g></svg>