<svg data-name="Ebene 2" xmlns="http://www.w3.org/2000/svg" viewBox="0 0 98.76 90.06"><defs><linearGradient id="a" x1="62.54" y1="45" x2="0" y2="45" gradientUnits="userSpaceOnUse"><stop offset=".05" stop-color="#536498"/><stop offset=".07" stop-color="#516295"/><stop offset=".24" stop-color="#465480"/><stop offset=".44" stop-color="#3e4a71"/><stop offset=".66" stop-color="#394568"/><stop offset="1" stop-color="#384365"/></linearGradient><linearGradient id="b" x1="74.95" y1="44.47" x2="45.64" y2="61.39" gradientUnits="userSpaceOnUse"><stop offset=".34" stop-color="#6f86ca"/><stop offset=".54" stop-color="#6478b6"/><stop offset=".82" stop-color="#5769a0"/><stop offset="1" stop-color="#536498"/></linearGradient><linearGradient id="c" x1="19.6" y1="50.6" x2="67.99" y2="59.13" gradientUnits="userSpaceOnUse"><stop offset=".05" stop-color="#536498"/><stop offset=".21" stop-color="#4a5987"/><stop offset=".47" stop-color="#404d74"/><stop offset=".73" stop-color="#3a4569"/><stop offset="1" stop-color="#384365"/></linearGradient><linearGradient id="d" x1="12.43" y1="52.68" x2="26.97" y2="64.88" gradientUnits="userSpaceOnUse"><stop offset=".05" stop-color="#6f86ca"/><stop offset=".07" stop-color="#6c82c5"/><stop offset=".25" stop-color="#596ca2"/><stop offset=".43" stop-color="#4b5a87"/><stop offset=".62" stop-color="#404d74"/><stop offset=".8" stop-color="#3a4669"/><stop offset="1" stop-color="#384365"/></linearGradient><linearGradient id="e" x1="41" y1="22.47" x2="55.77" y2="22.47" gradientUnits="userSpaceOnUse"><stop offset=".05" stop-color="#6f86ca"/><stop offset=".14" stop-color="#6175b0"/><stop offset=".27" stop-color="#526395"/><stop offset=".4" stop-color="#465580"/><stop offset=".56" stop-color="#3e4b71"/><stop offset=".73" stop-color="#394568"/><stop offset="1" stop-color="#384365"/></linearGradient><linearGradient id="f" x1="55.58" y1="39.98" x2="87.04" y2="39.98" gradientUnits="userSpaceOnUse"><stop offset=".05" stop-color="#6f86ca"/><stop offset=".07" stop-color="#6e84c7"/><stop offset=".24" stop-color="#6276b2"/><stop offset=".43" stop-color="#596ca4"/><stop offset=".66" stop-color="#55669b"/><stop offset="1" stop-color="#536498"/></linearGradient></defs><title>5-update_</title><path fill="url(#a)" d="M62.54 90.01L49.27 0 0 90.01h62.54"/><path fill="url(#b)" d="M98.76 90.01L49.27 0l12.89 90.01h36.6z"/><path fill="url(#c)" d="M62.54 90.06L14.37 80.3l18.58-14.33L41 22.49l14.77 22.57 6.77 45z"/><path fill="url(#d)" d="M14.81 79.37L.44 89.14l34.9-63.76-20.53 53.99z"/><path fill="url(#e)" d="M49.27 0L41 22.37l14.77 22.58"/><path fill="url(#f)" d="M55.58 11.31l14.86 43.17 16.6 14.17"/></svg>