<svg id="Ebene_1" data-name="Ebene 1" xmlns="http://www.w3.org/2000/svg" xmlns:xlink="http://www.w3.org/1999/xlink" viewBox="0 0 99.75 80.01"><defs><style>.cls-1{fill:url(#Unbenannter_Verlauf_35);}.cls-2{fill:url(#_1_LIGHT);}.cls-3{fill:url(#Unbenannter_Verlauf_30);}.cls-4{fill:url(#Unbenannter_Verlauf_32);}.cls-5{fill:url(#Unbenannter_Verlauf_9);}.cls-6{fill:url(#Unbenannter_Verlauf_13);}.cls-7{fill:url(#Unbenannter_Verlauf_11);}.cls-8{fill:url(#Unbenannter_Verlauf_7);}</style><linearGradient id="Unbenannter_Verlauf_35" x1="63.52" y1="40" x2="0.98" y2="40" gradientUnits="userSpaceOnUse"><stop offset="0.05" stop-color="#7d1026"/><stop offset="0.19" stop-color="#6d0e22"/><stop offset="0.4" stop-color="#5f0c1d"/><stop offset="0.64" stop-color="#560b1b"/><stop offset="1" stop-color="#530b1a"/></linearGradient><linearGradient id="_1_LIGHT" x1="76.24" y1="39.29" x2="48.79" y2="55.14" gradientUnits="userSpaceOnUse"><stop offset="0.34" stop-color="#a61533"/><stop offset="0.47" stop-color="#9b1430"/><stop offset="0.79" stop-color="#851129"/><stop offset="1" stop-color="#7d1026"/></linearGradient><linearGradient id="Unbenannter_Verlauf_30" x1="20.67" y1="49.77" x2="67.04" y2="57.95" gradientUnits="userSpaceOnUse"><stop offset="0.05" stop-color="#a61533"/><stop offset="0.34" stop-color="#91122d"/><stop offset="0.93" stop-color="#590c1c"/><stop offset="1" stop-color="#530b1a"/></linearGradient><linearGradient id="Unbenannter_Verlauf_32" x1="14.01" y1="49.96" x2="29.27" y2="62.76" gradientUnits="userSpaceOnUse"><stop offset="0.05" stop-color="#a61533"/><stop offset="0.13" stop-color="#9f1431"/><stop offset="0.41" stop-color="#8c122b"/><stop offset="0.7" stop-color="#811027"/><stop offset="1" stop-color="#7d1026"/></linearGradient><linearGradient id="Unbenannter_Verlauf_9" x1="57.28" y1="39.96" x2="92.68" y2="39.96" gradientUnits="userSpaceOnUse"><stop offset="0.05" stop-color="#a61533"/><stop offset="0.19" stop-color="#97132e"/><stop offset="0.39" stop-color="#89112a"/><stop offset="0.63" stop-color="#801027"/><stop offset="1" stop-color="#7d1026"/></linearGradient><linearGradient id="Unbenannter_Verlauf_13" x1="45.56" y1="54.6" x2="66.96" y2="58.37" gradientUnits="userSpaceOnUse"><stop offset="0.05" stop-color="#a61533"/><stop offset="0.16" stop-color="#94132e"/><stop offset="0.37" stop-color="#780f25"/><stop offset="0.58" stop-color="#630d1f"/><stop offset="0.79" stop-color="#570b1b"/><stop offset="1" stop-color="#530b1a"/></linearGradient><linearGradient id="Unbenannter_Verlauf_11" x1="41.99" y1="22.46" x2="57.54" y2="22.46" gradientUnits="userSpaceOnUse"><stop offset="0.05" stop-color="#a61533"/><stop offset="0.08" stop-color="#9e1431"/><stop offset="0.22" stop-color="#831128"/><stop offset="0.36" stop-color="#6e0e22"/><stop offset="0.52" stop-color="#5f0c1d"/><stop offset="0.71" stop-color="#560b1b"/><stop offset="1" stop-color="#530b1a"/></linearGradient><linearGradient id="Unbenannter_Verlauf_7" x1="58.16" y1="51.84" x2="85.29" y2="56.63" gradientUnits="userSpaceOnUse"><stop offset="0.05" stop-color="#a61533"/><stop offset="0.1" stop-color="#a21432"/><stop offset="0.4" stop-color="#8d122b"/><stop offset="0.71" stop-color="#811127"/><stop offset="1" stop-color="#7d1026"/></linearGradient></defs><title>Key_</title><polyline class="cls-1" points="63.52 80 50.26 0 0.98 80 63.52 80"/><polygon class="cls-2" points="99.75 80 50.26 0 63.15 80 99.75 80"/><polygon class="cls-3" points="63.15 80 15.34 80 33.92 65.92 41.99 22.36 57.55 45 63.15 80"/><polygon class="cls-4" points="14.79 80 0 80 34.6 25.43 14.79 80"/><polyline class="cls-5" points="57.28 11.36 72.4 54.52 92.68 68.56"/><polygon class="cls-6" points="49.37 32.96 53.73 78.02 63.15 80 57.55 45 49.37 32.96"/><polyline class="cls-7" points="50.26 0 41.99 22.36 57.55 44.93"/><polygon class="cls-8" points="68.19 80 81.17 80 62.67 26.25 68.19 80"/></svg>