<svg data-name="Ebene 1" xmlns="http://www.w3.org/2000/svg" viewBox="0 0 98.76 90.01"><defs><linearGradient id="a" x1="62.54" y1="45" x2="0" y2="45" gradientUnits="userSpaceOnUse"><stop offset=".05" stop-color="#978ea7"/><stop offset=".19" stop-color="#898197"/><stop offset=".4" stop-color="#7b7589"/><stop offset=".64" stop-color="#736d80"/><stop offset="1" stop-color="#716b7d"/></linearGradient><linearGradient id="b" x1="74.95" y1="44.47" x2="45.64" y2="61.39" gradientUnits="userSpaceOnUse"><stop offset=".34" stop-color="#c1bbca"/><stop offset=".5" stop-color="#b3acbe"/><stop offset=".81" stop-color="#9e96ad"/><stop offset="1" stop-color="#978ea7"/></linearGradient><linearGradient id="c" x1="19.62" y1="50.58" x2="67.62" y2="59.05" gradientUnits="userSpaceOnUse"><stop offset=".05" stop-color="#978ea7"/><stop offset=".07" stop-color="#958da5"/><stop offset=".4" stop-color="#817a8f"/><stop offset=".72" stop-color="#756f82"/><stop offset="1" stop-color="#716b7d"/></linearGradient><linearGradient id="d" x1="12.43" y1="52.73" x2="26.97" y2="64.93" gradientUnits="userSpaceOnUse"><stop offset=".05" stop-color="#c1bbca"/><stop offset=".17" stop-color="#aea8b8"/><stop offset=".37" stop-color="#938d9e"/><stop offset=".57" stop-color="#807a8c"/><stop offset=".78" stop-color="#756f81"/><stop offset="1" stop-color="#716b7d"/></linearGradient><linearGradient id="e" x1="41" y1="22.5" x2="55.72" y2="22.5" gradientUnits="userSpaceOnUse"><stop offset=".05" stop-color="#c1bbca"/><stop offset=".07" stop-color="#bcb6c5"/><stop offset=".21" stop-color="#a19bab"/><stop offset=".35" stop-color="#8c8697"/><stop offset=".52" stop-color="#7d7788"/><stop offset=".71" stop-color="#746e80"/><stop offset="1" stop-color="#716b7d"/></linearGradient><linearGradient id="f" x1="55.67" y1="40.18" x2="87.04" y2="40.18" gradientUnits="userSpaceOnUse"><stop offset=".05" stop-color="#c1bbca"/><stop offset=".21" stop-color="#b0a8bc"/><stop offset=".41" stop-color="#a29ab0"/><stop offset=".64" stop-color="#9a91a9"/><stop offset="1" stop-color="#978ea7"/></linearGradient></defs><title>3-update_</title><path fill="url(#a)" d="M62.54 90.01L49.27 0 0 90.01h62.54"/><path fill="url(#b)" d="M98.76 90.01L49.27 0l12.89 90.01h34.55"/><path fill="url(#c)" d="M62.16 90.01l-47.79-9.65 18.58-14.33L41 22.43 55.72 45l6.44 45.01z"/><path fill="url(#d)" d="M14.81 79.43L.44 89.19l34.9-63.76-20.53 54z"/><path fill="url(#e)" d="M49.27 0L41 22.43 55.72 45"/><path fill="url(#f)" d="M55.67 11.66l14.77 42.87 16.6 14.17"/></svg>