<svg viewBox="0 0 100 60" xmlns="http://www.w3.org/2000/svg"><title>Key_4_2_1</title><defs><linearGradient x1="100%" y1="50%" x2="0%" y2="50%" id="a"><stop stop-color="#5A7EBC" offset="5%"/><stop stop-color="#5374AD" offset="14%"/><stop stop-color="#496698" offset="30%"/><stop stop-color="#415C89" offset="48%"/><stop stop-color="#3D5680" offset="68%"/><stop stop-color="#3C547D" offset="100%"/></linearGradient><linearGradient x1="61.253%" y1="44.65%" x2="5.798%" y2="71.05%" id="b"><stop stop-color="#9CB2D7" offset="34%"/><stop stop-color="#9CB2D7" offset="34%"/><stop stop-color="#7896C8" offset="62%"/><stop stop-color="#6284BF" offset="85%"/><stop stop-color="#5A7EBC" offset="100%"/></linearGradient><linearGradient x1="49.367%" y1="49.567%" x2="81.188%" y2="71.49%" id="c"><stop stop-color="#9CB2D7" offset="5%"/><stop stop-color="#9CB2D7" offset="5%"/><stop stop-color="#7990B6" offset="23%"/><stop stop-color="#5E769D" offset="42%"/><stop stop-color="#4B638B" offset="61%"/><stop stop-color="#405881" offset="80%"/><stop stop-color="#3C547D" offset="100%"/></linearGradient><linearGradient x1="0%" y1="49.989%" y2="49.989%" id="d"><stop stop-color="#9CB2D7" offset="5%"/><stop stop-color="#8AA3CF" offset="15%"/><stop stop-color="#7593C7" offset="31%"/><stop stop-color="#6687C1" offset="48%"/><stop stop-color="#5D80BD" offset="69%"/><stop stop-color="#5A7EBC" offset="100%"/></linearGradient><linearGradient x1="27.159%" y1="64.34%" x2="80.718%" y2="16.634%" id="e"><stop stop-color="#9CB2D7" offset="0%"/><stop stop-color="#8AA3CF" offset="15%"/><stop stop-color="#7593C7" offset="31%"/><stop stop-color="#6687C1" offset="48%"/><stop stop-color="#5D80BD" offset="69%"/><stop stop-color="#5A7EBC" offset="100%"/></linearGradient><linearGradient x1="7.56%" y1="45.428%" x2="104.545%" y2="67.209%" id="f"><stop stop-color="#5A7EBC" offset="5%"/><stop stop-color="#4B699C" offset="43%"/><stop stop-color="#405A85" offset="78%"/><stop stop-color="#3C547D" offset="100%"/></linearGradient><linearGradient x1="-18.528%" y1="47.352%" x2="116.413%" y2="58.057%" id="g"><stop stop-color="#9CB2D7" offset="5%"/><stop stop-color="#7D94BA" offset="22%"/><stop stop-color="#6178A0" offset="42%"/><stop stop-color="#4C648C" offset="61%"/><stop stop-color="#405881" offset="81%"/><stop stop-color="#3C547D" offset="100%"/></linearGradient><linearGradient x1="-23.32%" y1="47.319%" x2="121.577%" y2="56.444%" id="h"><stop stop-color="#9CB2D7" offset="5%"/><stop stop-color="#91A9D3" offset="18%"/><stop stop-color="#698AC2" offset="72%"/><stop stop-color="#5A7EBC" offset="100%"/></linearGradient></defs><g fill="none" fill-rule="evenodd"><path fill="url(#a)" d="M62.78 60L49.51 0 .24 60h62.54"/><path fill="url(#b)" d="M99.01 60L49.51 0l12.9 60z"/><path fill="url(#c)" d="M15.05 60H.24l28.44-34.62z"/><path fill="url(#d)" d="M49.51 0l-8.27 22.37 17.75 21.68"/><path fill="url(#e)" d="M58.84 11.31l11.84 33.17 27.21 14.17"/><path fill="url(#f)" d="M62.36 60H14.61l18.58-4.03 8.05-33.48 17.75 21.56z"/><path fill="url(#g)" d="M50.59 33.75L54.12 60h8.29l-3.42-15.95z"/><path fill="url(#h)" d="M68.78 60h7.44L64.17 26.25z"/></g></svg>