<svg viewBox="0 0 100 80" xmlns="http://www.w3.org/2000/svg"><title>Key_4_4_1</title><defs><linearGradient x1="100%" y1="50%" x2="0%" y2="50%" id="a"><stop stop-color="#5A7EBC" offset="5%"/><stop stop-color="#5374AD" offset="14%"/><stop stop-color="#496698" offset="30%"/><stop stop-color="#415C89" offset="48%"/><stop stop-color="#3D5680" offset="68%"/><stop stop-color="#3C547D" offset="100%"/></linearGradient><linearGradient x1="38.014%" y1="54.899%" x2="1.414%" y2="69.843%" id="b"><stop stop-color="#9CB2D7" offset="0%"/><stop stop-color="#9CB2D7" offset="34%"/><stop stop-color="#7896C8" offset="62%"/><stop stop-color="#6284BF" offset="85%"/><stop stop-color="#5A7EBC" offset="100%"/></linearGradient><linearGradient x1="11.148%" y1="47.559%" x2="108.115%" y2="61.751%" id="c"><stop stop-color="#5A7EBC" offset="5%"/><stop stop-color="#4B699C" offset="43%"/><stop stop-color="#405A85" offset="78%"/><stop stop-color="#3C547D" offset="100%"/></linearGradient><linearGradient x1="40.491%" y1="44.951%" x2="84.595%" y2="68.408%" id="d"><stop stop-color="#9CB2D7" offset="5%"/><stop stop-color="#9CB2D7" offset="5%"/><stop stop-color="#7990B6" offset="23%"/><stop stop-color="#5E769D" offset="42%"/><stop stop-color="#4B638B" offset="61%"/><stop stop-color="#405881" offset="80%"/><stop stop-color="#3C547D" offset="100%"/></linearGradient><linearGradient x1="27.159%" y1="64.34%" x2="95.465%" y2="28.454%" id="e"><stop stop-color="#9CB2D7" offset="0%"/><stop stop-color="#8AA3CF" offset="15%"/><stop stop-color="#7593C7" offset="31%"/><stop stop-color="#6687C1" offset="48%"/><stop stop-color="#5D80BD" offset="69%"/><stop stop-color="#5A7EBC" offset="100%"/></linearGradient><linearGradient x1="-27.649%" y1="46.003%" x2="127.649%" y2="54.018%" id="f"><stop stop-color="#9CB2D7" offset="5%"/><stop stop-color="#7D94BA" offset="22%"/><stop stop-color="#6178A0" offset="42%"/><stop stop-color="#4C648C" offset="61%"/><stop stop-color="#405881" offset="81%"/><stop stop-color="#3C547D" offset="100%"/></linearGradient><linearGradient x1="5%" y1="49.986%" y2="49.986%" id="g"><stop stop-color="#9CB2D7" offset="0%"/><stop stop-color="#8AA3CF" offset="15%"/><stop stop-color="#7593C7" offset="31%"/><stop stop-color="#6687C1" offset="48%"/><stop stop-color="#5D80BD" offset="69%"/><stop stop-color="#5A7EBC" offset="100%"/></linearGradient><linearGradient x1="-24.008%" y1="47.691%" x2="121.787%" y2="56.703%" id="h"><stop stop-color="#9CB2D7" offset="5%"/><stop stop-color="#91A9D3" offset="18%"/><stop stop-color="#698AC2" offset="72%"/><stop stop-color="#5A7EBC" offset="100%"/></linearGradient></defs><g fill="none" fill-rule="evenodd"><path fill="url(#a)" d="M63.77 80L50.5 0 1.23 80h62.54" transform="translate(-.447)"/><path fill="url(#b)" d="M99.99 80L50.5 0l12.89 80z" transform="translate(-.447)"/><path fill="url(#c)" d="M63.39 80H15.58l18.58-14.08 8.06-43.49L57.79 45z" transform="translate(-.447)"/><path fill="url(#d)" d="M15.04 80H.24l34.6-54.57z" transform="translate(-.447)"/><path fill="url(#e)" d="M57.52 11.36l15.12 43.16 20.28 14.04" transform="translate(-.447)"/><path fill="url(#f)" d="M49.61 32.96l4.36 45.06L63.39 80l-5.6-35z" transform="translate(-.447)"/><path fill="url(#g)" d="M50.5 0l-8.27 22.36 15.56 22.57" transform="translate(-.447)"/><path fill="url(#h)" d="M67.76 80h13.83L62.68 26.07z" transform="translate(-.447)"/></g></svg>