<svg id="bd5c020c-0b9c-484d-af33-6f8fa6cd9905" data-name="Ebene 1" xmlns="http://www.w3.org/2000/svg" xmlns:xlink="http://www.w3.org/1999/xlink" viewBox="0 0 87.23 94.07"><defs><linearGradient id="f849bec0-81ae-4aa3-af95-d314c674f9fb" x1="2244.79" y1="742.4" x2="2171.32" y2="742.4" gradientTransform="translate(2257.39 789.4) rotate(180)" gradientUnits="userSpaceOnUse"><stop offset="0" stop-color="#ac3926"/><stop offset="0.23" stop-color="#b33b28"/><stop offset="0.57" stop-color="#c7412c"/><stop offset="0.95" stop-color="#e64b33"/></linearGradient><linearGradient id="a497dff2-7c60-474c-b7ba-922f1cf89aef" x1="2194.44" y1="753.92" x2="2235.08" y2="761.09" gradientTransform="translate(2257.39 789.4) rotate(180)" gradientUnits="userSpaceOnUse"><stop offset="0.05" stop-color="#eb6f5c"/><stop offset="0.32" stop-color="#e85b45"/><stop offset="0.58" stop-color="#e74f38"/><stop offset="0.81" stop-color="#e64b33"/></linearGradient><linearGradient id="d14c3446-51fb-484d-b419-3319d298ac79" x1="2172.82" y1="737.12" x2="2207.2" y2="765.97" gradientTransform="translate(2257.39 789.4) rotate(180)" gradientUnits="userSpaceOnUse"><stop offset="0.05" stop-color="#eb6f5c"/><stop offset="0.39" stop-color="#e85b45"/><stop offset="0.71" stop-color="#e74f38"/><stop offset="1" stop-color="#e64b33"/></linearGradient><linearGradient id="9ee02da3-319d-4b82-8b7a-af83243da929" x1="2213.86" y1="753.61" x2="2262.2" y2="762.13" xlink:href="#d14c3446-51fb-484d-b419-3319d298ac79"/><linearGradient id="26323088-ea8f-47f8-9acb-39ae3f06bad6" x1="2219.49" y1="742.36" x2="2257.39" y2="742.36" gradientTransform="translate(2257.39 789.4) rotate(180)" gradientUnits="userSpaceOnUse"><stop offset="0" stop-color="#ac3926"/><stop offset="0.25" stop-color="#b03a27"/><stop offset="0.5" stop-color="#bc3e2a"/><stop offset="0.75" stop-color="#d1442e"/><stop offset="0.95" stop-color="#e64b33"/></linearGradient></defs><title>Key_T2_</title><polyline points="12.61 0 28.19 93.98 60.71 80.72 86.07 0 12.61 0" fill="url(#f849bec0-81ae-4aa3-af95-d314c674f9fb)"/><polygon points="27.29 0.09 69.21 0 47.38 16.55 37.92 67.64 33.4 40.36 27.29 0.09" fill="url(#a497dff2-7c60-474c-b7ba-922f1cf89aef)"/><polygon points="69.85 0 87.23 0 60.71 80.72 37.92 67.64 69.85 0" fill="url(#d14c3446-51fb-484d-b419-3319d298ac79)"/><polygon points="37.92 67.64 27.29 0.09 0 0 19.63 41.12 37.92 67.64" fill="url(#9ee02da3-319d-4b82-8b7a-af83243da929)"/><polyline points="28.19 94.07 37.91 67.72 19.63 41.12 0 0" fill="url(#26323088-ea8f-47f8-9acb-39ae3f06bad6)"/></svg>