<svg id="a66f59de-87bb-40f9-b145-142893dd7f05" data-name="Ebene 1" xmlns="http://www.w3.org/2000/svg" xmlns:xlink="http://www.w3.org/1999/xlink" viewBox="0 0 87.23 94.07"><defs><linearGradient id="dc715be6-723a-418d-a65c-87b7a924e3af" x1="2244.79" y1="77.71" x2="2171.32" y2="77.71" gradientTransform="translate(2257.39 124.71) rotate(180)" gradientUnits="userSpaceOnUse"><stop offset="0.05" stop-color="#6bb59f"/><stop offset="0.12" stop-color="#64a994"/><stop offset="0.29" stop-color="#579481"/><stop offset="0.47" stop-color="#4e8574"/><stop offset="0.68" stop-color="#497c6c"/><stop offset="1" stop-color="#47796a"/></linearGradient><linearGradient id="31ce99b2-78f2-4d44-9359-0c7619d8bdd1" x1="2194.44" y1="89.23" x2="2235.08" y2="96.4" gradientTransform="translate(2257.39 124.71) rotate(180)" gradientUnits="userSpaceOnUse"><stop offset="0.07" stop-color="#6bb59f"/><stop offset="0.29" stop-color="#68b09a"/><stop offset="0.57" stop-color="#5ea08c"/><stop offset="0.87" stop-color="#4f8676"/><stop offset="1" stop-color="#47796a"/></linearGradient><linearGradient id="67b7ef90-5b71-4d06-bfc3-2181909ef3b0" x1="2172.82" y1="72.43" x2="2207.2" y2="101.28" gradientTransform="translate(2257.39 124.71) rotate(180)" gradientUnits="userSpaceOnUse"><stop offset="0.05" stop-color="#8ef1d4"/><stop offset="0.23" stop-color="#80dabf"/><stop offset="0.45" stop-color="#75c5ad"/><stop offset="0.67" stop-color="#6db9a3"/><stop offset="0.88" stop-color="#6bb59f"/></linearGradient><linearGradient id="4bfee1bb-bf7a-4859-90f0-b2c2514881a0" x1="2213.86" y1="88.92" x2="2262.2" y2="97.44" xlink:href="#67b7ef90-5b71-4d06-bfc3-2181909ef3b0"/><linearGradient id="4621cab1-0b77-48d2-996b-c3e37e952961" x1="2219.49" y1="77.67" x2="2257.39" y2="77.67" gradientTransform="translate(2257.39 124.71) rotate(180)" gradientUnits="userSpaceOnUse"><stop offset="0" stop-color="#47796a"/><stop offset="0.25" stop-color="#497d6d"/><stop offset="0.49" stop-color="#508877"/><stop offset="0.73" stop-color="#5c9b88"/><stop offset="0.95" stop-color="#6bb59f"/></linearGradient></defs><title>Key_T2_</title><polyline points="12.61 0 28.19 93.98 60.71 80.72 86.07 0 12.61 0" fill="url(#dc715be6-723a-418d-a65c-87b7a924e3af)"/><polygon points="27.29 0.09 69.21 0 47.38 16.55 37.92 67.64 33.4 40.36 27.29 0.09" fill="url(#31ce99b2-78f2-4d44-9359-0c7619d8bdd1)"/><polygon points="69.85 0 87.23 0 60.71 80.72 37.92 67.64 69.85 0" fill="url(#67b7ef90-5b71-4d06-bfc3-2181909ef3b0)"/><polygon points="37.92 67.64 27.29 0.09 0 0 19.63 41.12 37.92 67.64" fill="url(#4bfee1bb-bf7a-4859-90f0-b2c2514881a0)"/><polyline points="28.19 94.07 37.91 67.72 19.63 41.12 0 0" fill="url(#4621cab1-0b77-48d2-996b-c3e37e952961)"/></svg>