<svg id="9e556dc5-a697-4200-a742-d387e24da034" data-name="Ebene 1" xmlns="http://www.w3.org/2000/svg" xmlns:xlink="http://www.w3.org/1999/xlink" viewBox="0 0 128.07 94.07"><defs><linearGradient id="53fc2cfd-fd0a-4810-9084-44532fbe9a0c" x1="2592.45" y1="147.32" x2="2484.58" y2="147.32" gradientTransform="translate(2610.96 194.31) rotate(180)" gradientUnits="userSpaceOnUse"><stop offset="0.05" stop-color="#6bb59f"/><stop offset="0.12" stop-color="#64a994"/><stop offset="0.29" stop-color="#579481"/><stop offset="0.47" stop-color="#4e8574"/><stop offset="0.68" stop-color="#497c6c"/><stop offset="1" stop-color="#47796a"/></linearGradient><linearGradient id="9871001a-29b3-4dd2-bdfe-65da4842c5b3" x1="2515.82" y1="157.59" x2="2586.25" y2="170.01" gradientTransform="translate(2610.96 194.31) rotate(180)" gradientUnits="userSpaceOnUse"><stop offset="0.07" stop-color="#6bb59f"/><stop offset="0.29" stop-color="#68b09a"/><stop offset="0.57" stop-color="#5ea08c"/><stop offset="0.87" stop-color="#4f8676"/><stop offset="1" stop-color="#47796a"/></linearGradient><linearGradient id="12d09d47-33a8-4f5d-afee-12c94021d2cc" x1="2497.59" y1="142.46" x2="2529.47" y2="169.21" gradientTransform="translate(2610.96 194.31) rotate(180)" gradientUnits="userSpaceOnUse"><stop offset="0.05" stop-color="#8ef1d4"/><stop offset="0.23" stop-color="#80dabf"/><stop offset="0.45" stop-color="#75c5ad"/><stop offset="0.67" stop-color="#6db9a3"/><stop offset="0.88" stop-color="#6bb59f"/></linearGradient><linearGradient id="e5b09ed9-22bd-4ef5-b304-9c1c9f35546e" x1="2549.74" y1="158.1" x2="2615.3" y2="169.66" xlink:href="#12d09d47-33a8-4f5d-afee-12c94021d2cc"/><linearGradient id="a7d3dc86-1db5-4aa3-acc7-8b447ce15c2f" x1="2555.3" y1="147.28" x2="2610.96" y2="147.28" gradientTransform="translate(2610.96 194.31) rotate(180)" gradientUnits="userSpaceOnUse"><stop offset="0" stop-color="#47796a"/><stop offset="0.25" stop-color="#497d6d"/><stop offset="0.49" stop-color="#508877"/><stop offset="0.73" stop-color="#5c9b88"/><stop offset="0.95" stop-color="#6bb59f"/></linearGradient></defs><title>Key_T</title><polyline points="40.07 0 41.39 93.98 89.13 80.72 126.37 0 18.51 0" fill="url(#53fc2cfd-fd0a-4810-9084-44532fbe9a0c)"/><polygon points="28.99 0 101.62 0 69.56 16.55 55.67 67.64 48.09 41.12 28.99 0" fill="url(#9871001a-29b3-4dd2-bdfe-65da4842c5b3)"/><polygon points="102.56 0 128.07 0 89.13 80.72 55.67 67.64 102.56 0" fill="url(#12d09d47-33a8-4f5d-afee-12c94021d2cc)"/><polygon points="55.67 67.64 40.07 0.09 0 0 28.82 41.12 55.67 67.64" fill="url(#e5b09ed9-22bd-4ef5-b304-9c1c9f35546e)"/><polyline points="41.39 94.07 55.65 67.72 28.82 41.12 0 0" fill="url(#a7d3dc86-1db5-4aa3-acc7-8b447ce15c2f)"/></svg>