<svg id="de86700b-4abf-4bfc-9492-a9bbc9730210" data-name="Ebene 1" xmlns="http://www.w3.org/2000/svg" xmlns:xlink="http://www.w3.org/1999/xlink" viewBox="0 0 128.07 94.07"><defs><linearGradient id="12f16c8e-56c3-4bff-a006-1bdddc1df03a" x1="2592.11" y1="1185.28" x2="2484.24" y2="1185.28" gradientTransform="translate(2610.28 1232.27) rotate(180)" gradientUnits="userSpaceOnUse"><stop offset="0" stop-color="#3d3785"/><stop offset="0.25" stop-color="#413b89"/><stop offset="0.49" stop-color="#4c4595"/><stop offset="0.73" stop-color="#5e57a9"/><stop offset="0.95" stop-color="#746dc1"/></linearGradient><linearGradient id="9b25017d-6372-46e4-8c99-504496790412" x1="2515.48" y1="1195.55" x2="2584.94" y2="1207.8" gradientTransform="translate(2610.28 1232.27) rotate(180)" gradientUnits="userSpaceOnUse"><stop offset="0.34" stop-color="#746dc1"/><stop offset="0.42" stop-color="#6e67be"/><stop offset="0.77" stop-color="#5951b5"/><stop offset="1" stop-color="#5149b2"/></linearGradient><linearGradient id="dda1236d-e109-4208-ba73-9f3a630ef613" x1="2497.25" y1="1180.42" x2="2529.13" y2="1207.17" xlink:href="#9b25017d-6372-46e4-8c99-504496790412"/><linearGradient id="28920b0c-37b2-4ed3-a388-5a280a6cd714" x1="2549.4" y1="1196.06" x2="2614.96" y2="1207.62" xlink:href="#9b25017d-6372-46e4-8c99-504496790412"/><linearGradient id="57bc5d7d-f783-4ad8-8b43-48d926903256" x1="2554.96" y1="1185.24" x2="2610.62" y2="1185.24" xlink:href="#12f16c8e-56c3-4bff-a006-1bdddc1df03a"/></defs><title>Key_T</title><polyline points="18.17 0 41.05 93.98 88.79 80.72 126.03 0 18.17 0" fill="url(#12f16c8e-56c3-4bff-a006-1bdddc1df03a)"/><polygon points="29.66 0 101.28 0 69.22 16.55 55.34 67.64 40.75 41.12 29.66 0" fill="url(#9b25017d-6372-46e4-8c99-504496790412)"/><polygon points="102.22 0 127.73 0 88.79 80.72 55.34 67.64 102.22 0" fill="url(#dda1236d-e109-4208-ba73-9f3a630ef613)"/><polygon points="55.34 67.64 39.73 0.09 -0.34 0 28.48 41.12 55.34 67.64" fill="url(#28920b0c-37b2-4ed3-a388-5a280a6cd714)"/><polyline points="41.05 94.07 55.31 67.72 28.48 41.12 -0.34 0" fill="url(#57bc5d7d-f783-4ad8-8b43-48d926903256)"/></svg>