<svg id="ad06fbc2-a508-41cf-879b-02ef4556b428" data-name="Ebene 1" xmlns="http://www.w3.org/2000/svg" xmlns:xlink="http://www.w3.org/1999/xlink" viewBox="0 0 87.23 94.07"><defs><linearGradient id="d35856e7-90c0-4ad8-8409-bdd1a34841d6" x1="2244.79" y1="300.05" x2="2171.32" y2="300.05" gradientTransform="translate(2257.39 347.05) rotate(180)" gradientUnits="userSpaceOnUse"><stop offset="0.05" stop-color="#905ceb"/><stop offset="0.06" stop-color="#8f5beb"/><stop offset="0.39" stop-color="#8045e8"/><stop offset="0.71" stop-color="#7738e7"/><stop offset="1" stop-color="#7433e6"/></linearGradient><linearGradient id="7dddc297-bca3-4774-bf0a-8697218ae528" x1="2194.44" y1="311.57" x2="2235.08" y2="318.74" gradientTransform="translate(2257.39 347.05) rotate(180)" gradientUnits="userSpaceOnUse"><stop offset="0.26" stop-color="#ab85f0"/><stop offset="0.41" stop-color="#a47aef"/><stop offset="0.77" stop-color="#9564ec"/><stop offset="1" stop-color="#905ceb"/></linearGradient><linearGradient id="9a8ee50b-354a-4fd5-b683-5d273d425c6c" x1="2172.82" y1="294.77" x2="2207.2" y2="323.62" xlink:href="#7dddc297-bca3-4774-bf0a-8697218ae528"/><linearGradient id="4c65b802-eb55-40dd-ad33-04cd6f5b5b41" x1="2213.86" y1="311.26" x2="2262.2" y2="319.78" xlink:href="#7dddc297-bca3-4774-bf0a-8697218ae528"/><linearGradient id="a4b01cbf-4d6c-4c62-966d-4d3cfa54697b" x1="2219.49" y1="300.01" x2="2257.39" y2="300.01" xlink:href="#d35856e7-90c0-4ad8-8409-bdd1a34841d6"/></defs><title>Key_T2_</title><polyline points="12.61 0 28.19 93.98 60.71 80.72 86.07 0 12.61 0" fill="url(#d35856e7-90c0-4ad8-8409-bdd1a34841d6)"/><polygon points="27.29 0.09 69.21 0 47.38 16.55 37.92 67.64 33.4 40.36 27.29 0.09" fill="url(#7dddc297-bca3-4774-bf0a-8697218ae528)"/><polygon points="69.85 0 87.23 0 60.71 80.72 37.92 67.64 69.85 0" fill="url(#9a8ee50b-354a-4fd5-b683-5d273d425c6c)"/><polygon points="37.92 67.64 27.29 0.09 0 0 19.63 41.12 37.92 67.64" fill="url(#4c65b802-eb55-40dd-ad33-04cd6f5b5b41)"/><polyline points="28.19 94.07 37.91 67.72 19.63 41.12 0 0" fill="url(#a4b01cbf-4d6c-4c62-966d-4d3cfa54697b)"/></svg>