<svg id="f57e2d1f-a993-4be8-a430-15a7dc8e52af" data-name="Ebene 1" xmlns="http://www.w3.org/2000/svg" xmlns:xlink="http://www.w3.org/1999/xlink" viewBox="0 0 128.07 94.07"><defs><linearGradient id="b04f83eb-d232-40d4-890b-05764ad60789" x1="2592.45" y1="983.32" x2="2484.58" y2="983.32" gradientTransform="translate(2610.96 1030.31) rotate(180)" gradientUnits="userSpaceOnUse"><stop offset="0.05" stop-color="#ffb306"/><stop offset="0.14" stop-color="#efa706"/><stop offset="0.3" stop-color="#da9905"/><stop offset="0.48" stop-color="#cb8e05"/><stop offset="0.69" stop-color="#c28805"/><stop offset="1" stop-color="#bf8605"/></linearGradient><linearGradient id="757694bf-3635-4ec0-b865-6bad6404e89e" x1="2515.82" y1="993.59" x2="2577.52" y2="1004.47" gradientTransform="translate(2610.96 1030.31) rotate(180)" gradientUnits="userSpaceOnUse"><stop offset="0.13" stop-color="#ffce38"/><stop offset="0.4" stop-color="#ffc324"/><stop offset="0.76" stop-color="#ffb70e"/><stop offset="1" stop-color="#ffb306"/></linearGradient><linearGradient id="2a74c3fe-06b3-4e4a-bf19-3013f723fa8d" x1="2497.59" y1="978.46" x2="2529.47" y2="1005.21" gradientTransform="translate(2610.96 1030.31) rotate(180)" gradientUnits="userSpaceOnUse"><stop offset="0.34" stop-color="#ffce38"/><stop offset="0.54" stop-color="#ffc324"/><stop offset="0.82" stop-color="#ffb70e"/><stop offset="1" stop-color="#ffb306"/></linearGradient><linearGradient id="d0d845b4-d5b0-4967-bff2-1d09bb135d97" x1="2549.74" y1="994.1" x2="2615.3" y2="1005.66" xlink:href="#2a74c3fe-06b3-4e4a-bf19-3013f723fa8d"/><linearGradient id="c084d506-0598-4a07-8576-718f2a87a1c0" x1="2555.3" y1="983.28" x2="2610.96" y2="983.28" xlink:href="#b04f83eb-d232-40d4-890b-05764ad60789"/></defs><title>Key_T</title><polyline points="40.07 0 41.39 93.98 89.13 80.72 126.37 0 18.51 0" fill="url(#b04f83eb-d232-40d4-890b-05764ad60789)"/><polygon points="37.99 0 101.62 0 69.56 16.55 55.67 67.64 46.09 41.12 37.99 0" fill="url(#757694bf-3635-4ec0-b865-6bad6404e89e)"/><polygon points="102.56 0 128.07 0 89.13 80.72 55.67 67.64 102.56 0" fill="url(#2a74c3fe-06b3-4e4a-bf19-3013f723fa8d)"/><polygon points="55.67 67.64 40.07 0.09 0 0 28.82 41.12 55.67 67.64" fill="url(#d0d845b4-d5b0-4967-bff2-1d09bb135d97)"/><polyline points="41.39 94.07 55.65 67.72 28.82 41.12 0 0" fill="url(#c084d506-0598-4a07-8576-718f2a87a1c0)"/></svg>