<svg id="1e441cf3-4f24-403f-815a-5a2d27fb80bf" data-name="Ebene 1" xmlns="http://www.w3.org/2000/svg" xmlns:xlink="http://www.w3.org/1999/xlink" viewBox="0 0 128.07 94.07"><defs><linearGradient id="4c031f6b-0109-46de-b979-6499a1a42873" x1="2592.45" y1="575.39" x2="2484.58" y2="575.39" gradientTransform="translate(2610.96 622.31) rotate(180)" gradientUnits="userSpaceOnUse"><stop offset="0" stop-color="#527f4e"/><stop offset="0.21" stop-color="#568551"/><stop offset="0.49" stop-color="#60945b"/><stop offset="0.79" stop-color="#70ae6a"/><stop offset="0.95" stop-color="#7bbf74"/></linearGradient><linearGradient id="d16b2b6b-0e38-420f-91dd-6238d5f889fb" x1="2515.82" y1="585.66" x2="2585.28" y2="597.9" gradientTransform="translate(2610.96 622.31) rotate(180)" gradientUnits="userSpaceOnUse"><stop offset="0" stop-color="#527f4e"/><stop offset="0.31" stop-color="#548250"/><stop offset="0.52" stop-color="#598b55"/><stop offset="0.7" stop-color="#639a5e"/><stop offset="0.86" stop-color="#70af6a"/><stop offset="0.95" stop-color="#7bbf74"/></linearGradient><linearGradient id="ec5ed136-382a-490c-bafc-ef5200a4ea9b" x1="2497.59" y1="570.53" x2="2529.47" y2="597.28" gradientTransform="translate(2610.96 622.31) rotate(180)" gradientUnits="userSpaceOnUse"><stop offset="0.14" stop-color="#a5ff9b"/><stop offset="0.23" stop-color="#9aef91"/><stop offset="0.37" stop-color="#8cda84"/><stop offset="0.53" stop-color="#83cb7b"/><stop offset="0.72" stop-color="#7dc276"/><stop offset="1" stop-color="#7bbf74"/></linearGradient><linearGradient id="67a1ee25-405c-44c2-82fe-4e6b6a2980eb" x1="2549.74" y1="586.17" x2="2615.3" y2="597.73" xlink:href="#ec5ed136-382a-490c-bafc-ef5200a4ea9b"/><linearGradient id="487a5931-6707-402b-8030-37ff0f1983e4" x1="2555.3" y1="575.35" x2="2610.96" y2="575.35" xlink:href="#d16b2b6b-0e38-420f-91dd-6238d5f889fb"/></defs><title>Key_T</title><polyline points="40.07 -0.07 41.39 93.91 89.13 80.66 126.37 -0.07 18.51 -0.07" fill="url(#4c031f6b-0109-46de-b979-6499a1a42873)"/><polygon points="29.99 -0.07 101.62 -0.07 69.56 16.48 55.67 67.57 41.09 41.05 29.99 -0.07" fill="url(#d16b2b6b-0e38-420f-91dd-6238d5f889fb)"/><polygon points="102.56 -0.07 128.07 -0.07 89.13 80.66 55.67 67.57 102.56 -0.07" fill="url(#ec5ed136-382a-490c-bafc-ef5200a4ea9b)"/><polygon points="55.67 67.57 40.07 0.02 0 -0.07 28.82 41.05 55.67 67.57" fill="url(#67a1ee25-405c-44c2-82fe-4e6b6a2980eb)"/><polyline points="41.39 94 55.65 67.65 28.82 41.05 0 -0.07" fill="url(#487a5931-6707-402b-8030-37ff0f1983e4)"/></svg>