<svg id="74b3ecbb-b942-48a7-ad21-f0514014ba38" data-name="Ebene 1" xmlns="http://www.w3.org/2000/svg" xmlns:xlink="http://www.w3.org/1999/xlink" viewBox="0 0 87.23 94.07"><defs><linearGradient id="ad4d9089-b784-4008-827f-ed502e64bc7d" x1="2244.79" y1="1185.28" x2="2171.32" y2="1185.28" gradientTransform="translate(2257.39 1232.27) rotate(180)" gradientUnits="userSpaceOnUse"><stop offset="0" stop-color="#3d3785"/><stop offset="0.25" stop-color="#413b89"/><stop offset="0.49" stop-color="#4c4595"/><stop offset="0.73" stop-color="#5e57a9"/><stop offset="0.95" stop-color="#746dc1"/></linearGradient><linearGradient id="a576e773-ed33-421e-8f09-815680c715a6" x1="2194.44" y1="1196.8" x2="2235.08" y2="1203.97" gradientTransform="translate(2257.39 1232.27) rotate(180)" gradientUnits="userSpaceOnUse"><stop offset="0.34" stop-color="#746dc1"/><stop offset="0.42" stop-color="#6e67be"/><stop offset="0.77" stop-color="#5951b5"/><stop offset="1" stop-color="#5149b2"/></linearGradient><linearGradient id="774beb26-e632-445f-8e2e-e9e47867e987" x1="2172.82" y1="1179.99" x2="2207.2" y2="1208.85" xlink:href="#a576e773-ed33-421e-8f09-815680c715a6"/><linearGradient id="930ef963-3761-4de3-b76d-e6ce4f84a255" x1="2213.86" y1="1196.49" x2="2262.2" y2="1205.01" xlink:href="#a576e773-ed33-421e-8f09-815680c715a6"/><linearGradient id="c009bdd0-7c6e-4b5c-8764-cf1ab72ee879" x1="2219.49" y1="1185.24" x2="2257.39" y2="1185.24" xlink:href="#ad4d9089-b784-4008-827f-ed502e64bc7d"/></defs><title>Key_T2_</title><polyline points="12.61 0 28.19 93.98 60.71 80.72 86.07 0 12.61 0" fill="url(#ad4d9089-b784-4008-827f-ed502e64bc7d)"/><polygon points="27.29 0.09 69.21 0 47.38 16.55 37.92 67.64 33.4 40.36 27.29 0.09" fill="url(#a576e773-ed33-421e-8f09-815680c715a6)"/><polygon points="69.85 0 87.23 0 60.71 80.72 37.92 67.64 69.85 0" fill="url(#774beb26-e632-445f-8e2e-e9e47867e987)"/><polygon points="37.92 67.64 27.29 0.09 0 0 19.63 41.12 37.92 67.64" fill="url(#930ef963-3761-4de3-b76d-e6ce4f84a255)"/><polyline points="28.19 94.07 37.91 67.72 19.63 41.12 0 0" fill="url(#c009bdd0-7c6e-4b5c-8764-cf1ab72ee879)"/></svg>