<svg id="a7e2d2a2-2ce5-4f88-815d-7a6c65b7d449" data-name="Ebene 1" xmlns="http://www.w3.org/2000/svg" xmlns:xlink="http://www.w3.org/1999/xlink" viewBox="0 0 128.07 94.07"><defs><linearGradient id="057d98f9-3d72-40ec-a156-903cffb24cf6" x1="2590.59" y1="779.32" x2="2482.73" y2="779.32" gradientTransform="translate(2609.1 826.31) rotate(180)" gradientUnits="userSpaceOnUse"><stop offset="0" stop-color="#ac3926"/><stop offset="0.23" stop-color="#b33b28"/><stop offset="0.57" stop-color="#c7412c"/><stop offset="0.95" stop-color="#e64b33"/></linearGradient><linearGradient id="f6719f9e-0092-4d4c-8440-be31ffb7ca75" x1="2513.96" y1="789.59" x2="2583.42" y2="801.84" gradientTransform="translate(2609.1 826.31) rotate(180)" gradientUnits="userSpaceOnUse"><stop offset="0.05" stop-color="#eb6f5c"/><stop offset="0.32" stop-color="#e85b45"/><stop offset="0.58" stop-color="#e74f38"/><stop offset="0.81" stop-color="#e64b33"/></linearGradient><linearGradient id="1fc1b8ed-66ad-4cee-ad10-541bb5da4432" x1="2495.74" y1="774.46" x2="2527.61" y2="801.21" gradientTransform="translate(2609.1 826.31) rotate(180)" gradientUnits="userSpaceOnUse"><stop offset="0.05" stop-color="#eb6f5c"/><stop offset="0.39" stop-color="#e85b45"/><stop offset="0.71" stop-color="#e74f38"/><stop offset="1" stop-color="#e64b33"/></linearGradient><linearGradient id="eed96415-7702-482e-a050-2debc96125aa" x1="2547.89" y1="790.1" x2="2613.45" y2="801.66" xlink:href="#1fc1b8ed-66ad-4cee-ad10-541bb5da4432"/><linearGradient id="056705a2-75a8-4a71-b1fb-4793507f1c75" x1="2553.45" y1="779.28" x2="2609.1" y2="779.28" gradientTransform="translate(2609.1 826.31) rotate(180)" gradientUnits="userSpaceOnUse"><stop offset="0" stop-color="#ac3926"/><stop offset="0.25" stop-color="#b03a27"/><stop offset="0.5" stop-color="#bc3e2a"/><stop offset="0.75" stop-color="#d1442e"/><stop offset="0.95" stop-color="#e64b33"/></linearGradient></defs><title>Key_T</title><polyline points="40.07 0 41.39 93.98 89.13 80.72 126.37 0 18.51 0" fill="url(#057d98f9-3d72-40ec-a156-903cffb24cf6)"/><polygon points="29.99 0 101.62 0 69.56 16.55 55.67 67.64 41.09 41.12 29.99 0" fill="url(#f6719f9e-0092-4d4c-8440-be31ffb7ca75)"/><polygon points="102.56 0 128.07 0 89.13 80.72 55.67 67.64 102.56 0" fill="url(#1fc1b8ed-66ad-4cee-ad10-541bb5da4432)"/><polygon points="55.67 67.64 40.07 0.09 0 0 28.82 41.12 55.67 67.64" fill="url(#eed96415-7702-482e-a050-2debc96125aa)"/><polyline points="41.39 94.07 55.65 67.72 28.82 41.12 0 0" fill="url(#056705a2-75a8-4a71-b1fb-4793507f1c75)"/></svg>