<svg id="411f2dae-e285-414e-a0b7-d83f3a88dade" data-name="Ebene 1" xmlns="http://www.w3.org/2000/svg" xmlns:xlink="http://www.w3.org/1999/xlink" viewBox="0 0 87.23 94.07"><defs><linearGradient id="29764445-48f8-4e59-b615-dee63c5d5236" x1="2258.74" y1="964.74" x2="2185.28" y2="964.74" gradientTransform="translate(2271.35 1011.73) rotate(180)" gradientUnits="userSpaceOnUse"><stop offset="0.05" stop-color="#ffb306"/><stop offset="0.14" stop-color="#efa706"/><stop offset="0.3" stop-color="#da9905"/><stop offset="0.48" stop-color="#cb8e05"/><stop offset="0.69" stop-color="#c28805"/><stop offset="1" stop-color="#bf8605"/></linearGradient><linearGradient id="539efb61-24bc-4635-ac16-65d1562235ef" x1="2208.39" y1="976.26" x2="2249.03" y2="983.43" gradientTransform="translate(2271.35 1011.73) rotate(180)" gradientUnits="userSpaceOnUse"><stop offset="0.13" stop-color="#ffce38"/><stop offset="0.4" stop-color="#ffc324"/><stop offset="0.76" stop-color="#ffb70e"/><stop offset="1" stop-color="#ffb306"/></linearGradient><linearGradient id="a3657032-3a60-4cd6-a93a-feb4b7833daf" x1="2186.77" y1="959.45" x2="2221.16" y2="988.31" gradientTransform="translate(2271.35 1011.73) rotate(180)" gradientUnits="userSpaceOnUse"><stop offset="0.34" stop-color="#ffce38"/><stop offset="0.54" stop-color="#ffc324"/><stop offset="0.82" stop-color="#ffb70e"/><stop offset="1" stop-color="#ffb306"/></linearGradient><linearGradient id="17e4059d-3387-4848-8d66-824fb5deabf0" x1="2227.81" y1="975.95" x2="2276.16" y2="984.47" xlink:href="#a3657032-3a60-4cd6-a93a-feb4b7833daf"/><linearGradient id="a260f6fe-be6c-4a33-8d2e-7a8f66c84bc8" x1="2233.44" y1="964.7" x2="2271.35" y2="964.7" xlink:href="#29764445-48f8-4e59-b615-dee63c5d5236"/></defs><title>Key_T2_</title><polyline points="12.61 0 28.19 93.98 60.71 80.72 86.07 0 12.61 0" fill="url(#29764445-48f8-4e59-b615-dee63c5d5236)"/><polygon points="27.29 0.09 69.21 0 47.38 16.55 37.92 67.64 33.4 40.36 27.29 0.09" fill="url(#539efb61-24bc-4635-ac16-65d1562235ef)"/><polygon points="69.85 0 87.23 0 60.71 80.72 37.92 67.64 69.85 0" fill="url(#a3657032-3a60-4cd6-a93a-feb4b7833daf)"/><polygon points="37.92 67.64 27.29 0.09 0 0 19.63 41.12 37.92 67.64" fill="url(#17e4059d-3387-4848-8d66-824fb5deabf0)"/><polyline points="28.19 94.07 37.91 67.72 19.63 41.12 0 0" fill="url(#a260f6fe-be6c-4a33-8d2e-7a8f66c84bc8)"/></svg>