<svg id="436a367a-b240-4b4a-8f9f-39f476e58287" data-name="Ebene 1" xmlns="http://www.w3.org/2000/svg" xmlns:xlink="http://www.w3.org/1999/xlink" viewBox="0 0 87.23 94.07"><defs><linearGradient id="ea8bdcc6-f900-4940-b9b0-48a99c3e45d1" x1="2244.79" y1="520.59" x2="2171.32" y2="520.59" gradientTransform="translate(2257.39 567.58) rotate(180)" gradientUnits="userSpaceOnUse"><stop offset="0" stop-color="#527f4e"/><stop offset="0.21" stop-color="#568551"/><stop offset="0.49" stop-color="#60945b"/><stop offset="0.79" stop-color="#70ae6a"/><stop offset="0.95" stop-color="#7bbf74"/></linearGradient><linearGradient id="98fedb58-5e52-4ac0-870e-a3a289d6dba2" x1="2194.44" y1="532.11" x2="2235.08" y2="539.28" gradientTransform="translate(2257.39 567.58) rotate(180)" gradientUnits="userSpaceOnUse"><stop offset="0" stop-color="#527f4e"/><stop offset="0.31" stop-color="#548250"/><stop offset="0.52" stop-color="#598b55"/><stop offset="0.7" stop-color="#639a5e"/><stop offset="0.86" stop-color="#70af6a"/><stop offset="0.95" stop-color="#7bbf74"/></linearGradient><linearGradient id="05526709-dd96-44fd-8b33-bf161a49a7d0" x1="2172.82" y1="515.3" x2="2207.2" y2="544.16" gradientTransform="translate(2257.39 567.58) rotate(180)" gradientUnits="userSpaceOnUse"><stop offset="0.14" stop-color="#a5ff9b"/><stop offset="0.23" stop-color="#9aef91"/><stop offset="0.37" stop-color="#8cda84"/><stop offset="0.53" stop-color="#83cb7b"/><stop offset="0.72" stop-color="#7dc276"/><stop offset="1" stop-color="#7bbf74"/></linearGradient><linearGradient id="ffb635e7-07ca-4ac1-a5f9-2f613f1beb77" x1="2213.86" y1="531.8" x2="2262.2" y2="540.32" xlink:href="#05526709-dd96-44fd-8b33-bf161a49a7d0"/><linearGradient id="a0162b76-6758-4eab-831a-bf3e552574a0" x1="2219.49" y1="520.55" x2="2257.39" y2="520.55" xlink:href="#98fedb58-5e52-4ac0-870e-a3a289d6dba2"/></defs><title>Key_T2_</title><polyline points="12.61 0 28.19 93.98 60.71 80.72 86.07 0 12.61 0" fill="url(#ea8bdcc6-f900-4940-b9b0-48a99c3e45d1)"/><polygon points="27.29 0.09 69.21 0 47.38 16.55 37.92 67.64 33.4 40.36 27.29 0.09" fill="url(#98fedb58-5e52-4ac0-870e-a3a289d6dba2)"/><polygon points="69.85 0 87.23 0 60.71 80.72 37.92 67.64 69.85 0" fill="url(#05526709-dd96-44fd-8b33-bf161a49a7d0)"/><polygon points="37.92 67.64 27.29 0.09 0 0 19.63 41.12 37.92 67.64" fill="url(#ffb635e7-07ca-4ac1-a5f9-2f613f1beb77)"/><polyline points="28.19 94.07 37.91 67.72 19.63 41.12 0 0" fill="url(#a0162b76-6758-4eab-831a-bf3e552574a0)"/></svg>