<svg width="129" height="95" viewBox="0 0 129 95" xmlns="http://www.w3.org/2000/svg"><title>T1_1</title><defs><linearGradient x1="0%" y1="50%" x2="100.009%" y2="50%" id="a"><stop stop-color="#3D3785" offset="0%"/><stop stop-color="#413B89" offset="25%"/><stop stop-color="#4C4595" offset="49%"/><stop stop-color="#5E57A9" offset="73%"/><stop stop-color="#746DC1" offset="95%"/></linearGradient><linearGradient x1="90.952%" y1="54.287%" x2="-6.032%" y2="36.177%" id="b"><stop stop-color="#746DC1" offset="34%"/><stop stop-color="#6E67BE" offset="42%"/><stop stop-color="#5951B5" offset="77%"/><stop stop-color="#5149B2" offset="100%"/></linearGradient><linearGradient x1="249725%" y1="94945.891%" x2="252913%" y2="97097.279%" id="c"><stop stop-color="#746DC1" offset="34%"/><stop stop-color="#6E67BE" offset="42%"/><stop stop-color="#5951B5" offset="77%"/><stop stop-color="#5149B2" offset="100%"/></linearGradient><linearGradient x1="254940%" y1="81064.477%" x2="261496%" y2="81847.815%" id="d"><stop stop-color="#746DC1" offset="34%"/><stop stop-color="#6E67BE" offset="42%"/><stop stop-color="#5951B5" offset="77%"/><stop stop-color="#5149B2" offset="100%"/></linearGradient><linearGradient x1="255496%" y1="118524%" x2="261062%" y2="118524%" id="e"><stop stop-color="#3D3785" offset="0%"/><stop stop-color="#413B89" offset="25%"/><stop stop-color="#4C4595" offset="49%"/><stop stop-color="#5E57A9" offset="73%"/><stop stop-color="#746DC1" offset="95%"/></linearGradient></defs><g fill-rule="nonzero" fill="none"><path fill="url(#a)" d="M42.05 93.98l47.74-13.26L127.03 0H19.17z"/><path fill="url(#b)" d="M30.66 0h71.62L70.22 16.55 56.34 67.64 41.75 41.12z"/><path fill="url(#c)" d="M128.73 0L89.79 80.72 56.34 67.64 103.22 0z"/><path fill="url(#d)" d="M56.34 67.64L40.73.09.66 0l28.82 41.12z"/><path fill="url(#e)" d="M42.05 94.07l14.26-26.35-26.83-26.6L.66 0"/></g></svg>