<svg  viewBox="0 0 129 95" xmlns="http://www.w3.org/2000/svg"><title>T1_6</title><defs><linearGradient x1="0%" y1="50%" x2="100.009%" y2="50%" id="a"><stop stop-color="#6BB59F" offset="5%"/><stop stop-color="#64A994" offset="12%"/><stop stop-color="#579481" offset="29%"/><stop stop-color="#4E8574" offset="47%"/><stop stop-color="#497C6C" offset="68%"/><stop stop-color="#47796A" offset="100%"/></linearGradient><linearGradient x1="91.078%" y1="54.287%" x2="-5.893%" y2="35.925%" id="b"><stop stop-color="#6BB59F" offset="7%"/><stop stop-color="#68B09A" offset="29%"/><stop stop-color="#5EA08C" offset="57%"/><stop stop-color="#4F8676" offset="87%"/><stop stop-color="#47796A" offset="100%"/></linearGradient><linearGradient x1="79.696%" y1="64.234%" x2="35.663%" y2="31.095%" id="c"><stop stop-color="#8EF1D4" offset="5%"/><stop stop-color="#80DABF" offset="23%"/><stop stop-color="#75C5AD" offset="45%"/><stop stop-color="#6DB9A3" offset="67%"/><stop stop-color="#6BB59F" offset="88%"/></linearGradient><linearGradient x1="254974%" y1="10725.579%" x2="261530%" y2="11508.636%" id="d"><stop stop-color="#8EF1D4" offset="5%"/><stop stop-color="#80DABF" offset="23%"/><stop stop-color="#75C5AD" offset="45%"/><stop stop-color="#6DB9A3" offset="67%"/><stop stop-color="#6BB59F" offset="88%"/></linearGradient><linearGradient x1="100.018%" y1="49.995%" x2="0%" y2="49.995%" id="e"><stop stop-color="#47796A" offset="0%"/><stop stop-color="#497D6D" offset="25%"/><stop stop-color="#508877" offset="49%"/><stop stop-color="#5C9B88" offset="73%"/><stop stop-color="#6BB59F" offset="95%"/></linearGradient></defs><g fill-rule="nonzero" fill="none"><path fill="url(#a)" d="M40.07 0l1.32 93.98 47.74-13.26L126.37 0H18.51z"/><path fill="url(#b)" d="M28.99 0h72.63L69.56 16.55 55.67 67.64l-7.58-26.52z"/><path fill="url(#c)" d="M128.07 0L89.13 80.72 55.67 67.64 102.56 0z"/><path fill="url(#d)" d="M40.07 0H0l28.82 41.12 26.85 26.52z"/><path fill="url(#e)" d="M41.39 94.07l14.26-26.35-26.83-26.6L0 0"/></g></svg>