<svg width="129" height="95" viewBox="0 0 129 95" xmlns="http://www.w3.org/2000/svg"><title>T1_3</title><defs><linearGradient x1="0%" y1="50%" y2="50%" id="a"><stop stop-color="#AC3926" offset="0%"/><stop stop-color="#B33B28" offset="23%"/><stop stop-color="#C7412C" offset="57%"/><stop stop-color="#E64B33" offset="95%"/></linearGradient><linearGradient x1="90.954%" y1="54.287%" x2="-6.017%" y2="36.177%" id="b"><stop stop-color="#EB6F5C" offset="5%"/><stop stop-color="#E85B45" offset="32%"/><stop stop-color="#E74F38" offset="58%"/><stop stop-color="#E64B33" offset="81%"/></linearGradient><linearGradient x1="79.682%" y1="64.234%" x2="35.663%" y2="31.095%" id="c"><stop stop-color="#EB6F5C" offset="5%"/><stop stop-color="#E85B45" offset="39%"/><stop stop-color="#E74F38" offset="71%"/><stop stop-color="#E64B33" offset="100%"/></linearGradient><linearGradient x1="254789%" y1="53536.279%" x2="261345%" y2="54319.335%" id="d"><stop stop-color="#EB6F5C" offset="5%"/><stop stop-color="#E85B45" offset="39%"/><stop stop-color="#E74F38" offset="71%"/><stop stop-color="#E64B33" offset="100%"/></linearGradient><linearGradient x1="100%" y1="49.995%" x2="0%" y2="49.995%" id="e"><stop stop-color="#AC3926" offset="0%"/><stop stop-color="#B03A27" offset="25%"/><stop stop-color="#BC3E2A" offset="50%"/><stop stop-color="#D1442E" offset="75%"/><stop stop-color="#E64B33" offset="95%"/></linearGradient></defs><g fill-rule="nonzero" fill="none"><path fill="url(#a)" d="M40.07 0l1.32 93.98 47.74-13.26L126.37 0H18.51"/><path fill="url(#b)" d="M29.99 0h71.63L69.56 16.55 55.67 67.64 41.09 41.12z"/><path fill="url(#c)" d="M128.07 0L89.13 80.72 55.67 67.64 102.56 0z"/><path fill="url(#d)" d="M40.07 0H0l28.82 41.12 26.85 26.52z"/><path fill="url(#e)" d="M41.39 94.07l14.26-26.35-26.83-26.6L0 0"/></g></svg>