<svg width="129" height="95" viewBox="0 0 129 95" xmlns="http://www.w3.org/2000/svg"><title>T1_4</title><defs><linearGradient x1="0%" y1="50%" x2="100.009%" y2="50%" id="a"><stop stop-color="#527F4E" offset="0%"/><stop stop-color="#568551" offset="21%"/><stop stop-color="#60945B" offset="49%"/><stop stop-color="#70AE6A" offset="79%"/><stop stop-color="#7BBF74" offset="95%"/></linearGradient><linearGradient x1="90.954%" y1="54.287%" x2="-6.017%" y2="36.192%" id="b"><stop stop-color="#527F4E" offset="0%"/><stop stop-color="#548250" offset="31%"/><stop stop-color="#598B55" offset="52%"/><stop stop-color="#639A5E" offset="70%"/><stop stop-color="#70AF6A" offset="86%"/><stop stop-color="#7BBF74" offset="95%"/></linearGradient><linearGradient x1="79.696%" y1="64.226%" x2="35.663%" y2="31.091%" id="c"><stop stop-color="#A5FF9B" offset="14%"/><stop stop-color="#9AEF91" offset="23%"/><stop stop-color="#8CDA84" offset="37%"/><stop stop-color="#83CB7B" offset="53%"/><stop stop-color="#7DC276" offset="72%"/><stop stop-color="#7BBF74" offset="100%"/></linearGradient><linearGradient x1="254974%" y1="39722.377%" x2="261530%" y2="40505.434%" id="d"><stop stop-color="#A5FF9B" offset="14%"/><stop stop-color="#9AEF91" offset="23%"/><stop stop-color="#8CDA84" offset="37%"/><stop stop-color="#83CB7B" offset="53%"/><stop stop-color="#7DC276" offset="72%"/><stop stop-color="#7BBF74" offset="100%"/></linearGradient><linearGradient x1="255530%" y1="57535%" x2="261096%" y2="57535%" id="e"><stop stop-color="#527F4E" offset="0%"/><stop stop-color="#548250" offset="31%"/><stop stop-color="#598B55" offset="52%"/><stop stop-color="#639A5E" offset="70%"/><stop stop-color="#70AF6A" offset="86%"/><stop stop-color="#7BBF74" offset="95%"/></linearGradient></defs><g fill-rule="nonzero" fill="none"><path fill="url(#a)" d="M40.07 1l1.32 93.91 47.74-13.25L126.37 1H18.51" transform="translate(0 -1)"/><path fill="url(#b)" d="M101.62 1L69.56 17.48 55.67 68.57 41.09 42.05 29.99.93z" transform="translate(0 -1)"/><path fill="url(#c)" d="M128.07 1L89.13 81.66 55.67 68.57 102.56.93z" transform="translate(0 -1)"/><path fill="url(#d)" d="M40.07 1H0l28.82 41.05 26.85 26.52z" transform="translate(0 -1)"/><path fill="url(#e)" d="M41.39 95l14.26-26.35-26.83-26.6L0 1" transform="translate(0 -1)"/></g></svg>