<svg width="129" height="95" viewBox="0 0 129 95" xmlns="http://www.w3.org/2000/svg"><title>T1_2</title><defs><linearGradient x1="0%" y1="50%" x2="100.009%" y2="50%" id="a"><stop stop-color="#FFB306" offset="5%"/><stop stop-color="#EFA706" offset="14%"/><stop stop-color="#DA9905" offset="30%"/><stop stop-color="#CB8E05" offset="48%"/><stop stop-color="#C28805" offset="69%"/><stop stop-color="#BF8605" offset="100%"/></linearGradient><linearGradient x1="89.816%" y1="54.287%" x2="-7.151%" y2="38.202%" id="b"><stop stop-color="#FFCE38" offset="13%"/><stop stop-color="#FFC324" offset="40%"/><stop stop-color="#FFB70E" offset="76%"/><stop stop-color="#FFB306" offset="100%"/></linearGradient><linearGradient x1="79.696%" y1="64.234%" x2="35.663%" y2="31.095%" id="c"><stop stop-color="#FFCE38" offset="34%"/><stop stop-color="#FFC324" offset="54%"/><stop stop-color="#FFB70E" offset="82%"/><stop stop-color="#FFB306" offset="100%"/></linearGradient><linearGradient x1="254974%" y1="67354.922%" x2="261530%" y2="68137.979%" id="d"><stop stop-color="#FFCE38" offset="34%"/><stop stop-color="#FFC324" offset="54%"/><stop stop-color="#FFB70E" offset="82%"/><stop stop-color="#FFB306" offset="100%"/></linearGradient><linearGradient x1="255530%" y1="98328%" x2="261096%" y2="98328%" id="e"><stop stop-color="#FFB306" offset="5%"/><stop stop-color="#EFA706" offset="14%"/><stop stop-color="#DA9905" offset="30%"/><stop stop-color="#CB8E05" offset="48%"/><stop stop-color="#C28805" offset="69%"/><stop stop-color="#BF8605" offset="100%"/></linearGradient></defs><g fill-rule="nonzero" fill="none"><path fill="url(#a)" d="M40.07 0l1.32 93.98 47.74-13.26L126.37 0H18.51z"/><path fill="url(#b)" d="M37.99 0h63.63L69.56 16.55 55.67 67.64l-9.58-26.52z"/><path fill="url(#c)" d="M128.07 0L89.13 80.72 55.67 67.64 102.56 0z"/><path fill="url(#d)" d="M40.07 0H0l28.82 41.12 26.85 26.52z"/><path fill="url(#e)" d="M41.39 94.07l14.26-26.35-26.83-26.6L0 0"/></g></svg>