<svg  viewBox="0 0 129 95" xmlns="http://www.w3.org/2000/svg"><title>T1_5</title><defs><linearGradient x1="-.009%" y1="50%" y2="50%" id="a"><stop stop-color="#905CEB" offset="5%"/><stop stop-color="#8F5BEB" offset="6%"/><stop stop-color="#8045E8" offset="39%"/><stop stop-color="#7738E7" offset="71%"/><stop stop-color="#7433E6" offset="100%"/></linearGradient><linearGradient x1="89.652%" y1="54.295%" x2="-7.33%" y2="38.474%" id="b"><stop stop-color="#AB85F0" offset="26%"/><stop stop-color="#A47AEF" offset="41%"/><stop stop-color="#9564EC" offset="77%"/><stop stop-color="#905CEB" offset="100%"/></linearGradient><linearGradient x1="249759%" y1="28691.873%" x2="252947%" y2="30843.855%" id="c"><stop stop-color="#AB85F0" offset="26%"/><stop stop-color="#A47AEF" offset="41%"/><stop stop-color="#9564EC" offset="77%"/><stop stop-color="#905CEB" offset="100%"/></linearGradient><linearGradient x1="254974%" y1="25233.795%" x2="261530%" y2="26017.083%" id="d"><stop stop-color="#AB85F0" offset="26%"/><stop stop-color="#A47AEF" offset="41%"/><stop stop-color="#9564EC" offset="77%"/><stop stop-color="#905CEB" offset="100%"/></linearGradient><linearGradient x1="255530%" y1="36135%" x2="261096%" y2="36135%" id="e"><stop stop-color="#905CEB" offset="5%"/><stop stop-color="#8F5BEB" offset="6%"/><stop stop-color="#8045E8" offset="39%"/><stop stop-color="#7738E7" offset="71%"/><stop stop-color="#7433E6" offset="100%"/></linearGradient></defs><g fill-rule="nonzero" fill="none"><path fill="url(#a)" d="M40.21 0l1.33 94.05 47.74-13.26L126.52 0H18.66"/><path fill="url(#b)" d="M101.76 0L69.71 16.62 55.82 67.7l-7.58-26.51L39.14.07z"/><path fill="url(#c)" d="M128.22 0L89.28 80.79 55.82 67.7 102.7.07z"/><path fill="url(#d)" d="M40.21 0H.15l28.82 41.19L55.82 67.7z"/><path fill="url(#e)" d="M41.54 94.14L55.8 67.79l-26.83-26.6L.15 0"/></g></svg>