<svg width="88" height="95" viewBox="0 0 88 95" xmlns="http://www.w3.org/2000/svg"><title>T2_1</title><defs><linearGradient x1="-.014%" y1="50%" y2="50%" id="a"><stop stop-color="#3D3785" offset="0%"/><stop stop-color="#413B89" offset="25%"/><stop stop-color="#4C4595" offset="49%"/><stop stop-color="#5E57A9" offset="73%"/><stop stop-color="#746DC1" offset="95%"/></linearGradient><linearGradient x1="85.067%" y1="52.439%" x2="-11.88%" y2="41.839%" id="b"><stop stop-color="#746DC1" offset="34%"/><stop stop-color="#6E67BE" offset="42%"/><stop stop-color="#5951B5" offset="77%"/><stop stop-color="#5149B2" offset="100%"/></linearGradient><linearGradient x1="217282%" y1="44065.127%" x2="220720%" y2="45142.098%" id="c"><stop stop-color="#746DC1" offset="34%"/><stop stop-color="#6E67BE" offset="42%"/><stop stop-color="#5951B5" offset="77%"/><stop stop-color="#5149B2" offset="100%"/></linearGradient><linearGradient x1="221386%" y1="37638.674%" x2="226220%" y2="37906.449%" id="d"><stop stop-color="#746DC1" offset="34%"/><stop stop-color="#6E67BE" offset="42%"/><stop stop-color="#5951B5" offset="77%"/><stop stop-color="#5149B2" offset="100%"/></linearGradient><linearGradient x1="221949%" y1="118524%" x2="225739%" y2="118524%" id="e"><stop stop-color="#3D3785" offset="0%"/><stop stop-color="#413B89" offset="25%"/><stop stop-color="#4C4595" offset="49%"/><stop stop-color="#5E57A9" offset="73%"/><stop stop-color="#746DC1" offset="95%"/></linearGradient></defs><g fill-rule="nonzero" fill="none"><path fill="url(#a)" d="M12.61 0l15.58 93.98 32.52-13.26L86.07 0H12.61"/><path fill="url(#b)" d="M69.21 0L47.38 16.55l-9.46 51.09-4.52-27.28L27.29 0z"/><path fill="url(#c)" d="M69.85 0h17.38L60.71 80.72 37.92 67.64z"/><path fill="url(#d)" d="M27.29 0H0l19.63 41.12 18.29 26.52z"/><path fill="url(#e)" d="M28.19 94.07l9.72-26.35-18.28-26.6L0 0"/></g></svg>