<svg width="88" height="95" viewBox="0 0 88 95" xmlns="http://www.w3.org/2000/svg"><title>T2_2</title><defs><linearGradient x1="0%" y1="50%" y2="50%" id="a"><stop stop-color="#FFB306" offset="5%"/><stop stop-color="#EFA706" offset="14%"/><stop stop-color="#DA9905" offset="30%"/><stop stop-color="#CB8E05" offset="48%"/><stop stop-color="#C28805" offset="69%"/><stop stop-color="#BF8605" offset="100%"/></linearGradient><linearGradient x1="85.091%" y1="52.439%" x2="-11.856%" y2="41.839%" id="b"><stop stop-color="#FFCE38" offset="13%"/><stop stop-color="#FFC324" offset="40%"/><stop stop-color="#FFB70E" offset="76%"/><stop stop-color="#FFB306" offset="100%"/></linearGradient><linearGradient x1="94.626%" y1="64.767%" x2="24.883%" y2="29.014%" id="c"><stop stop-color="#FFCE38" offset="34%"/><stop stop-color="#FFC324" offset="54%"/><stop stop-color="#FFB70E" offset="82%"/><stop stop-color="#FFB306" offset="100%"/></linearGradient><linearGradient x1="222781%" y1="30707.34%" x2="227616%" y2="30975.115%" id="d"><stop stop-color="#FFCE38" offset="34%"/><stop stop-color="#FFC324" offset="54%"/><stop stop-color="#FFB70E" offset="82%"/><stop stop-color="#FFB306" offset="100%"/></linearGradient><linearGradient x1="223344%" y1="96470%" x2="227135%" y2="96470%" id="e"><stop stop-color="#FFB306" offset="5%"/><stop stop-color="#EFA706" offset="14%"/><stop stop-color="#DA9905" offset="30%"/><stop stop-color="#CB8E05" offset="48%"/><stop stop-color="#C28805" offset="69%"/><stop stop-color="#BF8605" offset="100%"/></linearGradient></defs><g fill-rule="nonzero" fill="none"><path fill="url(#a)" d="M12.61 0l15.58 93.98 32.52-13.26L86.07 0H12.61"/><path fill="url(#b)" d="M69.21 0L47.38 16.55l-9.46 51.09-4.52-27.28L27.29 0z"/><path fill="url(#c)" d="M87.23 0L60.71 80.72 37.92 67.64 69.85 0z"/><path fill="url(#d)" d="M27.29 0H0l19.63 41.12 18.29 26.52z"/><path fill="url(#e)" d="M28.19 94.07l9.72-26.35-18.28-26.6L0 0"/></g></svg>