<svg width="88" height="95" viewBox="0 0 88 95" xmlns="http://www.w3.org/2000/svg"><title>T2_5</title><defs><linearGradient x1="-.014%" y1="50.011%" y2="50.011%" id="a"><stop stop-color="#905CEB" offset="5%"/><stop stop-color="#8F5BEB" offset="6%"/><stop stop-color="#8045E8" offset="39%"/><stop stop-color="#7738E7" offset="71%"/><stop stop-color="#7433E6" offset="100%"/></linearGradient><linearGradient x1="85.067%" y1="52.454%" x2="-11.88%" y2="41.854%" id="b"><stop stop-color="#AB85F0" offset="26%"/><stop stop-color="#A47AEF" offset="41%"/><stop stop-color="#9564EC" offset="77%"/><stop stop-color="#905CEB" offset="100%"/></linearGradient><linearGradient x1="217282%" y1="11031.298%" x2="220720%" y2="12107.896%" id="c"><stop stop-color="#AB85F0" offset="26%"/><stop stop-color="#A47AEF" offset="41%"/><stop stop-color="#9564EC" offset="77%"/><stop stop-color="#905CEB" offset="100%"/></linearGradient><linearGradient x1="221386%" y1="9816.851%" x2="226220%" y2="10084.626%" id="d"><stop stop-color="#AB85F0" offset="26%"/><stop stop-color="#A47AEF" offset="41%"/><stop stop-color="#9564EC" offset="77%"/><stop stop-color="#905CEB" offset="100%"/></linearGradient><linearGradient x1="221949%" y1="30001%" x2="225739%" y2="30001%" id="e"><stop stop-color="#905CEB" offset="5%"/><stop stop-color="#8F5BEB" offset="6%"/><stop stop-color="#8045E8" offset="39%"/><stop stop-color="#7738E7" offset="71%"/><stop stop-color="#7433E6" offset="100%"/></linearGradient></defs><g fill-rule="nonzero" fill="none"><path fill="url(#a)" d="M12.61 0l15.58 93.98 32.52-13.26L86.07 0H12.61"/><path fill="url(#b)" d="M69.21 0L47.38 16.55l-9.46 51.09-4.52-27.28L27.29 0z"/><path fill="url(#c)" d="M69.85 0h17.38L60.71 80.72 37.92 67.64z"/><path fill="url(#d)" d="M27.29 0H0l19.63 41.12 18.29 26.52z"/><path fill="url(#e)" d="M28.19 94.07l9.72-26.35-18.28-26.6L0 0"/></g></svg>