<svg  viewBox="0 0 88 95" xmlns="http://www.w3.org/2000/svg"><title>T2_6</title><defs><linearGradient x1="-.014%" y1="50.011%" y2="50.011%" id="a"><stop stop-color="#6BB59F" offset="5%"/><stop stop-color="#64A994" offset="12%"/><stop stop-color="#579481" offset="29%"/><stop stop-color="#4E8574" offset="47%"/><stop stop-color="#497C6C" offset="68%"/><stop stop-color="#47796A" offset="100%"/></linearGradient><linearGradient x1="85.067%" y1="52.454%" x2="-11.88%" y2="41.854%" id="b"><stop stop-color="#6BB59F" offset="7%"/><stop stop-color="#68B09A" offset="29%"/><stop stop-color="#5EA08C" offset="57%"/><stop stop-color="#4F8676" offset="87%"/><stop stop-color="#47796A" offset="100%"/></linearGradient><linearGradient x1="94.606%" y1="64.767%" x2="24.883%" y2="29.026%" id="c"><stop stop-color="#8EF1D4" offset="5%"/><stop stop-color="#80DABF" offset="23%"/><stop stop-color="#75C5AD" offset="45%"/><stop stop-color="#6DB9A3" offset="67%"/><stop stop-color="#6BB59F" offset="88%"/></linearGradient><linearGradient x1="221386%" y1="2828.945%" x2="226220%" y2="3096.72%" id="d"><stop stop-color="#8EF1D4" offset="5%"/><stop stop-color="#80DABF" offset="23%"/><stop stop-color="#75C5AD" offset="45%"/><stop stop-color="#6DB9A3" offset="67%"/><stop stop-color="#6BB59F" offset="88%"/></linearGradient><linearGradient x1="99.974%" y1="50.005%" x2="0%" y2="50.005%" id="e"><stop stop-color="#47796A" offset="0%"/><stop stop-color="#497D6D" offset="25%"/><stop stop-color="#508877" offset="49%"/><stop stop-color="#5C9B88" offset="73%"/><stop stop-color="#6BB59F" offset="95%"/></linearGradient></defs><g fill-rule="nonzero" fill="none"><path fill="url(#a)" d="M12.61 0l15.58 93.98 32.52-13.26L86.07 0H12.61"/><path fill="url(#b)" d="M69.21 0L47.38 16.55l-9.46 51.09-4.52-27.28L27.29 0z"/><path fill="url(#c)" d="M69.85 0h17.38L60.71 80.72 37.92 67.64z"/><path fill="url(#d)" d="M27.29 0H0l19.63 41.12 18.29 26.52z"/><path fill="url(#e)" d="M28.19 94.07l9.72-26.35-18.28-26.6L0 0"/></g></svg>