<svg  viewBox="0 0 88 95" xmlns="http://www.w3.org/2000/svg"><title>T2_3</title><defs><linearGradient x1="-.014%" y1="50.011%" y2="50.011%" id="a"><stop stop-color="#AC3926" offset="0%"/><stop stop-color="#B33B28" offset="23%"/><stop stop-color="#C7412C" offset="57%"/><stop stop-color="#E64B33" offset="95%"/></linearGradient><linearGradient x1="85.067%" y1="52.454%" x2="-11.88%" y2="41.854%" id="b"><stop stop-color="#EB6F5C" offset="5%"/><stop stop-color="#E85B45" offset="32%"/><stop stop-color="#E74F38" offset="58%"/><stop stop-color="#E64B33" offset="81%"/></linearGradient><linearGradient x1="94.606%" y1="64.767%" x2="24.883%" y2="29.026%" id="c"><stop stop-color="#EB6F5C" offset="5%"/><stop stop-color="#E85B45" offset="39%"/><stop stop-color="#E74F38" offset="71%"/><stop stop-color="#E64B33" offset="100%"/></linearGradient><linearGradient x1="221386%" y1="23719.434%" x2="226220%" y2="23987.208%" id="d"><stop stop-color="#EB6F5C" offset="5%"/><stop stop-color="#E85B45" offset="39%"/><stop stop-color="#E74F38" offset="71%"/><stop stop-color="#E64B33" offset="100%"/></linearGradient><linearGradient x1="99.974%" y1="50.005%" x2="0%" y2="50.005%" id="e"><stop stop-color="#AC3926" offset="0%"/><stop stop-color="#B03A27" offset="25%"/><stop stop-color="#BC3E2A" offset="50%"/><stop stop-color="#D1442E" offset="75%"/><stop stop-color="#E64B33" offset="95%"/></linearGradient></defs><g fill-rule="nonzero" fill="none"><path fill="url(#a)" d="M12.61 0l15.58 93.98 32.52-13.26L86.07 0H12.61"/><path fill="url(#b)" d="M69.21 0L47.38 16.55l-9.46 51.09-4.52-27.28L27.29 0z"/><path fill="url(#c)" d="M69.85 0h17.38L60.71 80.72 37.92 67.64z"/><path fill="url(#d)" d="M27.29 0H0l19.63 41.12 18.29 26.52z"/><path fill="url(#e)" d="M28.19 94.07l9.72-26.35-18.28-26.6L0 0"/></g></svg>